{
    "accessors" : [
        {
            "bufferView" : 0, 
            "componentType" : 5123, 
            "count" : 3462, 
            "max" : [
                2151
            ], 
            "min" : [
                0
            ], 
            "type" : "SCALAR"
        }, 
        {
            "bufferView" : 1, 
            "componentType" : 5126, 
            "count" : 2152, 
            "max" : [
                11.352447509765625, 
                22.16120147705078, 
                11.072399139404297
            ], 
            "min" : [
                -5.352447509765625, 
                0.0, 
                -11.160470962524414
            ], 
            "type" : "VEC3"
        }, 
        {
            "bufferView" : 2, 
            "componentType" : 5126, 
            "count" : 2152, 
            "max" : [
                1.0, 
                1.0, 
                1.0
            ], 
            "min" : [
                -1.0, 
                -1.0, 
                -1.0
            ], 
            "type" : "VEC3"
        }, 
        {
            "bufferView" : 3, 
            "componentType" : 5126, 
            "count" : 2152, 
            "max" : [
                1.0, 
                0.9960252046585083, 
                1.0, 
                1.0
            ], 
            "min" : [
                -1.0, 
                -0.8277970552444458, 
                -1.0, 
                1.0
            ], 
            "type" : "VEC4"
        }, 
        {
            "bufferView" : 4, 
            "componentType" : 5126, 
            "count" : 2152, 
            "max" : [
                0.9993703961372375, 
                0.9983569011092186
            ], 
            "min" : [
                0.0022180327214300632, 
                0.0012059211730957031
            ], 
            "type" : "VEC2"
        }, 
        {
            "bufferView" : 5, 
            "componentType" : 5123, 
            "count" : 17298, 
            "max" : [
                11583
            ], 
            "min" : [
                0
            ], 
            "type" : "SCALAR"
        }, 
        {
            "bufferView" : 6, 
            "componentType" : 5126, 
            "count" : 11584, 
            "max" : [
                23.07802391052246, 
                25.37742805480957, 
                9.927799224853516
            ], 
            "min" : [
                -5.0394439697265625, 
                0.0, 
                -9.90000057220459
            ], 
            "type" : "VEC3"
        }, 
        {
            "bufferView" : 7, 
            "componentType" : 5126, 
            "count" : 11584, 
            "max" : [
                1.0, 
                1.0, 
                1.0
            ], 
            "min" : [
                -1.0, 
                -1.0, 
                -1.0
            ], 
            "type" : "VEC3"
        }, 
        {
            "bufferView" : 8, 
            "componentType" : 5126, 
            "count" : 11584, 
            "max" : [
                1.0, 
                1.0, 
                1.0, 
                1.0
            ], 
            "min" : [
                -1.0, 
                -0.9999991655349731, 
                -1.0, 
                -1.0
            ], 
            "type" : "VEC4"
        }, 
        {
            "bufferView" : 9, 
            "componentType" : 5126, 
            "count" : 11584, 
            "max" : [
                0.9993915557861328, 
                0.9997307640733197
            ], 
            "min" : [
                0.0003944658674299717, 
                0.00036978721618652344
            ], 
            "type" : "VEC2"
        }
    ], 
    "asset" : {
        "generator" : "Khronos Blender glTF 2.0 exporter", 
        "version" : "2.0"
    }, 
    "bufferViews" : [
        {
            "buffer" : 0, 
            "byteLength" : 6924, 
            "byteOffset" : 0, 
            "target" : 34963
        }, 
        {
            "buffer" : 0, 
            "byteLength" : 25824, 
            "byteOffset" : 6924, 
            "target" : 34962
        }, 
        {
            "buffer" : 0, 
            "byteLength" : 25824, 
            "byteOffset" : 32748, 
            "target" : 34962
        }, 
        {
            "buffer" : 0, 
            "byteLength" : 34432, 
            "byteOffset" : 58572, 
            "target" : 34962
        }, 
        {
            "buffer" : 0, 
            "byteLength" : 17216, 
            "byteOffset" : 93004, 
            "target" : 34962
        }, 
        {
            "buffer" : 0, 
            "byteLength" : 34596, 
            "byteOffset" : 110220, 
            "target" : 34963
        }, 
        {
            "buffer" : 0, 
            "byteLength" : 139008, 
            "byteOffset" : 144816, 
            "target" : 34962
        }, 
        {
            "buffer" : 0, 
            "byteLength" : 139008, 
            "byteOffset" : 283824, 
            "target" : 34962
        }, 
        {
            "buffer" : 0, 
            "byteLength" : 185344, 
            "byteOffset" : 422832, 
            "target" : 34962
        }, 
        {
            "buffer" : 0, 
            "byteLength" : 92672, 
            "byteOffset" : 608176, 
            "target" : 34962
        }
    ], 
    "buffers" : [
        {
            "byteLength" : 700848, 
            "uri" : "BrinchsKran.bin"
        }
    ], 
      "images": [
    {
      "uri": "textures/Brinchs_Kran_Tak_baseColor.png"
    },
    {
      "uri": "textures/Brinchs_Kran_Tak_metallicRoughness.png"
    },
    {
      "uri": "textures/Brinchs_Kran_Tak_normal.png"
    },
    {
      "uri": "textures/Brinchs_Kran_baseColor.png"
    },
    {
      "uri": "textures/Brinchs_Kran_normal.png"
    },
    {
      "uri": "textures/Brinchs_Kran_metallicRoughness.png"
    }
  ],
    "materials" : [
        {
            "name" : "Brinchs_Kran", 
            "pbrMetallicRoughness" : {
                "baseColorFactor" : [
                    0.6400000190734865, 
                    0.6400000190734865, 
                    0.6400000190734865, 
                    1.0
                ], 
                "metallicFactor" : 0.0
            }
        }, 
        {
            "name" : "Brinchs_Kran_Tak", 
            "pbrMetallicRoughness" : {
                "baseColorFactor" : [
                    0.6400000190734865, 
                    0.6400000190734865, 
                    0.6400000190734865, 
                    1.0
                ], 
                "metallicFactor" : 0.0
            }
        }
    ], 
    "meshes" : [
        {
            "name" : "Cube.028", 
            "primitives" : [
                {
                    "attributes" : {
                        "NORMAL" : 2, 
                        "POSITION" : 1, 
                        "TANGENT" : 3, 
                        "TEXCOORD_0" : 4
                    }, 
                    "indices" : 0, 
                    "material" : 1
                }, 
                {
                    "attributes" : {
                        "NORMAL" : 7, 
                        "POSITION" : 6, 
                        "TANGENT" : 8, 
                        "TEXCOORD_0" : 9
                    }, 
                    "indices" : 5, 
                    "material" : 0
                }
            ]
        }
    ], 
    "nodes" : [
        {
            "mesh" : 0, 
            "name" : "Brinchs_Kran"
        }
    ], 
    "scene" : 0, 
    "scenes" : [
        {
            "name" : "Scene", 
            "nodes" : [
                0
            ]
        }
    ]
}
