<?xml version="1.0" encoding="utf-8"?>
<!-- Generator: Adobe Illustrator 22.1.0, SVG Export Plug-In . SVG Version: 6.00 Build 0)  -->
<svg version="1.1" id="Layer_1" xmlns="http://www.w3.org/2000/svg" xmlns:xlink="http://www.w3.org/1999/xlink" x="0px" y="0px"
	 viewBox="0 0 22.6 32" style="enable-background:new 0 0 22.6 32;" xml:space="preserve">
<style type="text/css">
	.st0{clip-path:url(#SVGID_2_);fill:#A90078;}
	.st1{fill:#FFFFFF;}
</style>
<g>
	<g>
		<g>
			<g>
				<defs>
					<rect id="SVGID_1_" width="22.6" height="32"/>
				</defs>
				<clipPath id="SVGID_2_">
					<use xlink:href="#SVGID_1_"  style="overflow:visible;"/>
				</clipPath>
				<path class="st0" d="M11.3,32c0.5-0.5,11.3-11.8,11.3-20.7c0-6.2-5-11.3-11.3-11.3S0,5.1,0,11.3C0,20.2,10.9,31.5,11.3,32"/>
			</g>
		</g>
	</g>
</g>
<g>
	<g>
		<path class="st1" d="M18.8,11l-2.6,2.9L13.6,11h2v-0.1c0-0.6-0.2-1.2-0.4-1.7s-0.6-1-1-1.4c-0.4-0.4-0.9-0.7-1.4-0.9
			c-0.5-0.2-1.1-0.3-1.7-0.3c-0.6,0-1.2,0.1-1.7,0.4s-1,0.6-1.4,1C7.5,8.2,7.2,8.7,7,9.2C6.7,9.8,6.6,10.3,6.6,11s0.1,1.2,0.4,1.8
			c0.2,0.5,0.6,1,1,1.4c0.4,0.4,0.9,0.7,1.4,1s1.1,0.4,1.7,0.4c0.5,0,1-0.1,1.4-0.2c0.5-0.2,0.9-0.4,1.2-0.6l1,1.1
			c-0.5,0.4-1.1,0.7-1.7,0.9c-0.6,0.2-1.3,0.3-2,0.3c-0.8,0-1.6-0.2-2.3-0.5s-1.4-0.7-1.9-1.3s-1-1.2-1.3-1.9
			c-0.3-0.7-0.5-1.5-0.5-2.3c0-0.8,0.2-1.6,0.5-2.3c0.3-0.7,0.7-1.4,1.3-1.9c0.5-0.5,1.2-1,1.9-1.3s1.5-0.5,2.3-0.5
			c0.8,0,1.6,0.2,2.3,0.5c0.7,0.3,1.3,0.7,1.9,1.3s1,1.2,1.3,1.9s0.5,1.5,0.5,2.3V11H18.8z"/>
		<path class="st1" d="M11.1,17.5c-0.9,0-1.7-0.2-2.5-0.5c-0.8-0.3-1.5-0.8-2.1-1.4c-0.6-0.6-1.1-1.3-1.4-2.1
			c-0.3-0.8-0.5-1.6-0.5-2.5s0.2-1.7,0.5-2.5c0.3-0.8,0.8-1.5,1.4-2.1C7.1,5.8,7.8,5.3,8.6,5c1.6-0.7,3.5-0.7,5,0
			c0.8,0.3,1.5,0.8,2,1.4c0.6,0.6,1,1.2,1.4,2c0.3,0.7,0.5,1.4,0.5,2.1H20l-3.8,4.1l-3.7-4.1h2.5c0-0.4-0.2-0.8-0.3-1.1
			c-0.2-0.5-0.5-0.9-0.9-1.2c-0.4-0.3-0.8-0.6-1.3-0.8c-0.9-0.4-2.1-0.4-3.1,0C9.1,7.5,8.7,7.8,8.3,8.1C7.9,8.5,7.7,8.9,7.4,9.4
			c-0.2,0.5-0.3,1-0.3,1.6s0.1,1.1,0.3,1.6c0.2,0.5,0.5,0.9,0.9,1.3c0.4,0.4,0.8,0.7,1.3,0.9c0.9,0.4,1.9,0.4,2.8,0.1
			c0.4-0.1,0.8-0.3,1.1-0.6l0.4-0.3l1.7,1.8l-0.4,0.3c-0.5,0.4-1.2,0.8-1.8,1C12.6,17.3,11.9,17.5,11.1,17.5z M11.1,5.4
			c-0.7,0-1.5,0.1-2.1,0.4C8.3,6.2,7.7,6.6,7.2,7.1C6.7,7.6,6.3,8.1,6.1,8.8C5.8,9.5,5.6,10.2,5.6,11s0.1,1.5,0.4,2.1
			c0.3,0.7,0.7,1.3,1.2,1.8C7.7,15.3,8.3,15.7,9,16c1.2,0.5,2.7,0.6,3.9,0.1c0.4-0.1,0.8-0.3,1.1-0.5l-0.3-0.4
			c-0.3,0.2-0.6,0.3-1,0.5c-1.1,0.4-2.4,0.3-3.5-0.1C8.6,15.3,8,15,7.6,14.5c-0.4-0.5-0.8-1-1.1-1.6c-0.3-0.6-0.4-1.3-0.4-2
			s0.1-1.3,0.4-2c0.3-0.6,0.6-1.1,1.1-1.6C8,7,8.6,6.6,9.2,6.3c1.2-0.5,2.7-0.5,3.9,0c0.6,0.3,1.1,0.6,1.6,1
			c0.4,0.4,0.8,0.9,1.1,1.5c0.3,0.6,0.4,1.2,0.4,1.9v0.7h-1.3l1.4,1.6l1.5-1.6h-1.1v-0.6c0-0.7-0.2-1.4-0.5-2.1
			c-0.3-0.7-0.7-1.2-1.2-1.7c-0.5-0.5-1.1-0.9-1.7-1.1C12.6,5.6,11.9,5.4,11.1,5.4z"/>
	</g>
</g>
</svg>
