<?xml version="1.0" encoding="utf-8"?>
<!-- Generator: Adobe Illustrator 22.1.0, SVG Export Plug-In . SVG Version: 6.00 Build 0)  -->
<svg version="1.1" id="Layer_1" xmlns="http://www.w3.org/2000/svg" xmlns:xlink="http://www.w3.org/1999/xlink" x="0px" y="0px"
	 viewBox="0 0 22.6 32" style="enable-background:new 0 0 22.6 32;" xml:space="preserve">
<style type="text/css">
	.st0{fill:#4F8BC6;}
	.st1{fill:#FFFFFF;}
</style>
<g>
	<g>
		<g>
			<g>
				<g>
					<path class="st0" d="M11.3,32c0.5-0.5,11.3-11.8,11.3-20.7c0-6.2-5-11.3-11.3-11.3S0,5.1,0,11.3C0,20.2,10.9,31.5,11.3,32"/>
				</g>
			</g>
		</g>
	</g>
</g>
<path class="st1" d="M16.144,14.474l3.681-4h-2.339c-0.056-0.717-0.229-1.404-0.515-2.047c-0.333-0.744-0.786-1.401-1.347-1.952
	c-0.562-0.551-1.224-0.992-1.967-1.309c-1.496-0.639-3.327-0.643-4.853,0.015c-0.759,0.327-1.43,0.78-1.995,1.346
	C6.243,7.093,5.792,7.765,5.47,8.524c-0.324,0.762-0.488,1.585-0.488,2.449c0,0.863,0.164,1.687,0.488,2.448
	c0.322,0.759,0.773,1.432,1.34,1.998c0.566,0.566,1.237,1.02,1.995,1.346c0.762,0.329,1.582,0.495,2.438,0.495
	c0.725,0,1.426-0.118,2.084-0.353c0.341-0.121,0.673-0.275,1.015-0.471l0.521-0.298l-1.597-1.888l-0.35,0.171
	c-0.149,0.073-0.301,0.143-0.462,0.197c-0.858,0.289-1.87,0.252-2.695-0.103c-0.462-0.198-0.87-0.475-1.213-0.822
	c-0.345-0.349-0.623-0.764-0.828-1.233C7.517,12,7.415,11.499,7.415,10.973s0.102-1.027,0.303-1.489
	C7.922,9.016,8.2,8.604,8.544,8.26s0.753-0.623,1.218-0.826c0.909-0.398,2.031-0.399,2.938-0.012
	c0.457,0.196,0.862,0.464,1.208,0.796c0.342,0.33,0.621,0.727,0.829,1.179c0.155,0.339,0.258,0.702,0.305,1.076h-2.478
	L16.144,14.474z"/>
</svg>
