<?xml version="1.0" encoding="utf-8"?>
<!-- Generator: Adobe Illustrator 22.1.0, SVG Export Plug-In . SVG Version: 6.00 Build 0)  -->
<svg version="1.1" id="Layer_1" xmlns="http://www.w3.org/2000/svg" xmlns:xlink="http://www.w3.org/1999/xlink" x="0px" y="0px"
	 viewBox="0 0 22.6 32" style="enable-background:new 0 0 22.6 32;" xml:space="preserve">
<style type="text/css">
	.st0{clip-path:url(#SVGID_2_);fill:#A90078;}
	.st1{clip-path:url(#SVGID_2_);fill:#FFFFFF;}
</style>
<g>
	<defs>
		<rect id="SVGID_1_" width="22.6" height="32"/>
	</defs>
	<clipPath id="SVGID_2_">
		<use xlink:href="#SVGID_1_"  style="overflow:visible;"/>
	</clipPath>
	<path class="st0" d="M11.3,32c0.5-0.5,11.3-11.8,11.3-20.7C22.6,5.1,17.6,0,11.3,0S0,5.1,0,11.3C0,20.2,10.9,31.5,11.3,32"/>
	<path class="st1" d="M14,14.6V17c0.9-0.8,1.8-1.5,2.8-2.4H14z M8.6,5.9C7.6,6.6,6,8,5.9,8.2c0.8,0.1,2.4,0,2.7,0V5.9z M16.7,5.6
		H9.3C9.2,6,9.2,7.9,9.3,8.2h4.2C14.6,7.4,15.6,6.5,16.7,5.6 M13.3,14.6c-0.1,0-0.1,0-0.2,0c-1.3,0-2.6,0-3.8,0
		c-0.2,0-0.3,0.1-0.4,0.2c-0.9,0.8-1.8,1.5-2.7,2.3c-0.1,0.1-0.1,0.1-0.2,0.2h7.3V14.6z M9.3,8.9v5h4c0.1-0.4,0.1-4.7,0-5H9.3z
		 M14,8.7v5.2c0.5,0.1,2.9,0.1,3.2,0V6C16.1,6.9,15.1,7.8,14,8.7 M5.3,16.9c1.1-1,2.2-1.9,3.3-2.8V9c-0.5-0.1-3-0.1-3.3,0V16.9z
		 M13.9,18H4.7V8.3c0.5-0.5,1.1-0.9,1.6-1.4c0.7-0.6,1.4-1.2,2.1-1.8C8.6,5,8.8,4.9,8.9,4.9c2.9,0,5.8,0,8.7,0c0.1,0,0.1,0,0.2,0
		c0.1,0.3,0.1,8.4,0,9.6C16.6,15.6,15.2,16.8,13.9,18"/>
</g>
</svg>
