<?xml version="1.0" encoding="utf-8"?>
<!-- Generator: Adobe Illustrator 22.1.0, SVG Export Plug-In . SVG Version: 6.00 Build 0)  -->
<svg version="1.1" id="Layer_1" xmlns="http://www.w3.org/2000/svg" xmlns:xlink="http://www.w3.org/1999/xlink" x="0px" y="0px"
	 viewBox="0 0 22.6 32" style="enable-background:new 0 0 22.6 32;" xml:space="preserve">
<style type="text/css">
	.st0{fill:#4F8BC6;}
	.st1{fill:#FFFFFF;}
</style>
<g>
	<g>
		<path class="st0" d="M11.3,32c0.5-0.5,11.3-11.8,11.3-20.7c0-6.2-5-11.3-11.3-11.3S0,5.1,0,11.3C0,20.2,10.9,31.5,11.3,32"/>
	</g>
</g>
<g>
	<path class="st1" d="M16.4,11.096l-7.055,4.365c-0.258,0.172-0.478,0.204-0.66,0.097c-0.183-0.107-0.274-0.322-0.274-0.644v-8.49
		c0-0.322,0.091-0.537,0.274-0.644c0.182-0.107,0.402-0.08,0.66,0.081l7.055,4.381c0.172,0.161,0.258,0.301,0.258,0.419
		C16.658,10.79,16.572,10.935,16.4,11.096z"/>
</g>
</svg>
