<?xml version="1.0" encoding="utf-8"?>
<!-- Generator: Adobe Illustrator 22.1.0, SVG Export Plug-In . SVG Version: 6.00 Build 0)  -->
<svg version="1.1" id="Layer_1" xmlns="http://www.w3.org/2000/svg" xmlns:xlink="http://www.w3.org/1999/xlink" x="0px" y="0px"
	 viewBox="0 0 22.6 32" style="enable-background:new 0 0 22.6 32;" xml:space="preserve">
<style type="text/css">
	.st0{clip-path:url(#SVGID_2_);fill:#A90078;}
	.st1{enable-background:new    ;}
	.st2{fill:#FFFFFF;}
</style>
<g>
	<defs>
		<rect id="SVGID_1_" width="22.6" height="32"/>
	</defs>
	<clipPath id="SVGID_2_">
		<use xlink:href="#SVGID_1_"  style="overflow:visible;"/>
	</clipPath>
	<path class="st0" d="M11.3,32c0.5-0.5,11.3-11.8,11.3-20.7c0-6.2-5-11.3-11.3-11.3S0,5.1,0,11.3C0,20.2,10.9,31.5,11.3,32"/>
</g>
<g class="st1">
	<path class="st2" d="M15.2,11.7l-6.1,3.8c-0.2,0.1-0.4,0.2-0.6,0.1c-0.2-0.1-0.2-0.3-0.2-0.6V7.6c0-0.3,0.1-0.5,0.2-0.6
		C8.7,7,8.8,7,9.1,7.1l6.1,3.8c0.1,0.1,0.2,0.3,0.2,0.4C15.4,11.4,15.4,11.5,15.2,11.7z"/>
</g>
</svg>
