<svg id="Layer_1" data-name="Layer 1" xmlns="http://www.w3.org/2000/svg" xmlns:xlink="http://www.w3.org/1999/xlink" viewBox="0 0 90 90"><defs><style>.cls-1,.cls-4{fill:none;}.cls-2{clip-path:url(#clip-path);}.cls-3{fill:#fff;}.cls-4{stroke:#222221;stroke-width:6px;}.cls-5{fill:#222221;}</style><clipPath id="clip-path"><rect class="cls-1" width="90" height="90"/></clipPath></defs><title>kart-toggle</title><g class="cls-2"><path class="cls-3" d="M45,87A42,42,0,1,0,3,45,42.047,42.047,0,0,0,45,87"/><circle class="cls-4" cx="45" cy="45" r="42"/><path class="cls-5" d="M45,39.5a5.634,5.634,0,0,0-9.609-3.984,5.634,5.634,0,0,0,7.968,7.968A5.421,5.421,0,0,0,45,39.5m14.766-3.164a1.974,1.974,0,0,0-.293-.234l-.352-.235a18.541,18.541,0,0,1,.645,2.52A14.818,14.818,0,0,1,60,41.023a14.606,14.606,0,0,1-1.172,5.831,15.121,15.121,0,0,1-8,8,15.1,15.1,0,0,1-11.66,0,15.121,15.121,0,0,1-8-8,15.052,15.052,0,0,1-.938-8.467,18.251,18.251,0,0,1,.645-2.52l-.352.235a1.923,1.923,0,0,0-.293.234,24.848,24.848,0,0,0-4.892,3.9,31.332,31.332,0,0,0-3.9,4.893,31.285,31.285,0,0,0,3.9,4.893,24.775,24.775,0,0,0,4.892,3.9,27.335,27.335,0,0,0,29.532,0,24.8,24.8,0,0,0,4.892-3.9,31.344,31.344,0,0,0,3.9-4.893,31.39,31.39,0,0,0-3.9-4.893,24.877,24.877,0,0,0-4.892-3.9M45,26.375a32.18,32.18,0,0,1,9.434,1.377,34.016,34.016,0,0,1,8.378,3.838,33.519,33.519,0,0,1,6.973,5.918A35.122,35.122,0,0,1,75,45.125a35.073,35.073,0,0,1-5.215,7.617,33.519,33.519,0,0,1-6.973,5.918A33.979,33.979,0,0,1,54.434,62.5a33.005,33.005,0,0,1-18.868,0,33.962,33.962,0,0,1-8.378-3.838,33.493,33.493,0,0,1-6.973-5.918A35.038,35.038,0,0,1,15,45.125a35.086,35.086,0,0,1,5.215-7.617,33.493,33.493,0,0,1,6.973-5.918,34,34,0,0,1,8.378-3.838A32.175,32.175,0,0,1,45,26.375"/></g></svg>