<?xml version="1.0" encoding="utf-8"?>
<!-- Generator: Adobe Illustrator 22.1.0, SVG Export Plug-In . SVG Version: 6.00 Build 0)  -->
<svg version="1.1" id="Layer_1" xmlns="http://www.w3.org/2000/svg" xmlns:xlink="http://www.w3.org/1999/xlink" x="0px" y="0px"
	 viewBox="0 0 318.2 35.1" style="enable-background:new 0 0 318.2 35.1;" xml:space="preserve">
<style type="text/css">
	.st0{fill:#FFFFFF;}
</style>
<g>
	<polygon class="st0" points="14,16.5 7.7,0 0,0 0,35.1 7.8,35.1 7.8,18.1 14.1,35.1 21.8,35.1 21.8,0 14,0 	"/>
	<path class="st0" d="M30.6,0l-7.4,35v0.1H31l0.8-5.2h6.1l0.8,5.2h7.8V35L39.1,0H30.6z M32.9,23.2l1.9-11.9l1.9,11.9H32.9z"/>
	<path class="st0" d="M64.3,0H51.7c-2.7,0-4,1.3-4,4.1v8.6c0,1.6,0.3,2.3,1.3,3l11.5,7.8v5.1h-5v-5.4h-7.8V31c0,2.8,1.3,4.1,4,4.1
		h12.6c2.7,0,4-1.3,4-4.1v-8.7c0-1.6-0.4-2.3-1.4-3.1l-11.4-7.8v-5h5v5.1h7.8V4C68.3,1.3,67,0,64.3,0z"/>
	<path class="st0" d="M82.8,28.4h-4.6v-5.8h-7.8V31c0,2.8,1.2,4.1,4,4.1h12.2c2.8,0,4-1.3,4-4.1V0h-7.8V28.4z"/>
	<path class="st0" d="M110.2,0H97C94.3,0,93,1.3,93,4.1V31c0,2.8,1.2,4.1,3.9,4.1h13.3c2.7,0,4-1.3,4-4.1V4.1
		C114.2,1.3,113,0,110.2,0z M106.4,28.4h-5.5V6.6h5.5V28.4z"/>
	<polygon class="st0" points="130.8,16.5 124.4,0 116.7,0 116.7,35.1 124.5,35.1 124.5,18.1 130.8,35.1 138.6,35.1 138.6,0 130.8,0 
			"/>
	<path class="st0" d="M147.3,0l-7.4,35v0.1h7.8l0.8-5.2h6.1l0.8,5.2h7.8V35l-7.4-35H147.3z M149.7,23.2l1.9-11.9l1.9,11.9H149.7z"/>
	<polygon class="st0" points="172.4,0 164.6,0 164.6,35.1 181.6,35.1 181.6,28 172.4,28 	"/>
	<polygon class="st0" points="196.4,15.5 196.1,15.5 191.2,0 183.2,0 183.2,35.1 190.9,35.1 190.9,17.8 193.6,32 198.9,32 
		201.6,17.8 201.6,35.1 209.2,35.1 209.2,0 201.3,0 	"/>
	<path class="st0" d="M225.1,28.4h-5.6V0h-7.8v31c0,2.8,1.2,4.1,4,4.1h13.2c2.8,0,4-1.3,4-4.1V0h-7.8V28.4z"/>
	<path class="st0" d="M252,0h-12.7c-2.7,0-4,1.3-4,4.1v8.6c0,1.6,0.3,2.3,1.3,3l11.5,7.8v5.1h-5v-5.4h-7.8V31c0,2.8,1.3,4.1,4,4.1
		H252c2.7,0,4-1.3,4-4.1v-8.7c0-1.6-0.4-2.3-1.4-3.1l-11.4-7.8v-5h5v5.1h7.8V4C256,1.3,254.8,0,252,0z"/>
	<polygon class="st0" points="266.3,20.4 274.7,20.4 274.7,13.7 266.3,13.7 266.3,6.9 276.7,6.9 276.7,0 258.5,0 258.5,35.1 
		276.8,35.1 276.8,28.1 266.3,28.1 	"/>
	<polygon class="st0" points="286.6,20.4 294.9,20.4 294.9,13.7 286.6,13.7 286.6,6.9 297,6.9 297,0 278.8,0 278.8,35.1 297.1,35.1 
		297.1,28.1 286.6,28.1 	"/>
	<polygon class="st0" points="298.1,0 298.1,6.9 304.2,6.9 304.2,35.1 312,35.1 312,6.9 318.2,6.9 318.2,0 	"/>
</g>
</svg>
