<?xml version="1.0" encoding="utf-8"?>
<!-- Generator: Adobe Illustrator 22.1.0, SVG Export Plug-In . SVG Version: 6.00 Build 0)  -->
<svg version="1.1" id="Layer_1" xmlns="http://www.w3.org/2000/svg" xmlns:xlink="http://www.w3.org/1999/xlink" x="0px" y="0px"
	 viewBox="0 0 30.2 22.6" style="enable-background:new 0 0 30.2 22.6;" xml:space="preserve">
<style type="text/css">
	.st0{fill:#FFFFFF;}
</style>
<path class="st0" d="M26,11.1c0.4,6-4.7,11.4-10.9,11.5C9,22.7,4.6,18,4.1,14c1.4-0.3,2.8-0.7,4.1-0.9c0.3,0,0.7,0.3,0.9,0.6
	c0.7,1.5,1.8,2.7,3.4,3.3c2.8,1.2,6.1,0.3,7.6-2.4c0.6-1.1,1.5-1.7,2.5-2.2C23.7,12,24.8,11.6,26,11.1z"/>
<path class="st0" d="M27.2,9.4c-0.9-0.2-1.2-0.7-1.5-1.5C24,2.4,18.5-0.8,12.9,0.2c-5,0.9-8.7,5-9.1,10c-0.1,0.9-0.4,1.3-1.3,1.2
	c-0.9-0.1-1.7-0.2-2.5-0.3c1.7,1.3,3.7,2.6,5.8,1.9c2.2-0.7,3.9-0.4,5.7,0.7c0.3,0.2,0.7,0.3,1.1,0.4c2,0.7,4,0.8,5.9-0.2
	c1.4-0.8,2.9-1.4,4.3-2.2c2.1-1.1,4.3-1.3,6.5-0.5c0.3,0.1,0.6,0.1,0.9,0.2C29.5,10.3,28.4,9.7,27.2,9.4z M12.4,12.9
	c-0.6,0-1.3-0.1-2-0.4c-0.1-0.1-0.2-0.1-0.3-0.2c-0.2-0.1-0.5-0.2-0.7-0.3c3-2.7,7.3-3.6,10.3-1.9C17.2,11.1,15,13,12.4,12.9z
	 M9.5,8.5c0.9-2.3,3.7-3.8,6-3.5c2.7,0.4,5,2.2,5.3,4.6C17.2,7.9,13.5,6.8,9.5,8.5z"/>
</svg>
