<?xml version="1.0" encoding="utf-8"?>
<!-- Generator: Adobe Illustrator 22.1.0, SVG Export Plug-In . SVG Version: 6.00 Build 0)  -->
<svg version="1.1" id="Layer_1" xmlns="http://www.w3.org/2000/svg" xmlns:xlink="http://www.w3.org/1999/xlink" x="0px" y="0px"
	 viewBox="0 0 824.3 255.8" style="enable-background:new 0 0 824.3 255.8;" xml:space="preserve">
<style type="text/css">
	.st0{fill:#FFFFFF;}
	.st1{fill:#FFFDFE;}
</style>
<g>
	<path class="st0" d="M158.3,126.8c0-1.6,0-2.8,0-4.4c11.9-1.7,14.9-8.5,11.5-18.8c-6.6-10.1-24.6-10.7-33.2-2.4
		c-3.6,3.4-6,7.6-7.1,12.4c-1.5,6.7-1.1,13.5,1.8,19.8c4.4,9.8,12.6,14.6,22.8,16.6c2.3,0.4,4.6,0.9,6.9,1
		c9.8,0.2,18.8-2.1,26.2-8.7c4-3.6,6.7-8.2,8.7-13.2c2.4-5.9,3.5-12.1,4-18.4c0.5-7.1-1.8-13.8-4.8-20.1
		c-4.1-8.2-10.2-14.8-18.2-19.3c-3.6-2-7.5-3.6-11.4-4.6c-10.3-2.7-20.7-2.7-30.9,0.7c-17.6,5.9-28.4,18.3-33.3,36
		c-1.8,6.6-2.6,13.4-2,20.2c1.1,12.7,5.4,24.1,13.8,33.9c6.3,7.3,13.6,13.1,22.4,17c6.3,2.8,12.9,5.3,20,5.5c3,0.1,5.9,1,8.9,0.8
		c18.6-1.1,35-7.5,47.3-22.1c7.9-9.4,13.2-20.2,15.7-32.4c1.3-6.2,1.9-12.4,1.9-18.7c0-7.9-1.7-15.5-4.7-22.7
		c-4.5-10.9-10.9-20.6-19.6-28.6c-7.7-7-16.4-12.2-26.1-16.1c-12.2-5-25-5.2-37.6-4c-11.1,1.1-21.7,4.9-31.1,11.2
		c-4.9,3.3-10,6.7-14.3,10.7c-5.3,5-9.7,10.8-13.7,17c-4.2,6.6-7.3,13.8-9.6,21.3c-1.9,6.3-3,12.8-3.5,19.5
		c-0.4,4.8-0.1,9.5,0.3,14.3c0.6,8,2.8,15.6,6.1,22.9c3.9,8.9,9.1,16.9,15.6,24.2c13.8,15.5,30.7,25.6,50.7,30.6
		c9.7,2.4,19.5,2.7,29.2,1.8c13-1.2,25.2-5.3,36.5-12.2c8.4-5.2,16.2-11,22.9-18.3c9-9.7,15.9-20.7,21-33c3.3-7.9,5.3-16,6.6-24.4
		c0.7-4.2,0.2-8.6,0.3-13c0.5-12-2.5-23.4-6.5-34.5c-3.6-10-8.8-19.3-15.1-27.9C228.7,36,219,27.7,207.8,21
		c-11.1-6.7-23.1-10.4-35.7-13c-10.7-2.2-21.5-2.6-32.2-1.7c-16.6,1.4-32.6,5.9-46.8,15c-12.9,8.2-23.2,19.2-31.1,32.3
		c-7,11.6-11.9,24.1-15,37.2c-1.8,7.4-3.6,14.8-3.8,22.5c-0.1,2.8-0.8,5.6-0.8,8.4c-0.2,9.2,1.3,18.2,3.1,27.1
		c2.2,11.2,5,22.3,8.9,33c0.8,2.1,1.5,4.3,2.4,6.6c-24.9,16.5-40.6,39.3-49.2,67.5c-2.3,0-4.4,0-6.5,0c-0.1-0.1-0.2-0.2-0.3-0.4
		c-0.1-0.1-0.2-0.3-0.2-0.4c-0.1-1.5-0.2-3-0.2-4.5c0-46.8,0.1-93.7,0.2-140.5c0-0.3,0.3-0.6,0.6-1.3c0.8-0.2,1.9-0.6,3-0.7
		c4.9-0.8,7.1-3.4,7.4-8.5c0.4-7.1-2.5-12.2-8.8-15.4c-0.4-0.2-0.9-0.5-1.3-0.8c-0.1-0.1-0.2-0.2-0.6-0.7C-0.8,69.8,0.9,56.5,1,43.3
		C1,30.1,1,17,1,3.4C2.6,3.3,4,3.2,5.4,3.1c0.3,0.8,0.7,1.2,0.7,1.6c0.1,2.5,0.1,5,0.1,7.5c0,20.7,0,41.3,0,62c0,1.8,0,3.6,0,5.5
		c5.8,3.2,8.7,8.4,10.4,14.3c1.4,4.7,1,9.5-1.8,13.4c-1.9,2.7-5.2,4.4-8.4,7.1c0,41.4,0,83.7,0,126.1c11.7-25,24-40,42.6-53.9
		c-0.1-0.9,0.1-2.1-0.3-3.1c-3.8-11.3-6.7-22.9-9.2-34.5c-2.6-12.1-3.5-24.4-2.3-36.6c1.9-20.1,7.5-39.3,17.3-57.2
		C65.6,35,81.3,19.7,102.2,10c8.9-4.1,18.3-6.6,28-8.1c7.2-1.1,14.4-2.1,21.7-1.9c15.2,0.5,29.9,3.3,44,8.9
		c9,3.6,17.4,8.2,25.1,14.1c10,7.7,18.2,16.9,24.9,27.6c5.9,9.5,10.6,19.5,13.5,30.3c1.6,5.9,2.3,12,3.7,17.9
		c1.1,4.6,0.9,9.2,0.9,13.9c0,8.2-1.7,16.1-3.7,23.9c-3.8,14.3-10.5,27.2-19.5,38.8c-9.3,11.9-20.5,21.6-33.9,28.8
		c-9.3,4.9-19,8.8-29.4,10.5c-8.7,1.4-17.3,1.7-26.2,0.6c-12-1.5-23.3-4.8-34-10.3c-8.9-4.6-16.9-10.5-24.2-17.3
		c-8-7.5-14.6-15.9-19.8-25.5c-4.8-8.8-7.7-18.2-9.4-28.2c-1.2-6.8-1.3-13.6-0.7-20.4c0.9-10.4,3.7-20.5,7.9-30.1
		c5.9-13.6,14.9-24.8,26.2-34.2c10.3-8.6,22.2-14.4,35.4-17.5c9-2.1,18.1-2.7,27.2-1.8c17.1,1.7,32.2,8.2,45.4,19.4
		c11.6,9.8,20.1,21.6,25.3,35.7c3.5,9.4,5.4,19.2,4.4,29.3c-1.6,15-5.7,29.2-14.5,41.8c-10.4,15.1-24.7,24.7-42.4,28.4
		c-22.2,4.6-42.6-0.3-60.3-14.6c-12.6-10.2-20.7-23.3-23.5-39.3c-0.8-4.6-0.9-9.4-0.6-14.2c0.4-5.3,0.8-10.6,2.3-15.7
		c5.1-17.4,15.6-30,32.5-37.2c8.1-3.4,16.5-5.1,25.2-4.6c24.9,1.3,44.8,16.4,50.4,40.5c2.6,11,0.9,21.8-3.3,32.1
		c-1.9,4.6-4.3,9-7.9,12.6c-3.6,3.7-7.7,6.9-12.5,8.8c-12.7,4.9-25.4,4.6-37.8-0.9c-10.3-4.6-16.6-12.6-18.9-24
		c-1.9-9.9-0.3-18.6,5.4-26.9c4.2-6.2,10.2-9.8,17.1-11c6.7-1.2,13.6-0.8,19.9,2.7c6.5,3.6,10.6,8.5,10,16.3c-0.1,2.1,0,4.4-0.5,6.4
		C173.7,123.7,167.4,127.7,158.3,126.8z"/>
</g>
<g>
	<path class="st1" d="M304.7,59.7V16h5.9l22.9,34.3V16h5.5v43.7h-5.9l-22.9-34.3v34.3H304.7z"/>
	<path class="st1" d="M386.3,26.2c-1.7-3.4-4.2-6.1-7.4-8.1c-3.2-1.9-6.9-2.9-10.9-2.9c-6.2,0-11.2,2.1-15.1,6.2
		c-3.9,4.1-5.8,9.8-5.8,17c0,3.8,0.8,7.5,2.5,10.9s4.1,6.1,7.4,8.1c3.2,2,6.9,3,11,3c3.8,0,7.3-0.9,10.6-2.7
		c3.3-1.8,5.8-4.4,7.6-7.9s2.7-7.5,2.7-11.9C388.9,33.5,388,29.6,386.3,26.2z M378.7,50.9c-2.8,3.1-6.4,4.6-10.7,4.6
		c-4.3,0-7.8-1.5-10.6-4.5c-2.8-3-4.2-7.2-4.2-12.4c0-6.6,1.5-11.3,4.4-14.1c2.9-2.8,6.5-4.2,10.6-4.2c2.9,0,5.5,0.7,7.8,2.2
		c2.3,1.5,4.1,3.5,5.3,6.2c1.2,2.7,1.8,5.8,1.8,9.3C382.9,43.5,381.5,47.8,378.7,50.9z"/>
	<path class="st1" d="M427.3,47.8c-1.5-2.3-3.1-4.3-4.8-5.8c-0.8-0.7-2-1.4-3.5-2.2c4.2-0.6,7.3-1.9,9.3-4.1c2-2.1,3-4.7,3-7.8
		c0-2.4-0.6-4.6-1.8-6.6c-1.2-2-2.8-3.4-4.9-4.2s-5-1.2-8.9-1.2h-19.4v43.7h5.8V40.3h6.7c1.5,0,2.6,0.1,3.2,0.2
		c0.9,0.2,1.8,0.6,2.6,1.2c0.9,0.6,1.8,1.5,2.9,2.9c1.1,1.4,2.5,3.4,4.2,6l5.8,9.1h7.3L427.3,47.8z M414.6,35.3h-12.4V20.8H416
		c3.2,0,5.6,0.7,7.1,2c1.5,1.3,2.2,3,2.2,5.1c0,1.4-0.4,2.7-1.2,3.9c-0.8,1.2-1.9,2.1-3.4,2.6S417.2,35.3,414.6,35.3z"/>
	<path class="st1" d="M438.4,45.6l5.5-0.5c0.3,2.2,0.9,4,1.8,5.4c0.9,1.4,2.4,2.5,4.4,3.4c2,0.9,4.2,1.3,6.7,1.3
		c2.2,0,4.1-0.3,5.8-1c1.7-0.7,2.9-1.6,3.8-2.7c0.8-1.1,1.2-2.4,1.2-3.7c0-1.4-0.4-2.6-1.2-3.6c-0.8-1-2.1-1.9-3.9-2.6
		c-1.2-0.5-3.8-1.2-7.8-2.1c-4-1-6.8-1.9-8.4-2.7c-2.1-1.1-3.6-2.4-4.7-4.1c-1-1.6-1.5-3.4-1.5-5.4c0-2.2,0.6-4.3,1.9-6.2
		s3.1-3.4,5.5-4.4c2.4-1,5.1-1.5,8-1.5c3.2,0,6.1,0.5,8.6,1.6c2.5,1,4.4,2.6,5.7,4.6c1.3,2,2,4.3,2.1,6.9l-5.5,0.4
		c-0.3-2.8-1.3-4.8-3-6.3c-1.7-1.4-4.3-2.1-7.6-2.1c-3.5,0-6,0.6-7.6,1.9c-1.6,1.3-2.4,2.8-2.4,4.6c0,1.6,0.6,2.9,1.7,3.9
		c1.1,1,4,2.1,8.7,3.1c4.7,1.1,7.9,2,9.7,2.8c2.5,1.2,4.4,2.7,5.6,4.5c1.2,1.8,1.8,3.9,1.8,6.2c0,2.3-0.7,4.5-2,6.6
		c-1.3,2.1-3.2,3.7-5.7,4.8c-2.5,1.1-5.3,1.7-8.4,1.7c-4,0-7.3-0.6-9.9-1.7c-2.7-1.2-4.8-2.9-6.3-5.2
		C439.3,51.2,438.5,48.6,438.4,45.6z"/>
	<path class="st1" d="M480.8,59.7V16h5.8v21.7L508.3,16h7.8l-18.3,17.7l19.1,26h-7.6l-15.5-22.1l-7.1,7v15.1H480.8z"/>
	<path class="st1" d="M304.6,132.9V89.2h5.8v38.5h21.5v5.2H304.6z"/>
	<path class="st1" d="M376.2,99.4c-1.7-3.4-4.2-6.1-7.4-8.1c-3.2-1.9-6.9-2.9-10.9-2.9c-6.2,0-11.2,2.1-15.1,6.2
		c-3.9,4.1-5.8,9.8-5.8,17c0,3.8,0.8,7.5,2.5,10.9s4.1,6.1,7.4,8.1c3.2,2,6.9,3,11,3c3.8,0,7.3-0.9,10.6-2.7
		c3.3-1.8,5.8-4.4,7.6-7.9s2.7-7.5,2.7-11.9C378.7,106.7,377.9,102.8,376.2,99.4z M368.6,124.1c-2.8,3.1-6.4,4.6-10.7,4.6
		c-4.3,0-7.8-1.5-10.6-4.5c-2.8-3-4.2-7.2-4.2-12.4c0-6.6,1.5-11.3,4.4-14.1c2.9-2.8,6.5-4.2,10.6-4.2c2.9,0,5.5,0.7,7.8,2.2
		c2.3,1.5,4.1,3.5,5.3,6.2c1.2,2.7,1.8,5.8,1.8,9.3C372.8,116.7,371.4,121,368.6,124.1z"/>
	<path class="st1" d="M385.9,132.9V89.2h5.8v21.7l21.7-21.7h7.8l-18.3,17.7l19.1,26h-7.6l-15.5-22.1l-7.1,7v15.1H385.9z"/>
	<path class="st1" d="M445.1,89.2h-6.2l-16.8,43.7h6.1l4.8-13.2h18.3l5.1,13.2h6.6L445.1,89.2z M434.7,114.9l4.8-12.8
		c1-2.8,1.8-5.5,2.4-8.3c0.7,2.4,1.7,5.4,3.1,9.1l4.6,12.1H434.7z"/>
	<path class="st1" d="M467.3,132.9V89.2h5.8v38.5h21.5v5.2H467.3z"/>
	<path class="st1" d="M501.6,132.9V89.2h5.8v17.9h22.7V89.2h5.8v43.7h-5.8v-20.6h-22.7v20.6H501.6z"/>
	<path class="st1" d="M546.5,132.9V89.2h5.8v43.7H546.5z"/>
	<path class="st1" d="M560.5,118.8l5.5-0.5c0.3,2.2,0.9,4,1.8,5.4c0.9,1.4,2.4,2.5,4.4,3.4c2,0.9,4.2,1.3,6.7,1.3
		c2.2,0,4.2-0.3,5.8-1c1.7-0.7,2.9-1.6,3.8-2.7s1.2-2.4,1.2-3.7c0-1.4-0.4-2.6-1.2-3.6s-2.1-1.9-3.9-2.6c-1.2-0.5-3.8-1.2-7.8-2.1
		c-4-1-6.8-1.9-8.4-2.7c-2.1-1.1-3.6-2.4-4.7-4.1c-1-1.6-1.5-3.4-1.5-5.4c0-2.2,0.6-4.3,1.9-6.2c1.2-1.9,3.1-3.4,5.5-4.4
		c2.4-1,5.1-1.5,8-1.5c3.2,0,6.1,0.5,8.6,1.6c2.5,1,4.4,2.6,5.7,4.6c1.3,2,2,4.3,2.1,6.9l-5.5,0.4c-0.3-2.8-1.3-4.8-3-6.3
		c-1.7-1.4-4.3-2.1-7.6-2.1c-3.5,0-6,0.6-7.6,1.9c-1.6,1.3-2.4,2.8-2.4,4.6c0,1.6,0.6,2.9,1.7,3.9c1.1,1,4,2.1,8.7,3.1
		c4.7,1.1,7.9,2,9.7,2.8c2.5,1.2,4.4,2.7,5.6,4.5s1.8,3.9,1.8,6.2c0,2.3-0.7,4.5-2,6.6c-1.3,2.1-3.2,3.7-5.7,4.8
		c-2.5,1.1-5.3,1.7-8.4,1.7c-4,0-7.3-0.6-9.9-1.7c-2.7-1.2-4.8-2.9-6.3-5.2C561.4,124.4,560.6,121.8,560.5,118.8z"/>
	<path class="st1" d="M614.3,132.9V94.3h-14.4v-5.2h34.6v5.2H620v38.5H614.3z"/>
	<path class="st1" d="M676.8,99.4c-1.7-3.4-4.2-6.1-7.4-8.1c-3.2-1.9-6.9-2.9-10.9-2.9c-6.2,0-11.2,2.1-15.1,6.2
		c-3.9,4.1-5.8,9.8-5.8,17c0,3.8,0.8,7.5,2.5,10.9s4.1,6.1,7.4,8.1c3.2,2,6.9,3,11,3c3.8,0,7.3-0.9,10.6-2.7
		c3.3-1.8,5.8-4.4,7.6-7.9s2.7-7.5,2.7-11.9C679.3,106.7,678.5,102.8,676.8,99.4z M669.1,124.1c-2.8,3.1-6.4,4.6-10.7,4.6
		c-4.3,0-7.8-1.5-10.6-4.5c-2.8-3-4.2-7.2-4.2-12.4c0-6.6,1.5-11.3,4.4-14.1c2.9-2.8,6.5-4.2,10.6-4.2c2.9,0,5.5,0.7,7.8,2.2
		c2.3,1.5,4.1,3.5,5.3,6.2c1.2,2.7,1.8,5.8,1.8,9.3C673.4,116.7,672,121,669.1,124.1z"/>
	<path class="st1" d="M717.7,121c-1.5-2.3-3.1-4.3-4.8-5.8c-0.8-0.7-2-1.4-3.5-2.2c4.2-0.6,7.3-1.9,9.3-4.1c2-2.1,3-4.7,3-7.8
		c0-2.4-0.6-4.6-1.8-6.6c-1.2-2-2.8-3.4-4.9-4.2s-5-1.2-8.9-1.2h-19.4v43.7h5.8v-19.4h6.7c1.5,0,2.6,0.1,3.2,0.2
		c0.9,0.2,1.8,0.6,2.6,1.2c0.9,0.6,1.8,1.5,2.9,2.9c1.1,1.4,2.5,3.4,4.2,6l5.8,9.1h7.3L717.7,121z M705.1,108.5h-12.4V94h13.8
		c3.2,0,5.6,0.7,7.1,2c1.5,1.3,2.2,3,2.2,5.1c0,1.4-0.4,2.7-1.2,3.9s-1.9,2.1-3.4,2.6S707.7,108.5,705.1,108.5z"/>
	<path class="st1" d="M731.8,132.9V89.2h5.8v43.7H731.8z"/>
	<path class="st1" d="M745.8,118.8l5.5-0.5c0.3,2.2,0.9,4,1.8,5.4c0.9,1.4,2.4,2.5,4.4,3.4c2,0.9,4.2,1.3,6.7,1.3
		c2.2,0,4.2-0.3,5.8-1c1.7-0.7,2.9-1.6,3.8-2.7s1.2-2.4,1.2-3.7c0-1.4-0.4-2.6-1.2-3.6s-2.1-1.9-3.9-2.6c-1.2-0.5-3.8-1.2-7.8-2.1
		c-4-1-6.8-1.9-8.4-2.7c-2.1-1.1-3.6-2.4-4.7-4.1c-1-1.6-1.5-3.4-1.5-5.4c0-2.2,0.6-4.3,1.9-6.2c1.2-1.9,3.1-3.4,5.5-4.4
		c2.4-1,5.1-1.5,8-1.5c3.2,0,6.1,0.5,8.6,1.6c2.5,1,4.4,2.6,5.7,4.6c1.3,2,2,4.3,2.1,6.9l-5.5,0.4c-0.3-2.8-1.3-4.8-3-6.3
		c-1.7-1.4-4.3-2.1-7.6-2.1c-3.5,0-6,0.6-7.6,1.9c-1.6,1.3-2.4,2.8-2.4,4.6c0,1.6,0.6,2.9,1.7,3.9c1.1,1,4,2.1,8.7,3.1
		c4.7,1.1,7.9,2,9.7,2.8c2.5,1.2,4.4,2.7,5.6,4.5s1.8,3.9,1.8,6.2c0,2.3-0.7,4.5-2,6.6c-1.3,2.1-3.2,3.7-5.7,4.8
		c-2.5,1.1-5.3,1.7-8.4,1.7c-4,0-7.3-0.6-9.9-1.7c-2.7-1.2-4.8-2.9-6.3-5.2C746.7,124.4,745.9,121.8,745.8,118.8z"/>
	<path class="st1" d="M788.2,132.9V89.2h5.8v21.7l21.7-21.7h7.8l-18.3,17.7l19.1,26h-7.6l-15.5-22.1l-7.1,7v15.1H788.2z"/>
	<path class="st1" d="M305.8,206.1v-43.7h5.8v43.7H305.8z"/>
	<path class="st1" d="M321.7,206.1v-43.7h5.9l22.9,34.3v-34.3h5.5v43.7h-5.9l-22.9-34.3v34.3H321.7z"/>
	<path class="st1" d="M363.8,192l5.5-0.5c0.3,2.2,0.9,4,1.8,5.4c0.9,1.4,2.4,2.5,4.4,3.4c2,0.9,4.2,1.3,6.7,1.3c2.2,0,4.1-0.3,5.8-1
		c1.7-0.7,2.9-1.6,3.8-2.7c0.8-1.1,1.2-2.4,1.2-3.7c0-1.4-0.4-2.6-1.2-3.6c-0.8-1-2.1-1.9-3.9-2.6c-1.2-0.5-3.8-1.2-7.8-2.1
		c-4-1-6.8-1.9-8.4-2.7c-2.1-1.1-3.6-2.4-4.7-4.1c-1-1.6-1.5-3.4-1.5-5.4c0-2.2,0.6-4.3,1.9-6.2s3.1-3.4,5.5-4.4
		c2.4-1,5.1-1.5,8-1.5c3.2,0,6.1,0.5,8.6,1.6c2.5,1,4.4,2.6,5.7,4.6c1.3,2,2,4.3,2.1,6.9l-5.5,0.4c-0.3-2.8-1.3-4.8-3-6.3
		c-1.7-1.4-4.3-2.1-7.6-2.1c-3.5,0-6,0.6-7.6,1.9c-1.6,1.3-2.4,2.8-2.4,4.6c0,1.6,0.6,2.9,1.7,3.9c1.1,1,4,2.1,8.7,3.1
		c4.7,1.1,7.9,2,9.7,2.8c2.5,1.2,4.4,2.7,5.6,4.5c1.2,1.8,1.8,3.9,1.8,6.2c0,2.3-0.7,4.5-2,6.6c-1.3,2.1-3.2,3.7-5.7,4.8
		c-2.5,1.1-5.3,1.7-8.4,1.7c-4,0-7.3-0.6-9.9-1.7c-2.7-1.2-4.8-2.9-6.3-5.2C364.7,197.6,363.9,195,363.8,192z"/>
	<path class="st1" d="M417.6,206.1v-38.5h-14.4v-5.2h34.6v5.2h-14.4v38.5H417.6z"/>
	<path class="st1" d="M444.7,206.1v-43.7h5.8v43.7H444.7z"/>
	<path class="st1" d="M471.8,206.1v-38.5h-14.4v-5.2H492v5.2h-14.4v38.5H471.8z"/>
	<path class="st1" d="M526.6,162.4h5.8v25.2c0,4.4-0.5,7.9-1.5,10.5c-1,2.6-2.8,4.7-5.4,6.3c-2.6,1.6-6,2.4-10.2,2.4
		c-4.1,0-7.4-0.7-10-2.1s-4.5-3.5-5.6-6.1c-1.1-2.7-1.7-6.3-1.7-10.9v-25.2h5.8v25.2c0,3.8,0.4,6.6,1.1,8.4s1.9,3.2,3.6,4.2
		c1.7,1,3.8,1.5,6.3,1.5c4.2,0,7.3-1,9.1-2.9c1.8-1.9,2.7-5.6,2.7-11.1V162.4z"/>
	<path class="st1" d="M553.1,206.1v-38.5h-14.4v-5.2h34.6v5.2h-14.4v38.5H553.1z"/>
	<path class="st1" d="M590.4,206.1v-38.5H576v-5.2h34.6v5.2h-14.4v38.5H590.4z"/>
</g>
</svg>
