<?xml version="1.0" encoding="utf-8"?>
<!-- Generator: Adobe Illustrator 22.1.0, SVG Export Plug-In . SVG Version: 6.00 Build 0)  -->
<svg version="1.1" id="Lag_1" xmlns="http://www.w3.org/2000/svg" xmlns:xlink="http://www.w3.org/1999/xlink" x="0px" y="0px"
	 viewBox="0 0 138.3 33.3" style="enable-background:new 0 0 138.3 33.3;" xml:space="preserve">
<style type="text/css">
	.st0{fill:#FFFFFF;}
</style>
<g>
	<g>
		<path class="st0" d="M1.5,10.7C2.4,10.7,3,10,3,9.2c0-0.8-0.7-1.5-1.5-1.5C0.7,7.7,0,8.3,0,9.2C0,10,0.7,10.7,1.5,10.7z"/>
		<path class="st0" d="M5.4,0v28.1h17.8V0H5.4z M9.1,10.7c-0.8,0-1.5-0.7-1.5-1.5c0-0.8,0.7-1.5,1.5-1.5c0.8,0,1.5,0.7,1.5,1.5
			C10.7,10,10,10.7,9.1,10.7z M16.7,25.7c-0.8,0-1.5-0.7-1.5-1.5c0-0.8,0.7-1.5,1.5-1.5c0.8,0,1.5,0.7,1.5,1.5
			C18.2,25,17.5,25.7,16.7,25.7z M16.7,18.2c-0.8,0-1.5-0.7-1.5-1.5s0.7-1.5,1.5-1.5c0.8,0,1.5,0.7,1.5,1.5S17.5,18.2,16.7,18.2z
			 M16.7,10.7c-0.8,0-1.5-0.7-1.5-1.5c0-0.8,0.7-1.5,1.5-1.5c0.8,0,1.5,0.7,1.5,1.5C18.2,10,17.5,10.7,16.7,10.7z"/>
		<path class="st0" d="M16.8,33.3c0.8,0,1.5-0.7,1.5-1.5c0-0.8-0.7-1.5-1.5-1.5c-0.8,0-1.5,0.7-1.5,1.5C15.3,32.6,16,33.3,16.8,33.3
			z"/>
	</g>
	<g>
		<path class="st0" d="M33.6,19.6H35v8.2h-1.2L29.3,22v5.8h-1.4v-8.2h1.3l4.4,5.7V19.6z"/>
		<path class="st0" d="M40.8,27.8v-0.8c-0.4,0.5-1.1,0.9-2,0.9c-1.2,0-2.2-0.7-2.2-1.9v0c0-1.3,1.1-2,2.5-2c0.7,0,1.2,0.1,1.7,0.3
			v-0.2c0-0.9-0.5-1.3-1.5-1.3c-0.7,0-1.2,0.2-1.8,0.4l-0.4-1.1c0.7-0.3,1.3-0.5,2.4-0.5c1.8,0,2.7,1,2.7,2.6v3.7H40.8z M40.8,25.2
			c-0.4-0.1-0.9-0.2-1.4-0.2c-0.9,0-1.4,0.4-1.4,1v0c0,0.6,0.5,0.9,1.2,0.9c0.9,0,1.6-0.5,1.6-1.3V25.2z"/>
		<path class="st0" d="M46,27.9c-0.9,0-1.8-0.3-2.6-0.9l0.6-1c0.7,0.5,1.4,0.8,2,0.8c0.6,0,1-0.3,1-0.7v0c0-0.5-0.7-0.6-1.4-0.9
			c-0.9-0.3-1.9-0.6-1.9-1.8v0c0-1.2,1-1.9,2.2-1.9c0.8,0,1.6,0.3,2.3,0.7l-0.6,1c-0.6-0.4-1.2-0.6-1.7-0.6c-0.5,0-0.9,0.3-0.9,0.6
			v0c0,0.4,0.7,0.6,1.4,0.9c0.9,0.3,1.9,0.7,1.9,1.8v0C48.3,27.3,47.3,27.9,46,27.9z"/>
		<path class="st0" d="M51.2,21.6v6.3c0,1.3-0.6,1.8-1.8,1.8c-0.3,0-0.5,0-0.7-0.1v-1.1c0.1,0,0.3,0,0.4,0c0.4,0,0.7-0.2,0.7-0.7
			v-6.2H51.2z M49.7,20.7v-1.3h1.5v1.3H49.7z"/>
		<path class="st0" d="M55.6,28c-1.9,0-3.3-1.4-3.3-3.2c0-1.8,1.4-3.2,3.3-3.2s3.3,1.4,3.3,3.2C59,26.5,57.5,28,55.6,28z M55.6,22.7
			c-1.1,0-1.9,0.9-1.9,2c0,1.1,0.8,2,1.9,2c1.1,0,1.9-0.9,1.9-2C57.5,23.6,56.8,22.7,55.6,22.7z"/>
		<path class="st0" d="M61.5,27.8H60v-6.2h1.4v1c0.4-0.6,1-1.1,1.9-1.1c1.4,0,2.2,0.9,2.2,2.4v3.9h-1.4v-3.5c0-1-0.5-1.5-1.3-1.5
			c-0.8,0-1.4,0.6-1.4,1.5V27.8z"/>
		<path class="st0" d="M71.1,27.8v-0.8c-0.4,0.5-1.1,0.9-2,0.9c-1.2,0-2.2-0.7-2.2-1.9v0c0-1.3,1.1-2,2.5-2c0.7,0,1.2,0.1,1.7,0.3
			v-0.2c0-0.9-0.5-1.3-1.5-1.3c-0.7,0-1.2,0.2-1.8,0.4l-0.4-1.1c0.7-0.3,1.3-0.5,2.4-0.5c1.8,0,2.7,1,2.7,2.6v3.7H71.1z M71.1,25.2
			c-0.4-0.1-0.9-0.2-1.4-0.2c-0.9,0-1.4,0.4-1.4,1v0c0,0.6,0.5,0.9,1.2,0.9c0.9,0,1.6-0.5,1.6-1.3V25.2z"/>
		<path class="st0" d="M74.3,27.8v-8.5h1.4v8.5H74.3z"/>
		<path class="st0" d="M81,27.9c-1,0-1.7-0.5-2.1-1.1v1h-1.4v-8.5h1.4v3.4c0.5-0.6,1.1-1.2,2.1-1.2c1.5,0,2.9,1.2,2.9,3.2
			C83.9,26.8,82.5,27.9,81,27.9z M80.7,22.7c-1,0-1.8,0.8-1.8,2c0,1.2,0.8,2,1.8,2c1,0,1.8-0.8,1.8-2C82.5,23.5,81.7,22.7,80.7,22.7
			z"/>
		<path class="st0" d="M85.1,20.7v-1.3h1.5v1.3H85.1z M85.1,27.8v-6.2h1.4v6.2H85.1z"/>
		<path class="st0" d="M91.9,27.9c-1,0-1.7-0.5-2.1-1.1v1h-1.4v-8.5h1.4v3.4c0.5-0.6,1.1-1.2,2.1-1.2c1.5,0,2.9,1.2,2.9,3.2
			C94.8,26.8,93.4,27.9,91.9,27.9z M91.6,22.7c-1,0-1.8,0.8-1.8,2c0,1.2,0.8,2,1.8,2c1,0,1.8-0.8,1.8-2
			C93.3,23.5,92.5,22.7,91.6,22.7z"/>
		<path class="st0" d="M96.1,27.8v-8.5h1.4v8.5H96.1z"/>
		<path class="st0" d="M99.4,20.7v-1.3h1.5v1.3H99.4z M99.5,27.8v-6.2h1.4v6.2H99.5z"/>
		<path class="st0" d="M105.5,28c-1.9,0-3.3-1.4-3.3-3.2c0-1.8,1.4-3.2,3.3-3.2c1.9,0,3.3,1.4,3.3,3.2C108.9,26.5,107.5,28,105.5,28
			z M105.5,22.7c-1.1,0-1.9,0.9-1.9,2c0,1.1,0.8,2,1.9,2c1.1,0,1.9-0.9,1.9-2C107.4,23.6,106.7,22.7,105.5,22.7z"/>
		<path class="st0" d="M111.8,25.9c0,0.6,0.3,0.8,0.8,0.8c0.3,0,0.6-0.1,0.9-0.2v1.2c-0.4,0.2-0.7,0.3-1.3,0.3c-1,0-1.8-0.5-1.8-1.8
			v-3.3h-0.8v-1.2h0.8v-1.7h1.4v1.7h1.7v1.2h-1.7V25.9z"/>
		<path class="st0" d="M117.5,26.8c0.7,0,1.2-0.3,1.7-0.7l0.8,0.7c-0.6,0.7-1.4,1.2-2.5,1.2c-1.8,0-3.2-1.3-3.2-3.2
			c0-1.8,1.3-3.2,3-3.2c2,0,3,1.5,3,3.3c0,0.1,0,0.2,0,0.4h-4.5C115.9,26.2,116.6,26.8,117.5,26.8z M118.9,24.3
			c-0.1-0.9-0.6-1.6-1.6-1.6c-0.9,0-1.5,0.7-1.6,1.6H118.9z"/>
		<path class="st0" d="M127.5,27.8h-1.6l-1.9-2.7l-0.9,0.9v1.8h-1.4v-8.5h1.4v5.1l2.6-2.7h1.7l-2.5,2.5L127.5,27.8z"/>
		<path class="st0" d="M130.8,26.8c0.7,0,1.2-0.3,1.7-0.7l0.8,0.7c-0.6,0.7-1.4,1.2-2.5,1.2c-1.8,0-3.2-1.3-3.2-3.2
			c0-1.8,1.3-3.2,3-3.2c2,0,3,1.5,3,3.3c0,0.1,0,0.2,0,0.4H129C129.2,26.2,129.9,26.8,130.8,26.8z M132.2,24.3
			c-0.1-0.9-0.6-1.6-1.6-1.6c-0.9,0-1.5,0.7-1.6,1.6H132.2z"/>
		<path class="st0" d="M136.6,25.9c0,0.6,0.3,0.8,0.8,0.8c0.3,0,0.6-0.1,0.9-0.2v1.2c-0.4,0.2-0.7,0.3-1.3,0.3c-1,0-1.8-0.5-1.8-1.8
			v-3.3h-0.8v-1.2h0.8v-1.7h1.4v1.7h1.7v1.2h-1.7V25.9z"/>
	</g>
</g>
</svg>
