<?xml version="1.0" encoding="utf-8"?>
<!-- Generator: Adobe Illustrator 22.1.0, SVG Export Plug-In . SVG Version: 6.00 Build 0)  -->
<svg version="1.1" id="Layer_1" xmlns="http://www.w3.org/2000/svg" xmlns:xlink="http://www.w3.org/1999/xlink" x="0px" y="0px"
	 viewBox="0 0 775.4 196.8" style="enable-background:new 0 0 775.4 196.8;" xml:space="preserve">
<style type="text/css">
	.st0{fill:#FFFFFF;}
</style>
<g>
	<path class="st0" d="M103.4,0.2c2.5,0.1,5,0.5,7.4,1c3.1,0.6,6.1,1.5,9.1,2.8c2.9,1.2,5.6,2.6,8.3,4.2c2.8,1.6,5.5,3.5,8.1,5.5
		c2.8,2.2,5.5,4.6,7.9,7.3c3.5,4,6.6,8.3,8.9,13.1c2,4.2,3.6,8.6,4.5,13.2c0.5,2.5,0.9,5,1,7.5c0,1.8,0.2,3.5,0.2,5.3
		c-0.2,5-1,9.8-3,14.4c-1.6,3.5-3.8,6.4-6.7,8.9c-2.4,2.1-5.2,3.6-8.2,4.7c-2.7,1-5.6,1.6-8.4,2c-3.2,0.5-6.4,0.8-9.6,1.7
		c-2.1,0.5-4.1,1.2-5.9,2.5c-1.8,1.3-2.8,3-3.1,5.1c-0.8,5.7,2.5,11.3,6.9,13.8c2.5,1.4,5.1,2.1,7.9,2.1c3.2,0.1,6.2-0.7,9.1-2
		c3.1-1.4,5.8-3.2,8.4-5.4c3.1-2.7,5.6-5.9,7.8-9.4c1-1.7,1.9-3.5,2.9-5.2c0.3-0.5,0.6-1,0.9-1.5c0.3-0.4,0.6-0.6,1.2-0.4
		c0.5,0.8,0.6,1.8,0.5,2.7c-0.3,2.7-0.9,5.4-2,7.9c-1.2,2.8-2.6,5.3-4.5,7.7c-1.1,1.5-2.3,3-3.6,4.3c-3.5,3.4-7.4,6.1-12.1,7.6
		c-2.4,0.7-4.8,1.2-7.4,1.3c-3.6,0.2-7.1-0.3-10.5-1.5c-5.8-2.1-10.1-5.8-12.6-11.4c-0.8-1.9-1.3-3.9-1.5-6c-0.3-3.2,0.3-6.2,1.5-9
		c1.1-2.5,2.9-4.6,5-6.3c3.2-2.5,7-3.8,10.9-4.8c2.7-0.7,5.5-1.1,8.3-1.5c2.3-0.3,4.6-0.5,6.8-1.1c2.2-0.7,4.2-1.7,5.9-3.3
		c2.5-2.2,4-4.9,5.3-7.9c1.2-2.9,2-6,2.3-9.2c0.2-1.8,0.5-3.7,0.2-5.6c-0.2-1-0.2-2.1-0.3-3.2c-0.3-3.3-1.2-6.4-2.3-9.4
		c-1.4-3.9-3.3-7.6-5.7-11.1c-2.6-3.9-5.7-7.5-9.3-10.6c-5.8-5.1-12.4-8.8-19.8-11.1c-2.8-0.9-5.6-1.6-8.5-2
		c-2.2-0.3-4.5-0.7-6.7-0.7c-2.4-0.1-4.8-0.2-7.2-0.1c-2.5,0.1-4.9,0.4-7.3,0.6c-2.5,0.2-5,0.7-7.5,1.2c-3.8,0.8-7.5,1.8-11.1,3
		c-6,2-11.8,4.5-17.3,7.5c-5.8,3.1-11.2,6.6-16.4,10.6c-3.3,2.5-6.4,5.3-9.4,8.1c-2.3,2.1-4.7,4-7.1,5.9c-0.7,0.6-1.6,0.9-2.4,1.3
		c-0.2,0.1-0.5,0.1-0.8,0.1c-0.3-0.5-0.2-1,0-1.5c0.5-1.5,1.4-2.7,2.3-3.9c3-4.1,6.6-7.8,10.4-11.3c4.8-4.4,9.8-8.3,15.3-11.8
		c4.1-2.6,8.3-4.8,12.7-6.7c4.9-2.2,9.9-4.1,15-5.6c4.1-1.3,8.2-2.3,12.4-3.1c2.8-0.5,5.5-1,8.3-1.2c0.8-0.1,1.6-0.2,2.4-0.2
		c0.9,0,1.9,0,2.8,0c0.1,0,0.2-0.1,0.4-0.2c2.1,0,4.2,0,6.2,0c0.1,0.1,0.2,0.2,0.4,0.2C101.6,0.2,102.5,0.2,103.4,0.2z"/>
	<path class="st0" d="M775.4,181c-0.7,0.1-1.4,0.4-2.1,0.4c-2.3,0-4.5-0.1-6.8-0.2c-1.4-0.1-2.8-0.1-4.2-0.2c-0.3,0-0.7-0.2-1.2-0.3
		c0.1-0.3,0.1-0.6,0.3-0.7c0.8-0.5,0.8-1.2,0.7-1.9c-0.5-3.7-1-7.4-1.6-11.1c-0.4-3.2-0.9-6.5-1.3-9.7c-0.2-1.3-0.4-2.5-0.6-3.9
		c-0.2,0.3-0.4,0.4-0.4,0.6c-2.1,4.3-4.1,8.6-6.2,12.9c-2.1,4.4-4.3,8.9-6.5,13.3c-0.2,0.5-0.4,1-1.1,1.2c-0.7-0.2-1-0.9-1.3-1.5
		c-1.1-2.1-2.3-4.3-3.4-6.5c-3-6.2-5.9-12.3-8.9-18.5c-0.1-0.3-0.3-0.6-0.6-1.2c-0.2,1.6-0.4,3-0.6,4.3c-0.4,2.9-0.8,5.8-1.2,8.8
		c-0.4,2.7-0.7,5.5-1,8.2c-0.1,1-0.2,2.1-0.2,3.1c0,1.1,0.4,1.7,1.5,1.9c0.7,0.2,1.5,0.2,2.3,0.3c0.4,0,0.8,0,1,0.5
		c-0.2,0.6-0.8,0.6-1.3,0.6c-0.6,0.1-1.2-0.1-1.8-0.1c-3,0-6,0.1-9,0.1c-0.6,0-1.3,0.1-1.6-0.7c0.2-0.1,0.3-0.3,0.5-0.4
		c0.2-0.1,0.4-0.1,0.6,0c2.6,0,3-1,3.5-3.1c0.4-1.6,0.5-3.2,0.8-4.8c0.5-2.9,0.9-5.8,1.3-8.7c0.4-2.9,0.9-5.8,1.3-8.7
		c0.3-2.3,0.7-4.6,1.1-7c0.4-2.4,0.7-4.8,1.1-7.2c0.1-0.7,0.1-1.5,0.7-2.1c0.7-0.3,1.2,0,1.5,0.6c0.6,1.1,1.1,2.2,1.7,3.3
		c4.2,8.6,8.3,17.2,12.5,25.8c0.4,0.9,0.8,1.7,1.3,2.7c0.2-0.4,0.4-0.6,0.5-0.9c3.9-8.2,7.8-16.5,11.7-24.7c0.9-1.9,1.8-3.8,2.7-5.7
		c0.1-0.3,0.3-0.6,0.5-0.8c0.3-0.4,0.6-0.6,1.2-0.4c0.4,0.3,0.5,0.8,0.6,1.3c0.6,4.5,1.3,8.9,2,13.4c0.6,4,1.2,8,1.8,12
		c0.4,3,0.8,6,1.3,9c0.2,1.1,0.4,2.3,0.7,3.4c0.3,1.1,1.1,1.9,2.3,2.2c1.3,0.3,2.6,0.5,3.9,0.4C775.4,180.5,775.4,180.7,775.4,181z"
		/>
	<path class="st0" d="M0.2,109.7c-0.1,0-0.2,0-0.2,0c0-3.4,0-6.7,0-10.1c0.1,0,0.2,0,0.2,0C0.2,103,0.2,106.3,0.2,109.7z"/>
	<path class="st0" d="M94.1,0c-0.1,0.1-0.2,0.2-0.4,0.2c-0.9,0-1.9,0-2.8,0c0-0.1,0-0.1,0-0.2C92,0,93,0,94.1,0z"/>
	<path class="st0" d="M103.4,0.2c-0.9,0-1.8,0-2.8,0c-0.1,0-0.2-0.1-0.4-0.2c1,0,2.1,0,3.1,0C103.4,0.1,103.4,0.2,103.4,0.2z"/>
	<path class="st0" d="M0.2,109.7c0-3.4,0-6.7,0-10.1c0-2.2,0.4-4.3,0.7-6.5c0.4-2.9,1-5.7,1.7-8.5c0.7-3,1.7-5.9,2.8-8.7
		c1.3-3.5,2.9-7,4.7-10.3c1.9-3.6,4-7,6.5-10.2c1.8-2.4,3.6-4.7,5.7-6.9c1.3-1.4,2.6-2.8,4-4.1c2.8-2.6,5.7-5.1,8.8-7.3
		c4-2.8,8.1-5.4,12.4-7.7c5.3-2.8,10.8-5.1,16.5-6.9c3.4-1.1,6.9-1.9,10.4-2.6c2.1-0.4,4.3-0.7,6.4-1c2.2-0.3,4.5-0.5,6.8-0.5
		c1.3,0,2.7-0.2,4-0.2c1.7,0,3.3,0.1,5,0.2c2,0.2,4.1,0.4,6.1,0.7c4.5,0.7,9,1.8,13.3,3.4c3.2,1.2,6.3,2.7,9.2,4.6
		c1.4,0.9,2.6,2,3.8,3c0.8,0.7,1.6,1.4,2.4,2.2c4,4.2,6.9,9,8.5,14.6c0.4,1.5,0.7,3.1,0.9,4.6c0.1,1.2,0.2,2.4,0.2,3.6
		c-0.2,3.3-1,6.5-2.8,9.4c-1.5,2.5-3.8,4.2-6.6,5.3c-2.1,0.8-4.3,1.4-6.6,1.7c-2.1,0.3-4.1,0.6-6.2,0.7c-1.9,0.1-3.8,0.2-5.7,0.5
		c-2.6,0.4-5.2,1-7.7,2.1c-3.3,1.5-6.1,3.6-8.4,6.2c-1.9,2.2-3.5,4.6-4.6,7.3c-0.5,1.3-1,2.5-1.4,3.9c-0.4,1.3-0.6,2.7-0.7,4.1
		c0,0.9,0,1.8,0,2.6c-0.1,1.9,0.2,3.8,0.5,5.7c0.4,2.2,1,4.4,1.7,6.5c1.1,3,2.4,5.8,4.1,8.5c1.9,3.1,4.2,6,6.9,8.5
		c2.8,2.5,5.9,4.6,9.5,5.7c1.8,0.5,3.6,0.9,5.4,1.2c2.4,0.4,4.7,0.4,7.1,0.4c4.1,0,8-0.7,11.8-2c4.4-1.5,8.3-3.7,12-6.5
		c0.6-0.5,1.1-1,1.7-1.5c0.7-0.6,1.3-0.8,2.2-0.8c0.6,0.3,0.5,0.9,0.3,1.4c-0.4,1.2-1,2.3-1.8,3.3c-3.3,4.2-7.4,7.3-12.2,9.5
		c-2.6,1.2-5.4,1.9-8.2,2.5c-3.3,0.6-6.7,0.8-10.1,0.7c-1.3,0-2.6-0.3-3.9-0.4c-2.1-0.2-4.1-0.7-6.1-1.2c-2.9-0.8-5.6-1.9-8.3-3.4
		c-2.6-1.5-4.9-3.3-6.9-5.4c-2.7-2.7-5-5.8-6.9-9.1c-2.3-4-4.2-8.1-5.4-12.5c-0.5-1.7-0.9-3.5-1.2-5.3c-0.4-2.7-0.8-5.4-0.6-8.1
		c0.1-2.2,0.3-4.3,0.8-6.4c0.7-3.3,1.9-6.4,3.4-9.4c1-1.9,2.2-3.6,3.5-5.2c1.7-2.1,3.7-3.8,5.9-5.3c2.9-1.9,6-3.4,9.4-4.2
		c1-0.3,2-0.5,3-0.7c1.4-0.3,2.8-0.4,4.2-0.5c2.7-0.1,5.4-0.1,8.1-0.3c2-0.1,4-0.3,5.9-1c3.2-1.1,5.1-3.3,5.8-6.6
		c0.4-1.8,0.3-3.7,0.2-5.5c-0.1-1.9-0.7-3.7-1.4-5.4c-1.1-2.8-2.8-5.3-4.7-7.6c-1.5-1.8-3.3-3.3-5.3-4.5c-3.1-1.9-6.3-3.3-9.8-4.4
		c-2.5-0.8-5-1.5-7.6-1.9c-1.6-0.2-3.1-0.4-4.7-0.7c-2.3-0.4-4.6-0.5-6.9-0.5c-0.7,0-1.5-0.2-2.2-0.2c-2,0-4,0-6,0.3
		c-2.8,0.3-5.5,0.6-8.3,1.1c-5,0.9-9.9,2.3-14.6,4c-3.9,1.4-7.7,3.2-11.4,5.2c-3.1,1.7-6.1,3.6-9,5.7c-2.6,1.9-5.1,3.9-7.4,6.2
		c-0.8,0.8-1.7,1.5-2.4,2.3c-1.7,1.9-3.4,3.9-5.1,5.8c-2.5,2.8-4.7,6-6.7,9.2c-2.4,3.8-4.6,7.7-6.4,11.9c-1.7,3.7-3.1,7.4-4.2,11.2
		c-0.9,2.8-1.6,5.7-2.1,8.6c-0.3,1.7-0.6,3.3-0.9,5c-0.2,1-0.2,2-0.3,3c-0.5,4.2-0.2,8.4-0.2,12.7c0,0.8-0.2,1.6-1.1,1.9
		c-0.6-0.2-0.9-0.7-1.2-1.1c-0.8-1.2-1-2.6-1.3-4C0.4,113,0.1,111.4,0.2,109.7z"/>
	<path class="st0" d="M36.1,176.5c-1.1,0.5-1.8-0.1-2.5-0.6c-0.9-0.7-1.7-1.7-2.2-2.8c-2-3.7-3.9-7.6-5.5-11.5
		c-2.2-5.2-4-10.5-5.3-16c-0.6-2.4-1.1-4.8-1.6-7.2c-0.3-1.7-0.5-3.5-0.8-5.3c-0.5-3.4-0.8-6.7-0.8-10.1c0-1.2-0.2-2.5-0.1-3.7
		c0.1-2.3,0.2-4.7,0.4-7c0.1-1.8,0.3-3.6,0.5-5.5c0.2-1.6,0.4-3.2,0.8-4.8c0.6-3,1.3-5.9,2.1-8.9c0.9-3.4,2.1-6.7,3.5-10
		c1.3-3.1,2.8-6.1,4.5-9c1.6-2.7,3.4-5.4,5.4-7.9c2.2-2.9,4.7-5.5,7.3-8c3.6-3.5,7.6-6.5,11.8-9.1c4.9-3.1,10.2-5.5,15.7-7.4
		c3-1,6-1.8,9.1-2.3c1.1-0.2,2.2-0.2,3.3-0.3c2.8-0.4,5.7-0.2,8.5-0.2c2.5,0,4.9,0.3,7.3,0.6c2.7,0.4,5.4,0.9,8,1.7
		c1.8,0.6,3.5,1.2,5,2.4c0.9,0.7,1.7,1.4,2.2,2.4c0.8,1.7,0.4,3.6-1.2,4.8c-0.5,0.4-1.1,0.8-1.8,1c-2.1,0.7-4.2,1.4-6.4,1.9
		c-5.4,1.3-10.4,3.7-14.8,7.2c-4.7,3.8-8.7,8.3-11.7,13.6c-2.5,4.2-4.2,8.8-5.3,13.6c-0.3,1.4-0.5,2.8-0.6,4.2
		c-0.1,1.8-0.2,3.6-0.2,5.4c0,3.7,0.6,7.3,1.5,10.8c1.4,5.6,3.5,10.8,6.2,15.9c2.4,4.5,5.1,8.7,8.2,12.7c2.4,3.1,5,6,7.9,8.6
		c4.1,3.6,8.6,6.6,13.7,8.8c2.3,1,4.6,1.8,7.1,2.4c2,0.5,4.1,0.8,6.2,1.1c3.7,0.6,7.4,0.4,11.1,0.4c0.9,0,1.7-0.2,2.6-0.1
		c1.3,0,2.5,0.1,3.8,0.2c0.6,0.1,1.2,0.3,1.7,0.6c0.6,0.3,0.7,1,0.2,1.5c-0.4,0.5-0.9,0.9-1.5,1.1c-1.9,0.9-3.9,1.3-5.9,1.8
		c-4.7,1-9.4,1.2-14.1,0.9c-3-0.2-6-0.7-8.9-1.5c-7.4-1.9-13.9-5.4-19.8-10.2c-3.9-3.2-7.4-6.8-10.5-10.7c-4.4-5.6-8-11.7-11.1-18.2
		c-2.2-4.7-3.9-9.7-5.1-14.8c-0.5-2.2-0.8-4.5-1-6.7c-0.2-2-0.4-4.1-0.4-6.2c0-2.5,0.3-5.1,0.6-7.6c0.5-3.5,1.4-6.9,2.6-10.2
		c1.8-5,4.4-9.7,7.7-13.9c1.7-2.3,3.6-4.5,5.7-6.4c2.4-2.2,4.9-4.2,7.7-5.8c0.8-0.5,1.5-1.1,2.2-1.8c0.4-0.3,0.6-0.8,0.6-1.4
		c0-0.6-0.2-1-0.7-1.3c-0.5-0.2-1-0.6-1.5-0.6c-1.5,0-2.9-0.5-4.4-0.1c-1.1,0.2-2.2,0.2-3.3,0.3c-2.3,0.2-4.4,0.8-6.6,1.3
		c-3.9,1.1-7.6,2.6-11.1,4.4c-3.9,2-7.6,4.4-11.1,7.2c-2.9,2.3-5.4,4.8-7.9,7.5c-3.1,3.4-5.7,7-8,10.9c-2.9,4.9-5.3,10.1-7,15.6
		c-1.1,3.5-2,7-2.6,10.6c-0.4,2.3-0.7,4.6-1,6.9c-0.7,4.8-0.5,9.6-0.4,14.5c0,2.8,0.3,5.6,0.7,8.3c0.3,2,0.5,4.1,0.8,6.1
		c0.4,2.2,0.9,4.4,1.3,6.6c1.1,5.3,2.6,10.4,4.4,15.5c1.2,3.5,2.6,7,4.2,10.3C36.1,174.3,36.5,175.3,36.1,176.5z"/>
	<path class="st0" d="M120.3,182.9c-0.3,1-1,1.2-1.7,1.4c-0.8,0.2-1.6,0.2-2.5,0.3c-0.8,0-1.6,0.1-2.4,0c-1.6-0.2-3.3-0.4-4.9-0.6
		c-2-0.3-3.9-0.7-5.8-1.3c-2.5-0.7-5.1-1.5-7.6-2.4c-2.9-1.1-5.8-2.3-8.6-3.8c-3.3-1.8-6.5-3.8-9.5-6.2c-2.1-1.7-4.2-3.5-6.1-5.5
		c-2-2.1-3.8-4.3-5.6-6.6c-1.8-2.5-3.5-5-5.1-7.7c-0.8-1.4-1.6-2.8-2.4-4.2c-0.7-1.3-1.5-2.5-2.1-3.9c-1.8-3.9-3.6-7.8-5.1-11.9
		c-1-2.8-2.1-5.5-3.1-8.2c-0.6-1.4-1.3-2.8-1.9-4.1c-0.2-0.5-0.6-0.9-1-1.3c-0.7,0.3-0.9,0.7-1.1,1.3c-0.2,0.9-0.3,1.8-0.5,2.6
		c-0.4,2.2-0.3,4.5-0.2,6.7c0.1,1.4,0.1,2.9,0.4,4.3c0.2,0.8,0.2,1.7,0.3,2.6c0.2,1.8,0.5,3.6,0.9,5.4c0.4,1.9,0.8,3.8,1.3,5.6
		c0.8,2.7,1.6,5.4,2.6,8c0.6,1.8,1.4,3.7,2.2,5.4c1.2,2.6,2.5,5.1,3.8,7.6c1.1,2.2,2.4,4.2,3.8,6.2c1.2,1.6,2.4,3.2,3.6,4.8
		c1.2,1.5,2.5,2.9,3.8,4.3c0.6,0.7,1.2,1.5,1.9,2.1c1.8,1.6,3.6,3.1,5.4,4.7c1.9,1.7,4,3.1,6,4.6c0.6,0.4,1.1,1,1.5,1.5
		c0.3,0.4,0.6,0.9,0.3,1.5c-0.3,0.5-0.7,0.6-1.3,0.7c-1.8,0.1-3.5-0.6-5.1-1.3c-3.3-1.5-6.4-3.5-9.3-5.8c-1.4-1.1-2.7-2.3-4-3.5
		c-0.9-0.8-1.8-1.5-2.6-2.4c-2.4-2.6-4.8-5.2-6.8-8.2c-1.7-2.5-3.4-4.9-4.9-7.5c-1.8-3.1-3.4-6.4-4.7-9.7c-1.1-2.7-2.1-5.4-2.9-8.2
		c-0.8-2.6-1.4-5.3-2-7.9c-0.4-1.9-0.6-3.9-1-5.8c-0.4-1.6-0.3-3.3-0.7-4.9c0,0,0-0.1,0-0.1c-0.3-3.7-0.3-7.4-0.2-11.1
		c0-1.9,0.2-3.9,0.5-5.8c0.5-3.8,1.2-7.5,2.2-11.1c1-3.6,2.3-7,4.6-10c0.8-1.1,1.8-2,3.1-2.6c1.1-0.5,2.2-0.5,3.3-0.1
		c1,0.3,1.4,1.2,1.7,2c0.5,1.3,0.7,2.6,1,4c0.4,1.8,0.7,3.6,1,5.4c0.2,1.2,0.3,2.4,0.5,3.6c0.2,1.6,0.4,3.2,0.7,4.8
		c0.5,2.2,1,4.4,1.6,6.6c0.6,2.2,1.3,4.5,2.1,6.7c0.9,2.5,1.9,5,3,7.5c1.1,2.6,2.3,5.1,3.6,7.6c1.4,2.6,2.9,5.1,4.4,7.7
		c1.8,3.2,4,6.2,6.3,9.1c2.1,2.7,4.5,5.3,7.1,7.6c2.6,2.3,5.5,4.4,8.5,6.1c1.8,1,3.6,2,5.4,2.9c3.2,1.5,6.4,2.9,9.7,4.1
		c3.3,1.2,6.6,2.2,9.8,3.4c1.6,0.6,3.4,1.2,4.5,2.7C120.1,182.6,120.2,182.8,120.3,182.9z"/>
	<path class="st0" d="M523.5,84c0.4,0.3,0.9,0.6,1.3,1c3.8,3.9,7.5,7.9,11.3,11.8c3.7,3.8,7.4,7.6,11.1,11.4c2.3,2.3,4.5,4.7,6.7,7
		c0.3,0.3,0.6,0.5,1,0.9c0-1.6,0-2.9,0-4.3c0-1.4-0.1-2.7-0.2-4.1c0-2.1,0-4.2-0.1-6.4c-0.1-3.4-0.1-6.9-0.2-10.3
		c0-0.8-0.1-1.5-0.2-2.3c-0.3-1.7-1.2-2.6-2.9-2.7c-0.6,0-1.2,0-1.8,0c-0.5,0-0.8-0.2-0.7-0.9c0.5-0.1,1-0.2,1.5-0.2
		c1.2,0,2.4,0.1,3.6,0.1c2.8,0,5.5-0.1,8.3-0.1c0.5,0,1-0.1,1.4,0.3c0.1,0.5-0.1,0.7-0.5,0.7c-0.3,0.1-0.7,0-1.1,0
		c-1.9,0.1-2.8,0.9-2.9,2.8c-0.1,2-0.2,4.1-0.2,6.1c-0.1,2.9,0,5.8-0.1,8.6c-0.1,4.6-0.2,9.2-0.2,13.8c-0.1,2.9-0.1,5.7-0.2,8.6
		c0,0.5,0,1-0.6,1.4c-0.3-0.1-0.7-0.1-1-0.3c-0.4-0.3-0.8-0.6-1.2-1c-6.8-6.8-13.5-13.5-20.2-20.3c-2.8-2.8-5.4-5.8-8.1-8.7
		c-0.3-0.3-0.5-0.6-0.9-1.1c0,1.3,0,2.3,0,3.3c0,2.1,0.1,4.2,0.1,6.2c0.1,3.2,0.2,6.5,0.2,9.7c0,1.5,0.1,2.9,0.2,4.4
		c0.1,1.3,0.2,2.5,0.5,3.8c0.3,1.4,1,1.9,2.4,2.1c0.7,0.1,1.3,0.1,2,0.2c0.3,0,0.7,0,0.8,0.5c-0.1,0.6-0.6,0.5-1,0.5
		c-1.8,0-3.6,0-5.4,0c-1.2,0-2.3,0-3.5,0c-5.8,0-11.7,0-17.5,0c-0.7,0-1.3-0.1-2-0.2c-0.2-1,0.8-0.7,1.2-1.3c0.2-0.2,0-0.7-0.2-1.2
		c-1.4-3.8-2.9-7.6-4.3-11.5c-0.3-0.1-0.6-0.2-0.9-0.2c-3.9,0-7.8,0-11.6,0c-0.1,0-0.2,0-0.4,0.1c-0.2,0.5-0.5,1.1-0.7,1.7
		c-0.9,2.3-1.7,4.5-2.6,6.8c-0.3,0.7-0.5,1.4-0.6,2.2c-0.4,1.6,0.2,2.4,1.9,2.6c0.6,0.1,1.2,0,1.8,0.1c0,0.2,0.1,0.3,0.1,0.4
		c0,0.1-0.1,0.3-0.2,0.5c-1.2,0-2.3,0-3.5,0c-2.4,0-4.9,0-7.3,0c-4.1,0-8.2-0.1-12.4-0.1c-2,0-4.1,0.1-6.1,0.1
		c-0.4,0-0.9,0.1-1.1-0.5c0-0.4,0.3-0.5,0.6-0.5c0.6,0,1.3-0.1,1.9-0.2c1-0.1,1.6-0.6,1.7-1.6c0.2-1.9,0.5-3.7,0.5-5.6
		c0-9.1,0-18.2,0-27.2c0-0.8-0.1-1.6-0.2-2.4c-0.1-1.6-0.9-2.4-2.7-2.6c-0.4,0-0.9,0-1.3-0.1c-0.4,0-0.7-0.3-0.5-0.9
		c0.4-0.1,0.9-0.2,1.3-0.2c1.8,0,3.6,0.1,5.4,0.1c2.7,0,5.4-0.1,8.1-0.1c0.5,0,0.9,0.1,1.3,0.1c0.2,0.6,0,0.9-0.5,0.9
		c-0.6,0.1-1.2,0.1-1.8,0.2c-1.4,0.3-1.8,0.7-2,2.1c-0.2,1.5-0.2,2.9-0.2,4.4c0,7.9,0,15.8,0,23.6c0,2,0.1,4.1,0.2,6.1
		c0,0.2,0,0.5,0.1,0.7c0.2,1.4,0.9,2,2.3,2.2c1.4,0.1,2.8,0.3,4.3,0.1c1.4-0.2,2.5-0.8,3.3-2c0.5-0.8,1-1.6,1.3-2.5
		c3-7.5,6-15,9-22.5c1.8-4.4,3.5-8.8,5.3-13.2c0.3-0.6,0.5-1.4,1.2-1.7c0.7,0,1,0.6,1.2,1.1c0.5,1.1,1,2.3,1.4,3.4
		c3.9,9.7,7.7,19.3,11.6,29c0.7,1.8,1.6,3.5,2.5,5.3c0.3,0.6,0.8,1.1,1.2,1.6c0.7,0.9,1.7,1.2,2.8,1.4c1.5,0.2,2.9,0.2,4.4,0
		c1.1-0.1,1.8-0.7,2-1.7c0.2-1,0.4-2,0.4-3.1c0.1-3.5,0.1-7,0.1-10.6c0.1-5.9,0.2-11.7,0.2-17.6c0-2.3,0.1-4.5,0.2-6.8
		C522.7,85.1,522.7,84.5,523.5,84z M498.5,109.5c-0.3-1.5-4.7-13.6-5.3-14.3c-1.7,4.6-3.4,9.2-5.1,13.8c0,0.1,0,0.3,0,0.5
		C491.6,109.5,495,109.5,498.5,109.5z"/>
	<path class="st0" d="M226.1,153.2c-1.1,2.2-2.1,4.5-3.2,6.7c-3.1,6.5-6.2,12.9-9.3,19.4c-0.3,0.7-0.7,1.3-1,1.8
		c-0.7,0.3-1-0.1-1.2-0.5c-0.4-0.6-0.8-1.3-1.1-2c-4.2-7.8-7.9-15.7-11.6-23.7c-0.2-0.4-0.4-0.7-0.6-1.3c-0.1,0.6-0.2,1-0.3,1.5
		c-0.4,2.8-0.8,5.6-1.1,8.4c-0.3,2.1-0.5,4.1-0.8,6.2c-0.3,2.3-0.6,4.6-0.9,6.9c-0.1,0.5-0.1,1-0.1,1.5c0,0.8,0.4,1.4,1.1,1.6
		c0.8,0.2,1.7,0.3,2.6,0.5c0.4,0.1,0.8-0.1,1.1,0.4c-0.1,0.1-0.1,0.3-0.2,0.6c-1.2,0-2.4,0-3.6,0c-2.5,0-5,0-7.4,0
		c-0.6,0-1.3,0-1.9,0c-0.2,0-0.4-0.3-0.5-0.4c0.1-0.5,0.3-0.6,0.7-0.6c0.4,0,0.8,0,1.2,0c1.2-0.1,2-0.8,2.3-1.9
		c0.3-1.1,0.5-2.3,0.7-3.5c0.4-2.4,0.8-4.9,1.1-7.3c0.4-2.4,0.7-4.7,1.1-7.1c0.4-3,0.9-5.9,1.4-8.9c0.4-2.9,0.9-5.8,1.3-8.7
		c0.2-1,0.3-2.1,0.5-3.1c0.1-0.4,0.3-0.8,0.4-1.1c0.7-0.3,1.1-0.1,1.3,0.3c0.3,0.4,0.6,0.9,0.8,1.3c2.9,6,5.8,12,8.7,17.9
		c1.9,3.9,3.8,7.9,5.7,11.8c0.1,0.3,0.3,0.5,0.5,0.9c0.2-0.2,0.3-0.4,0.4-0.6c3-6.3,5.9-12.5,8.9-18.8c1.9-4,3.8-7.9,5.7-11.8
		c0.1-0.3,0.3-0.6,0.5-0.8c0.3-0.5,0.7-0.6,1.3-0.4c0.1,0.4,0.3,0.8,0.4,1.3c0.3,2,0.6,3.9,0.9,5.9c0.4,2.5,0.8,5,1.1,7.6
		c0.3,2.4,0.7,4.7,1,7.1c0.4,2.5,0.8,5,1.1,7.6c0.3,2.4,0.7,4.7,1,7.1c0.2,1.1,0.4,2.3,1,3.3c0.2,0.3,0.4,0.6,0.6,0.8
		c1.7,1.4,4.6,1.2,6.1-0.5c0.8-0.9,1.3-1.9,1.7-3c3.5-8.8,7-17.5,10.5-26.3c1.2-2.9,2.3-5.8,3.5-8.7c0.3-0.8,0.7-1.5,1-2.1
		c0.8-0.3,1.2,0,1.5,0.5c0.3,0.7,0.7,1.4,1,2.1c3.7,9.3,7.4,18.5,11.1,27.8c0.8,2,1.7,4,2.5,6c0.4,0.8,0.8,1.6,1.3,2.4
		c1.1,1.9,2.8,2.9,5,2.8c0.4,0,0.9-0.2,1.2,0.4c0,0.4-0.3,0.5-0.7,0.5c-1.5,0-3.1,0.1-4.6,0.1c-0.4,0-0.7,0-1.1,0
		c-2.2,0-4.4,0-6.6,0c-0.5,0-1.1,0.1-1.6-0.3c-0.2-0.9,0.9-0.4,1.2-1c0-0.4,0-0.8-0.1-1.1c-1.4-3.9-2.9-7.7-4.3-11.6
		c-0.9-0.3-11.1-0.4-13.1-0.1c-0.2,0.5-0.4,1-0.6,1.6c-0.9,2.3-1.7,4.6-2.6,6.9c-0.4,1.2-0.8,2.4-0.6,3.7c0.4,0.8,1.1,0.9,1.8,1
		c0.4,0,0.8,0,1.2,0c0.3,0,0.5,0.2,0.7,0.3c-0.1,0.9-0.8,0.8-1.3,0.8c-3.1,0-6.1-0.2-9.2-0.1c-3.4,0.1-6.8-0.1-10.2-0.1
		c-0.9,0-1.7-0.1-2.6-0.2c-0.4,0-0.9-0.1-1.1-0.5c-0.1-0.7,0.7-0.6,0.9-1.3c0.2-1-0.1-2.3-0.3-3.6c-0.3-2.7-0.7-5.4-1.1-8.2
		c-0.4-2.7-0.8-5.4-1.1-8c-0.3-2.1-0.5-4.1-0.8-6.2C226.2,153.2,226.2,153.2,226.1,153.2z M265.1,164.1c-1.8-4.8-3.4-9.5-5.3-14.5
		c-1.9,5-3.6,9.7-5.4,14.5C258,164.1,261.4,164.1,265.1,164.1z"/>
	<path class="st0" d="M337.8,115.9c2.7-7.3,5.4-14.5,8.1-21.6c1-2.6,1.9-5.1,2.9-7.7c0.2-0.6,0.4-1.2,1.2-1.3
		c0.7,0.3,0.8,0.9,1.1,1.5c1.1,2.7,2.3,5.4,3.4,8.2c2.8,6.7,5.5,13.4,8.3,20.1c0.1,0.1,0.2,0.3,0.3,0.5c0.6-2.1,1.2-4.1,1.8-6.1
		c1.8-6.1,3.7-12.2,5.5-18.3c0.3-1,0.5-2,0.6-3c0.1-1.2-0.4-1.7-1.6-1.9c-0.4-0.1-0.8,0-1.2-0.1c-0.4,0-0.7-0.2-0.6-0.7
		c0.4-0.4,0.8-0.4,1.3-0.3c1.1,0,2.2,0.1,3.3,0.1c3.7,0,7.3-0.1,11-0.1c5.7,0,11.3,0.1,17,0.2c1.6,0,3.1-0.1,4.6-0.5
		c0.2-0.1,0.5-0.1,0.7-0.1c0.4,0.9-0.1,1.8-0.1,2.7c0,0.9-0.1,1.8-0.2,2.7c-0.1,0.9-0.1,1.8-0.2,2.7c-0.3,0.1-0.6,0.1-0.8,0.1
		c-0.1-0.1-0.2-0.2-0.2-0.3c-0.1-0.5-0.1-0.9-0.2-1.4c-0.2-1.5-0.8-2.3-2.3-2.6c-1.3-0.2-2.7-0.4-4-0.4c-1.8-0.1-3.7,0-5.5,0
		c-0.2,0.9-0.3,11.2-0.1,14.8c0.3,0,0.6,0.1,0.9,0.1c2.6,0,5.3,0,7.9-0.1c1.2,0,2.5-0.1,3.3-1.3c0.2-0.3,0.5-0.3,0.9-0.1
		c-0.1,1.5-0.3,3-0.4,4.5c-0.1,1.5-0.2,3-0.4,4.5c-0.3,0-0.5,0-0.7,0c-0.1-0.1-0.2-0.2-0.2-0.3c-0.1-0.4-0.1-0.8-0.1-1.2
		c-0.1-1.8-0.9-2.9-2.6-3c-2.8-0.2-5.6-0.4-8.5-0.2c0,0.3-0.1,0.6-0.1,0.8c0,4.2,0,8.4,0,12.6c0,0.6,0.1,1.1,0.2,1.7
		c0.3,1.9,1.3,2.4,2.7,2.6c0.9,0.2,1.9,0.3,2.9,0.2c1.5,0,3-0.1,4.5-0.2c2-0.2,3.2-1.4,3.7-3.4c0.1-0.6,0.3-1.3,0.5-1.8
		c0.6-0.2,0.8,0.1,0.9,0.5c0,0.4,0,0.7,0,1.1c-0.2,1.7-0.4,3.3-0.6,5c-0.3,1.7-0.7,2-2.4,2c-2.3,0-4.6,0.1-7-0.1
		c-5.3-0.3-10.5-0.2-15.8-0.1c-0.7,0-0.7,0-1.2-0.5c0-0.4,0.3-0.5,0.7-0.5c0.6-0.1,1.2-0.1,1.8-0.2c0.9-0.1,1.4-0.5,1.6-1.3
		c0.2-0.8,0.4-1.6,0.4-2.5c0.1-2.6,0.2-5.3,0.2-7.9c0-6.6,0-13.2,0-19.8c0-1.6-0.1-3.3-0.2-4.9c-0.1-1.9-0.8-2.8-2.8-2.9
		c-1.2-0.1-2.4-0.1-3.6,0c-1.1,0-1.9,0.7-2.3,1.7c-0.4,1-0.9,2-1.2,3.1c-3.7,10.8-7.3,21.7-11,32.5c-0.3,0.9-0.6,1.9-1,2.8
		c-0.1,0.4-0.3,0.7-0.5,1.1c-0.3,0-0.7,0.1-1,0.1c-0.2-0.2-0.3-0.3-0.4-0.5c-0.5-1-0.9-2-1.4-3c-2.9-6.9-5.7-13.8-8.6-20.7
		c-0.7-1.8-1.5-3.6-2.2-5.4c-0.1-0.1-0.1-0.3-0.3-0.5c-0.5,1.4-1,2.7-1.5,3.9c-2.8,7.2-5.6,14.4-8.5,21.7c-0.5,1.1-1,2.2-1.6,3.4
		c-0.2,0.4-0.5,0.8-0.7,1.2c-0.3,0-0.6,0-0.9,0c-0.1-0.1-0.3-0.3-0.3-0.4c-0.4-1.2-0.9-2.3-1.2-3.5c-3.8-11.2-7.5-22.5-11.3-33.7
		c-0.2-0.7-0.5-1.4-0.9-2.1c-0.5-1-1.3-1.5-2.5-1.6c-0.4,0-0.9,0-1.4-0.1c-0.1-0.3-0.1-0.5-0.2-0.8c0.5-0.1,1-0.2,1.4-0.2
		c1.8,0,3.5,0.1,5.3,0.1c2.2,0,4.4-0.1,6.6-0.1c0.6,0,1.1,0,1.6,0.3c0.2,0.5-0.1,0.7-0.5,0.8c-0.3,0-0.6,0-0.8,0
		c-0.5,0.1-0.9,0.2-1.3,0.3c-0.4,0.9-0.3,1.6,0,2.4c1.1,3.8,2.1,7.7,3.2,11.5c1.5,5,3,10,4.6,15.1
		C337.5,115.5,337.6,115.7,337.8,115.9z"/>
	<path class="st0" d="M557.7,179.2c-1-8.7-2.2-17.2-3.4-26c-0.2,0.3-0.4,0.5-0.5,0.7c-2.8,5.8-5.5,11.6-8.3,17.3
		c-1.3,2.7-2.6,5.4-3.9,8.1c-0.2,0.4-0.4,0.9-0.7,1.3c-0.2,0.3-0.5,0.5-0.7,0.7c-0.8-0.2-1.1-0.9-1.4-1.4c-1.6-3-3.2-6-4.6-9
		c-2.6-5.3-5-10.6-7.6-15.8c-0.2-0.4-0.4-0.8-0.7-1.4c-0.2,1.7-0.4,3.1-0.6,4.4c-0.4,2.9-0.8,5.8-1.1,8.6c-0.3,2.1-0.5,4.3-0.8,6.4
		c-0.2,1.6-0.4,3.2-0.5,4.9c-0.1,1.1,0.3,1.5,1.3,1.9c0.1,0.1,0.3,0.1,0.5,0.1c0.7,0.1,1.3,0.2,2,0.2c0.3,0,0.7,0.1,1.2,0.3
		c-0.4,0.3-0.5,0.6-0.7,0.7c-0.6,0.1-1.2,0.2-1.8,0.2c-3.3-0.2-6.5-0.2-9.8,0c-0.6,0-1.3,0.1-1.6-0.6c0.2-0.5,0.7-0.5,1-0.5
		c2.6,0,3-1,3.5-3c0.4-1.5,0.5-3.1,0.8-4.7c0.4-2.4,0.7-4.7,1.1-7.1c0.4-2.4,0.7-4.9,1.1-7.3c0.4-2.4,0.7-4.7,1.1-7.1
		c0.4-2.4,0.7-4.7,1-7.1c0.2-1.5,0.4-2.9,0.7-4.4c0.1-0.4,0.3-0.8,0.4-1.1c0.6-0.2,1-0.1,1.3,0.3c0.3,0.4,0.5,0.8,0.7,1.2
		c2.3,4.8,4.6,9.5,6.9,14.3c2.5,5.3,5.1,10.5,7.6,15.8c0.1,0.2,0.2,0.4,0.4,0.7c0.2-0.3,0.3-0.4,0.4-0.6c4.3-9.1,8.6-18.2,13-27.3
		c0.5-1.1,1.1-2.3,1.7-3.4c0.2-0.4,0.4-0.7,0.7-1.1c0.3,0,0.6,0,0.9-0.1c0.1,0.1,0.2,0.2,0.2,0.3c0.2,0.7,0.4,1.4,0.6,2.1
		c0.6,4.1,1.2,8.1,1.8,12.2c0.6,4.1,1.2,8.2,1.8,12.3c0.5,3.4,1,6.8,1.5,10.2c0.1,0.9,0.4,1.7,0.7,2.5c0.3,1,1,1.6,2,1.8
		c1,0.2,2,0.3,2.9,0.5c0.3,0,0.6,0.1,0.9,0.1c0.3,0.4,0.2,0.7-0.2,0.8c-0.6,0.1-1.2,0.2-1.8,0.2c-2.2,0-4.3-0.1-6.5-0.2
		c-1.5-0.1-2.9-0.1-4.4-0.2c-0.4,0-0.8-0.2-1.1-0.2C556.5,179.8,557.5,179.8,557.7,179.2z"/>
	<path class="st0" d="M447.1,180.2c0.3-0.3,0.6-0.5,0.9-0.8c0-0.7,0.1-1.5,0-2.3c-0.4-3.5-0.9-7-1.4-10.5c-0.4-3.2-0.9-6.3-1.3-9.5
		c-0.1-0.9-0.2-1.7-0.3-2.6c-0.1-0.4-0.1-0.8-0.3-1.4c-2.4,4.9-4.6,9.6-6.8,14.2c-2.3,4.6-4.4,9.4-6.7,13.8c-0.7,0.3-1,0.1-1.2-0.2
		c-0.3-0.4-0.5-0.9-0.8-1.3c-4-7.5-7.7-15.2-11.3-22.9c-0.4-0.9-0.8-1.8-1.4-2.9c-0.2,1.4-0.4,2.5-0.5,3.6c-0.4,3-0.8,5.9-1.2,8.9
		c-0.4,2.8-0.7,5.6-1,8.4c-0.1,1.1-0.2,2.3-0.3,3.5c0,1.2,0.4,1.8,1.6,2c0.8,0.1,1.6,0.2,2.4,0.3c0.2,0,0.4,0.1,0.6,0.1
		c0,0.3,0,0.5,0,0.7c-0.8,0.3-1.6,0.2-2.4,0.2c-2.5-0.1-5,0-7.4,0c-0.8,0-1.6,0.1-2.4,0.1c-0.4,0-0.8-0.1-1.2-0.2c0-0.3,0-0.5,0-0.8
		c0.5,0,0.9-0.1,1.3-0.1c1.4,0,2.4-0.6,2.7-2c0.3-0.9,0.5-1.8,0.6-2.8c0.6-3.9,1.2-7.8,1.7-11.7c0.6-3.9,1.2-7.9,1.8-11.8
		c0.4-2.9,0.9-5.8,1.3-8.7c0.2-1.1,0.3-2.2,0.5-3.3c0.1-0.5,0.3-1,0.5-1.3c0.7-0.2,1.2,0,1.4,0.5c0.6,1.2,1.3,2.4,1.8,3.6
		c3.2,6.5,6.3,13.1,9.5,19.7c1.3,2.6,2.5,5.3,3.8,8c0.1,0.2,0.2,0.4,0.4,0.7c1.4-2.9,2.7-5.6,4-8.3c1.3-2.7,2.6-5.4,3.8-8.1
		c1.3-2.7,2.6-5.5,3.9-8.2c1.3-2.7,2.4-5.4,3.9-8c0.9,0,1.2,0.1,1.4,0.6c0.1,0.4,0.2,0.8,0.2,1.2c0.6,3.7,1.1,7.3,1.6,11
		c0.4,3,0.8,6,1.3,9c0.4,3,0.9,6,1.4,9c0.3,2.3,0.7,4.6,1,6.9c0,0.1,0,0.2,0,0.2c0.8,3,1.5,3.3,3.8,3.7c0.6,0.1,1.3,0.1,1.9,0.2
		c0.4,0,0.7,0,0.9,0.5c-0.4,0.7-1.2,0.6-1.8,0.6c-2.2,0-4.5-0.1-6.7-0.2c-1.5-0.1-3-0.1-4.5-0.2C448,180.9,447.4,180.9,447.1,180.2z
		"/>
	<path class="st0" d="M258.5,127.5c-4.1,0.1-7.9-0.7-11.4-2.5c-4.1-2.1-7-5.4-8.9-9.5c-1.4-3.2-2.1-6.5-2-10
		c0.2-5.3,1.8-10.1,5.4-14.1c3-3.4,6.8-5.5,11.2-6.4c2.7-0.6,5.4-0.8,8.1-0.6c3.4,0.2,6.7,0.9,9.8,2.4c5.1,2.5,8.4,6.5,9.8,11.9
		c1.6,6.1,1,12-1.9,17.6c-2.9,5.4-7.4,8.8-13.3,10.5C263,127.3,260.7,127.6,258.5,127.5z M273.5,107.2c-0.1-1.5-0.2-3.1-0.4-4.6
		c-0.4-3-1.3-5.7-2.9-8.3c-3.1-4.8-7.4-7.4-13.2-7.3c-5.4,0.1-9.3,2.6-11.4,7.5c-1.4,3.3-1.7,6.8-1.7,10.3c0,2.1,0.3,4.3,0.9,6.4
		c0.9,3.2,2.2,6.1,4.5,8.6c3.5,3.7,7.7,5.2,12.7,4.8c2-0.2,3.9-0.9,5.5-2c2.5-1.8,3.9-4.3,4.8-7.2
		C273.2,112.7,273.5,110,273.5,107.2z"/>
	<path class="st0" d="M228.4,127.3c-0.8,0.2-1.3-0.1-1.6-0.5c-1.1-1-2.2-2-3.2-3.1c-5.5-5.5-11-10.9-16.4-16.5
		c-3.3-3.3-6.4-6.8-9.6-10.2c-0.3-0.3-0.5-0.5-0.8-0.8c0,1.1,0,2.2,0,3.3c0,1.8,0.1,3.7,0.1,5.5c0.1,3.4,0.2,6.9,0.2,10.3
		c0,1.8,0.1,3.5,0.2,5.3c0.1,1,0.2,2,0.5,2.9c0.3,1.3,1.1,2,2.5,2c0.7,0,1.3,0.1,2,0.2c0.3,0,0.3,0,0.7,0.5
		c-0.2,0.6-0.6,0.5-1.1,0.5c-1.6,0-3.1,0-4.7,0c-2.7,0-5.4,0-8.1,0c-0.3,0-0.6,0-0.8,0c-0.4-0.1-0.6-0.3-0.5-0.9
		c0.7-0.1,1.4-0.2,2.2-0.3c1.8-0.2,2.4-0.8,2.6-2.7c0.1-1.3,0.2-2.6,0.2-3.9c0.1-3.4,0.1-6.8,0.1-10.2c0.1-5.4,0.2-10.9,0.2-16.3
		c0-2.2,0.1-4.5,0.2-6.7c0-0.5,0.1-1,0.2-1.5c0.7-0.3,1.1-0.1,1.5,0.3c0.6,0.6,1.1,1.2,1.7,1.8c2.6,2.8,5.3,5.6,7.9,8.3
		c3.8,4,7.7,7.9,11.6,11.8c2.4,2.5,4.8,5.1,7.3,7.6c0.6,0.6,1.2,1.2,1.9,1.9c0-1.6,0-2.9,0-4.2c0-2.2-0.1-4.5-0.2-6.7
		c-0.1-4.8-0.2-9.5-0.3-14.3c0-0.7-0.1-1.4-0.2-2.1c-0.3-1.7-1.2-2.6-2.9-2.7c-0.6,0-1.1,0-1.7-0.1c-0.3,0-0.6-0.1-0.8-0.2
		c0-0.8,0.5-0.8,0.9-0.8c1-0.1,2-0.1,3,0c2.5,0.2,4.9,0.2,7.4,0c0.8-0.1,1.7,0,2.5,0c0.4,0,0.5,0.1,1,0.6c-0.1,0.4-0.4,0.5-0.7,0.5
		c-0.3,0-0.6,0-1,0c-1.8,0.1-2.7,0.9-2.8,2.7c-0.2,2-0.2,4.1-0.2,6.1c-0.1,2.9,0,5.8-0.1,8.6c-0.1,4.6-0.2,9.1-0.2,13.7
		c-0.1,2.9-0.1,5.8-0.2,8.7C228.7,126.4,228.5,126.9,228.4,127.3z"/>
	<path class="st0" d="M302.6,126.2c-0.2,0.6-0.6,0.5-1.1,0.5c-1.7,0-3.4,0-5.2,0c-3.2,0-6.4,0-9.6,0c-0.5,0-1,0.1-1.3-0.4
		c0-0.4,0.2-0.5,0.6-0.5c0.6-0.1,1.3-0.1,1.9-0.2c0.9-0.1,1.4-0.5,1.6-1.4c0.1-0.6,0.3-1.2,0.4-1.7c0.1-1.9,0.3-3.8,0.3-5.7
		c0-8.2,0-16.3,0-24.5c0-1.3-0.1-2.5-0.2-3.8c-0.1-1.1-0.8-1.8-1.9-2c-0.8-0.1-1.7-0.2-2.5-0.2c-0.5,0-0.9-0.1-0.9-0.6
		C285,85,285.5,85,286,85c2.4,0,4.9,0.2,7.3,0.1c3.2,0,6.5-0.1,9.7-0.1c1.9,0,3.8,0.3,5.7,0.8c5,1.4,7.4,5.8,6.9,10.5
		c-0.4,3.6-1.9,6.8-4.6,9.3c-0.6,0.6-1.4,1.1-2.1,1.7c1.8,3.6,3.5,7.3,5.3,10.9c0.8,1.5,1.8,2.9,2.8,4.3c1.4,2,3.3,3.2,5.8,3.3
		c0.2,0,0.4,0.1,0.7,0.1c0,0.3-0.1,0.5-0.1,0.8c-0.3,0-0.6,0.1-0.9,0.1c-1.8,0-3.6,0-5.4-0.1c-1-0.1-2-0.3-3-0.6
		c-1.9-0.6-3.3-1.8-4.2-3.5c-1.2-2.3-2.4-4.6-3.6-6.9c-0.7-1.4-1.3-2.9-1.9-4.4c-0.3-0.7-0.5-1.4-1.3-1.9c-2-0.1-4-0.1-6.1-0.2
		c-0.1,0.4-0.1,0.6-0.1,0.9c0,3.4,0,6.7,0.1,10.1c0,1,0.1,2,0.3,3c0.3,1.4,0.9,1.9,2.4,2.1c0.8,0.1,1.5,0.1,2.3,0.2
		C302.2,125.7,302.5,125.8,302.6,126.2z M296.9,88.2c0,0.3-0.1,0.6-0.1,0.9c0,5.3,0,10.6,0,15.9c0,0.4,0.1,0.8,0.1,1.2
		c0.4,0.1,0.8,0.3,1.2,0.3c1.4,0.1,2.8,0.3,4.2,0.3c0.7,0,1.5,0,2.2-0.1c1.9-0.3,3.1-1.6,3.7-3.4c1.1-3.2,1.2-6.4,0.3-9.6
		c-0.7-2.6-2.4-4.5-4.9-5.5c-2-0.8-4.1-0.6-6.2-0.3C297.2,88,297.1,88.1,296.9,88.2z"/>
	<path class="st0" d="M322.8,181c-0.3,0.6-0.8,0.6-1.3,0.6c-2.1,0-4.2,0-6.2-0.2c-2.5-0.3-4.7-1.3-6-3.7c-1.3-2.4-2.6-4.8-3.8-7.2
		c-0.8-1.6-1.4-3.2-2.2-4.8c-0.1-0.3-0.3-0.6-0.5-0.9c-0.2-0.4-0.6-0.6-1.1-0.6c-1.8,0-3.7,0-5.5,0c0,0-0.1,0.1-0.2,0.2
		c0,0.2,0,0.4,0,0.7c0,3.4,0,6.8,0.1,10.2c0,1.1,0.2,2.1,0.4,3.2c0.2,1,0.9,1.5,1.9,1.6c0.8,0.1,1.7,0.1,2.5,0.2
		c0.3,0,0.6,0.2,1,0.3c-0.4,0.3-0.5,0.6-0.8,0.6c-0.5,0.1-1,0.2-1.5,0.2c-3.6,0-7.1-0.1-10.7-0.1c-0.9,0-1.8,0.1-2.7,0.1
		c-0.6,0-1.3,0.1-1.7-0.6c0.1-0.5,0.5-0.5,0.8-0.6c0.6-0.1,1.3-0.1,1.9-0.2c0.7-0.1,1.1-0.5,1.3-1.1c0.2-0.7,0.4-1.5,0.5-2.2
		c0.1-2.6,0.2-5.2,0.3-7.8c0-6.7,0-13.4,0-20c0-1.9-0.1-3.8-0.2-5.7c-0.1-1.4-0.7-2.1-2.1-2.3c-0.8-0.1-1.6-0.2-2.4-0.2
		c-0.6-0.1-0.6,0-0.7-0.8c0.4-0.4,0.8-0.2,1.2-0.2c3.1,0,6.2,0.1,9.2,0.1c3.1,0,6.2-0.1,9.2,0c2.2,0.1,4.4,0.6,6.4,1.7
		c3.1,1.7,4.6,4.4,4.7,7.8c0.1,4.9-1.9,9-5.7,12c-0.3,0.2-0.6,0.4-0.9,0.7c0.8,1.8,1.6,3.5,2.4,5.3c1.2,2.6,2.4,5.3,4,7.7
		c0.6,0.9,1.2,1.7,1.8,2.5c1.4,1.8,3.1,2.9,5.4,3C322.3,180.5,322.3,180.5,322.8,181z M296.1,160.7c0.3,0.1,0.4,0.2,0.5,0.3
		c2,0.4,4,0.6,6,0.5c0.9-0.1,1.7-0.2,2.5-0.7c1.1-0.7,1.8-1.8,2.2-3c1-3,1.1-6,0.4-9.1c-0.5-2.3-1.8-4.1-3.9-5.3
		c-2.3-1.3-4.7-1.1-7.2-0.9c-0.2,0-0.4,0.2-0.6,0.2C296.1,148.7,296.1,154.7,296.1,160.7z"/>
	<path class="st0" d="M449.1,85.9c0.1,0.3,0.1,0.5,0.1,0.7c-0.3,2.9-0.4,5.9-0.4,8.8c0,0.4,0.1,0.9-0.4,1.2
		c-0.5,0.1-0.7-0.2-0.8-0.6c-0.1-0.7-0.3-1.4-0.5-2.1c-0.4-1.4-1.2-2.5-2.3-3.4c-2.3-1.8-5-2.7-7.9-3.2c-2.5-0.4-4.9-0.5-7.4,0
		c-5.8,1.1-9.7,4.4-11.2,10.1c-1.4,5.5-1.1,10.9,1.2,16.1c2.7,6,7.3,9.6,13.8,10.7c1.9,0.3,3.9,0.3,5.9,0.2c0.5,0,1.1-0.2,1.6-0.3
		c1-0.3,1.5-0.9,1.5-1.9c0-2.3,0-4.6,0-6.8c0-1.5,0-3,0-4.6c0-0.4,0-0.9-0.1-1.3c-0.2-1.4-1-2.1-2.4-2.3c-0.9-0.1-1.8-0.2-2.8-0.3
		c0-0.3,0-0.5,0-0.8c5.5,0,10.9,0,16.4,0c0,0.3,0.1,0.5,0.1,0.7c-0.1,0.1-0.2,0.2-0.3,0.2c-0.6,0.1-1.2,0.2-1.8,0.2
		c-1.2,0.2-1.9,0.9-2.1,2.1c-0.1,1.1-0.2,2.1-0.2,3.2c0,3.5,0,7,0,10.4c0,0.5,0,1,0,1.5c-0.4,0.3-0.8,0.5-1.2,0.8
		c-1.7,0.8-3.6,1.3-5.5,1.6c-3.4,0.6-6.9,0.7-10.4,0.5c-4.5-0.3-8.8-1.4-12.7-3.7c-4.7-2.8-7.8-6.8-9-12.1
		c-1.2-5.2-0.9-10.2,1.4-15.1c2.6-5.7,7.1-9.2,13-11c2.6-0.8,5.4-1.1,8.1-1.2c4.1-0.1,8.1,0.3,12.1,1.1c0.9,0.2,1.7,0.2,2.6,0.3
		C448.1,85.8,448.6,85.8,449.1,85.9z"/>
	<path class="st0" d="M704.6,140.1c0.2-0.6,0.6-0.5,1-0.5c1.4,0,2.7,0,4.1,0c2.9,0,5.8,0,8.8,0c0.5,0,1-0.1,1.2,0.5
		c-0.1,0.5-0.5,0.5-0.9,0.5c-0.6,0-1.2,0.1-1.8,0.2c-1.2,0.2-1.7,0.7-1.9,1.9c-0.1,0.8-0.2,1.7-0.2,2.5c0,5.9,0,11.8-0.1,17.6
		c0,2.9-0.3,5.8-1.1,8.6c-1.7,5.6-5.5,8.8-11,10.1c-3.5,0.8-7,0.7-10.5-0.2c-5.6-1.4-9-4.9-10.4-10.4c-0.5-2.2-0.8-4.4-0.8-6.6
		c0-4.9,0-9.8,0-14.8c0-2-0.1-4-0.2-6c-0.1-1.4-0.5-2.6-2.6-2.9c-0.9-0.1-1.7-0.2-2.7-0.3c0-0.2-0.1-0.4-0.1-0.7
		c0.2-0.1,0.4-0.2,0.6-0.2c1.6,0,3.1,0,4.7,0c3.5,0,7,0,10.6,0c0.3,0,0.7,0,1,0c0.2,0,0.4,0.3,0.5,0.4c-0.1,0.5-0.3,0.6-0.7,0.6
		c-0.6,0-1.3,0.1-1.9,0.2c-0.9,0.1-1.5,0.7-1.7,1.6c-0.2,0.9-0.3,1.8-0.3,2.7c-0.1,6.1-0.2,12.1-0.1,18.2c0,2.7,0.1,5.4,0.9,8.1
		c1.1,3.6,3.2,6.2,6.9,7.2c3.8,1,7.4,0.5,10.5-2.1c1.7-1.4,2.6-3.4,3-5.5c0.4-2,0.5-4,0.5-5.9c0-6.2,0-12.5,0-18.7
		c0-0.9,0-1.8-0.1-2.6c-0.1-1.8-0.7-2.5-2.5-2.8c-0.6-0.1-1.3-0.1-1.9-0.2C705.2,140.6,704.8,140.6,704.6,140.1z"/>
	<path class="st0" d="M596.9,140.1c0.2-0.5,0.6-0.5,1-0.5c1.4,0,2.7,0,4.1,0c2.8,0,5.7,0,8.5,0c0.3,0,0.7,0,1,0
		c0.2,0.1,0.3,0.3,0.5,0.4c-0.1,0.5-0.4,0.5-0.8,0.5c-0.6,0-1.2,0.1-1.8,0.2c-1.2,0.2-1.8,0.8-2,2c-0.1,1-0.2,2-0.2,3
		c0,5.9,0,11.8-0.1,17.6c0,2.8-0.3,5.5-1.2,8.1c-1.7,5.6-5.7,8.8-11.3,10c-3.7,0.8-7.5,0.6-11.1-0.4c-4.8-1.4-7.8-4.6-9.3-9.3
		c-0.8-2.8-1-5.6-1-8.5c0-5.2,0-10.4,0-15.6c0-1.5-0.1-2.9-0.2-4.4c-0.1-1.5-0.7-2.3-2.2-2.5c-0.9-0.2-1.9-0.2-2.9-0.3
		c0-0.2-0.1-0.4-0.2-0.7c0.3-0.1,0.4-0.2,0.6-0.2c1.6,0,3.2,0,4.8,0c3.5,0,7,0,10.6,0c0.5,0,1-0.2,1.3,0.4c-0.1,0.4-0.3,0.5-0.7,0.6
		c-0.6,0-1.2,0.1-1.8,0.2c-0.9,0.1-1.5,0.7-1.8,1.6c-0.1,0.5-0.2,0.9-0.2,1.4c-0.1,1.7-0.1,3.4-0.1,5.2c0,5.1,0,10.2,0,15.4
		c0,2.4,0.2,4.7,0.8,7c0.7,2.7,2.2,4.9,4.7,6.4c1.1,0.6,2.2,1.1,3.5,1.2c3.2,0.4,6.3-0.1,8.9-2.1c1.9-1.4,2.8-3.4,3.3-5.7
		c0.4-1.7,0.5-3.4,0.6-5.1c0-5.9,0.1-11.8,0.1-17.7c0-1.6-0.1-3.2-0.2-4.8c-0.1-1.6-0.8-2.5-2.5-2.7c-0.6-0.1-1.3-0.1-1.9-0.2
		C597.4,140.6,597.1,140.6,596.9,140.1z"/>
	<path class="st0" d="M656.1,157.6c0.4,0,0.7,0.1,1,0.1c2.7-0.1,5.4-0.1,8.1-0.2c1.1,0,2.1-0.2,2.9-1.2c0.2-0.2,0.5-0.3,1-0.5
		c-0.2,1.7-0.3,3.2-0.5,4.7c-0.1,1.5-0.2,2.9-0.3,4.5c-0.2,0.1-0.5,0.1-0.9,0.2c-0.1-0.5-0.2-0.9-0.2-1.3c0-2.5-1.4-3.2-3-3.3
		c-2.7-0.2-5.4-0.1-8.2-0.2c-0.1,0.3-0.1,0.4-0.1,0.6c0,4.3,0,8.6,0,12.8c0,0.6,0.1,1.2,0.2,1.8c0.2,1.3,0.9,2.1,2.2,2.4
		c0.3,0.1,0.6,0.2,0.9,0.2c2.5,0.1,5,0.3,7.5-0.2c1.6-0.3,2.6-1.4,3.1-2.9c0.1-0.5,0.2-0.9,0.3-1.4c0.1-0.4,0.3-0.7,0.4-1
		c0.8,0.1,0.7,0.6,0.7,1c-0.1,1.3-0.2,2.5-0.3,3.8c-0.1,0.8-0.2,1.6-0.4,2.4c-0.2,1.1-0.6,1.4-1.7,1.4c-3.5,0-7,0-10.6-0.1
		c-3.9,0-7.7-0.1-11.6-0.1c-0.6,0-1.3,0-1.9,0c-0.2,0-0.4-0.2-0.5-0.3c0.1-0.6,0.5-0.6,0.9-0.6c0.6,0,1.2-0.1,1.8-0.2
		c0.7-0.1,1.2-0.5,1.4-1.2c0.2-0.7,0.4-1.4,0.4-2.1c0.1-1.8,0.2-3.7,0.2-5.5c0-8.2,0-16.4,0-24.6c0-1.2-0.1-2.3-0.2-3.5
		c-0.1-1.4-0.8-2.1-2.2-2.4c-0.9-0.2-1.9-0.2-2.9-0.3c0-0.2-0.1-0.5-0.2-0.8c0.6,0,1-0.1,1.5-0.1c6.6,0,13.3,0,19.9,0.1
		c1.5,0,2.9-0.1,4.4-0.5c0.1,0,0.3,0,0.5,0c0.4,0.5,0.1,0.9,0.1,1.4c-0.1,1.8-0.3,3.6-0.5,5.5c0,0.6-0.1,1.2-0.6,1.5
		c-0.5-0.1-0.6-0.4-0.6-0.7c0-0.4-0.1-0.9-0.2-1.3c-0.1-1.4-1-2.2-2.4-2.5c-1.1-0.2-2.2-0.3-3.3-0.3c-1.8-0.1-3.7-0.1-5.5-0.2
		c-0.2,0-0.4,0-0.6,0c-0.1,0.2-0.2,0.5-0.2,0.7c0,4.6,0,9.2,0,13.8C656,157.2,656,157.3,656.1,157.6z"/>
	<path class="st0" d="M475.3,160.6c0,0.4-0.1,0.8-0.1,1.2c0,3.8,0,7.6,0,11.4c0,0.8,0.1,1.7,0.2,2.5c0.2,1.3,1,2.1,2.3,2.4
		c0.2,0.1,0.5,0.1,0.7,0.2c2.4,0.2,4.7,0.3,7-0.1c2.9-0.5,3.4-2.1,3.9-3.9c0.1-0.3,0.1-0.6,0.2-0.9c0.1-0.2,0.3-0.4,0.4-0.5
		c0.5,0.1,0.6,0.3,0.6,0.7c0,0.7,0,1.4-0.1,2.2c-0.1,1.2-0.3,2.4-0.4,3.6c0,0.1,0,0.2,0,0.2c-0.3,1.7-0.7,2-2.4,2
		c-3.2,0-6.4,0-9.6-0.1c-4,0-8-0.1-12-0.1c-0.6,0-1.3,0-1.9,0c-0.2,0-0.4-0.2-0.6-0.4c0.1-0.6,0.5-0.6,0.9-0.6
		c0.8-0.1,1.6-0.2,2.2-0.2c1.2-0.8,1.3-1.9,1.4-3c0.2-2.1,0.3-4.2,0.3-6.3c0-7.8,0-15.5,0-23.3c0-1.4-0.1-2.9-0.2-4.3
		c-0.2-1.4-0.8-2-2.1-2.2c-0.8-0.1-1.6-0.2-2.4-0.2c-0.3,0-0.7,0-0.8-0.5c0.1-0.1,0.3-0.4,0.5-0.4c0.3-0.1,0.7-0.1,1.1,0
		c4,0,8.1,0.1,12.1,0.1c2.9,0,5.8,0,8.8-0.1c1,0,2-0.3,3.1-0.4c0.3,0,0.5-0.1,0.9-0.1c0,0.3,0.1,0.6,0.1,0.8c-0.4,2-0.4,4-0.6,6.1
		c0,0.5,0,1.1-0.6,1.5c-0.5,0-0.6-0.3-0.6-0.7c0-0.6-0.1-1.2-0.2-1.8c-0.2-0.9-0.8-1.6-1.7-1.8c-0.7-0.2-1.3-0.4-2-0.4
		c-2.6-0.1-5.3-0.2-8-0.3c-0.1,0.4-0.2,0.8-0.2,1.1c0,4.3,0,8.6,0,12.8c0,0.3,0.1,0.7,0.2,1.1c2.1,0,4.1,0,6.2,0
		c1.1,0,2.1-0.1,3.2-0.1c1,0,1.9-0.3,2.6-1.1c0.2-0.3,0.5-0.6,1-0.2c-0.2,2.9-0.5,5.9-0.7,8.9c-0.3,0-0.5,0.1-0.7,0.1
		c-0.1-0.1-0.2-0.2-0.2-0.3c-0.1-0.6-0.2-1.2-0.2-1.8c-0.1-1.1-0.8-1.8-1.8-2.2c-0.5-0.2-1-0.3-1.5-0.3
		C480.7,160.6,478.1,160.6,475.3,160.6z"/>
	<path class="st0" d="M372,180.8c-0.5,0.6-1.2,0.6-1.8,0.6c-3.3,0-6.5-0.1-9.8-0.2c-1.6,0-3.2,0.1-4.8,0.1c-0.4,0-0.8-0.1-1.3-0.2
		c0-0.3,0-0.5,0-0.8c0.8-0.1,1.6-0.2,2.4-0.3c1-0.1,1.5-0.7,1.7-1.6c0.4-1.6,0.5-3.2,0.5-4.7c0-10.2,0-20.3,0-30.5
		c0-0.1,0-0.2,0-0.4c-1.3,0-2.7,0-4,0c-1.8,0-3.6,0.1-5.4,0.2c-0.7,0-1.3,0.1-2,0.3c-1,0.2-1.8,0.8-2.3,1.8c-0.3,0.6-0.6,1.3-0.9,2
		c-0.2,0-0.4,0-0.6,0c-0.5-0.6,0.5-6.8,1.4-8.1c0.1,0,0.2-0.1,0.3-0.1c2.4,0.9,5,0.8,7.6,0.8c7.3,0,14.6,0,21.8,0
		c1.7,0,3.4-0.1,5.1-0.5c0.1,0,0.3,0,0.6,0c0.1,0.3,0.2,0.7,0.2,1c-0.1,2.2-0.1,4.5-0.2,6.7c0,0.3-0.2,0.6-0.3,0.8
		c-0.7-0.1-0.9-0.5-0.9-1c0.1-1.9-1-2.7-2.6-3.2c-0.6-0.2-1.2-0.4-1.9-0.4c-2.9-0.1-5.8-0.2-8.9-0.4c0,0.4,0,0.7,0,1
		c0,9.6,0,19.1,0,28.7c0,1.7,0.1,3.4,0.3,5.1c0.1,1.7,0.8,2.3,2.5,2.5c0.8,0.1,1.6,0.1,2.4,0.2C371.5,180.3,371.5,180.3,372,180.8z"
		/>
	<path class="st0" d="M613.5,173.5c0.4,0.3,0.7,0.6,0.9,0.8c1,0.9,1.9,1.9,3,2.8c3.4,2.6,7.1,3.2,11,1.7c2-0.7,3.5-2,4.1-4.2
		c0.5-1.9-0.1-3.6-1.1-5.1c-1.2-1.8-2.9-3.1-4.5-4.4c-2-1.6-4-3.2-5.9-4.9c-1.5-1.3-2.7-2.7-3.6-4.4c-1.6-2.7-2.1-5.6-1.4-8.6
		c0.9-3.5,3.3-5.7,6.6-7c1.6-0.6,3.2-0.9,4.9-1c2.6-0.1,5.2,0.1,7.7,0.7c0.3,0.1,0.7,0.2,1,0.3c0.1,0,0.2,0.1,0.3,0.3
		c-0.1,2.7-0.2,5.3-0.3,8c0,0.2-0.2,0.3-0.2,0.5c-0.6,0.2-0.8-0.2-0.9-0.7c-0.1-0.5-0.1-1-0.2-1.5c-0.8-2.5-2.8-4.7-6.1-5
		c-1.2-0.1-2.4-0.1-3.6,0.3c-4.1,1.2-5,5.6-3.1,8.5c0.9,1.4,2.1,2.4,3.3,3.4c1.8,1.4,3.6,2.8,5.4,4.2c2,1.6,3.9,3.3,5.5,5.4
		c1.6,2.2,2.4,4.6,2.3,7.3c-0.2,4.4-2.2,7.7-6,9.8c-4.9,2.6-9.9,2.5-14.7-0.4c-1.9-1.2-3.3-2.9-4.2-4.9
		C613.4,174.8,613.2,174.3,613.5,173.5z"/>
	<path class="st0" d="M342.5,180.7c-0.4,0.7-1.1,0.6-1.7,0.6c-2.9,0-5.7-0.2-8.6-0.2c-2,0-3.9,0.1-5.9,0.2c-0.6,0-1.2,0.1-1.6-0.6
		c0.1-0.5,0.4-0.5,0.8-0.6c0.6,0,1.3-0.1,1.9-0.2c0.9-0.1,1.3-0.7,1.6-1.4c0.2-0.5,0.2-1.1,0.3-1.6c0.1-1.9,0.2-3.8,0.2-5.7
		c0-8,0-16,0-24c0-1.3-0.1-2.5-0.2-3.8c-0.1-1.3-0.7-2.6-2.4-2.6c-0.7,0-1.3-0.2-2.1-0.2c0-0.2-0.1-0.5-0.1-0.8
		c0.5,0,0.9-0.1,1.3-0.1c2.2,0,4.3,0.1,6.5,0.1c2.4,0,4.9-0.1,7.3-0.1c0.4,0,1-0.2,1.3,0.4c0,0.5-0.3,0.6-0.7,0.6
		c-0.6,0.1-1.3,0.1-1.9,0.2c-0.9,0.1-1.5,0.7-1.7,1.6c-0.1,0.5-0.2,1.1-0.2,1.6c0,6.1-0.1,12.2-0.1,18.3c0,4.4,0,8.7,0.1,13.1
		c0,0.8,0.1,1.7,0.2,2.5c0.2,1.2,0.9,1.8,2.1,2c0.9,0.1,1.8,0.2,2.7,0.2C341.9,180.3,342.3,180.2,342.5,180.7z"/>
	<path class="st0" d="M383,140.1c0.3-0.5,0.8-0.4,1.2-0.4c1.8,0,3.5,0.1,5.3,0.1c2.8,0,5.7,0,8.5-0.1c0.4,0,0.9,0,1.4,0.1
		c-0.1,0.4-0.1,0.6-0.1,0.8c-0.8,0.1-1.6,0.2-2.3,0.3c-1.2,0.2-1.8,0.9-1.9,2c-0.1,1.1-0.2,2.2-0.2,3.3c0,8.9,0,17.8,0,26.6
		c0,1.6,0.1,3.1,0.2,4.7c0.1,1.3,0.5,2.5,2.5,2.6c0.8,0,1.7,0.1,2.5,0.2c0.2,0,0.5,0.1,0.7,0.1c0,0.2,0,0.4,0.1,0.8
		c-0.6,0.1-1.1,0.2-1.6,0.2c-3.2,0-6.4-0.1-9.6-0.2c-1.7,0-3.3,0.1-5,0.2c-0.5,0-1.1,0-1.5-0.5c0.1-0.5,0.5-0.6,0.9-0.6
		c0.6,0,1.2-0.1,1.8-0.2c0.9-0.1,1.4-0.7,1.6-1.5c0.2-1.1,0.4-2.3,0.4-3.4c0.1-5,0.1-10,0.1-15c0-5,0-10,0-15c0-0.8-0.1-1.5-0.2-2.3
		c-0.2-1.1-0.8-1.8-1.9-2c-0.6-0.1-1.3-0.2-1.9-0.2C383.4,140.6,383.2,140.5,383,140.1z"/>
</g>
</svg>
