<?xml version="1.0" encoding="utf-8"?>
<!-- Generator: Adobe Illustrator 22.1.0, SVG Export Plug-In . SVG Version: 6.00 Build 0)  -->
<svg version="1.1" id="Layer_1" xmlns="http://www.w3.org/2000/svg" xmlns:xlink="http://www.w3.org/1999/xlink" x="0px" y="0px"
	 viewBox="0 0 379.7 62.8" style="enable-background:new 0 0 379.7 62.8;" xml:space="preserve">
<style type="text/css">
	.st0{fill:#FFFFFF;}
</style>
<path class="st0" d="M0,22.6c0-5.2,2.7-12.5,14.5-12.5c11.8,0,14.5,7.3,14.5,12.5v20.7c0,5.1-2.7,12.5-14.5,12.5
	C2.7,55.8,0,48.4,0,43.3V22.6z M11.8,44.1c0,1.5,0,3.6,2.7,3.6c2.7,0,2.7-2.1,2.7-3.6V21.8c0-1.5,0-3.6-2.7-3.6
	c-2.7,0-2.7,2.1-2.7,3.6V44.1z"/>
<path class="st0" d="M33.9,11h11.4v5.4h0.1c2.2-4,4.4-6.3,9.2-6.3c3.8,0,7.2,1.7,8.2,6.3c2.3-4,4-6.3,9.4-6.3c5.7,0,8.7,4,8.7,9.4
	v35.4H69.1V25.4c0-1.6,0-4.7-2.9-4.7c-2.9,0-2.9,3.7-2.9,4.7v29.5H51.5V25.4c0-1.6,0-4.7-2.9-4.7c-2.9,0-2.9,3.7-2.9,4.7v29.5H33.9
	V11z"/>
<path class="st0" d="M113.1,0h11.8v15h0.1c1.8-3.4,4.2-4.9,8.4-4.9c5.8,0,8.6,4.1,8.6,11.1v21.4c0,8.2-3.2,13.1-8.8,13.1
	c-3.8,0-6.8-1.9-8.2-5.3h-0.1v4.4h-11.8V0z M124.9,39.7c0,3,0,7.1,3,7.1c1.2,0,2.3-0.6,2.3-2.9V21.7c0-1.8-1.2-2.7-2.3-2.7
	c-2.5,0-3,2.9-3,5.6V39.7z"/>
<path class="st0" d="M148.4,54.3h2.7c1.1,0,2-0.3,2-1.6c0-1-0.3-3-0.8-4.9L145.1,11h12.1l3,30.8h0.1l3-30.8h11.6l-7.7,40.2
	c-0.8,4.2-1.8,7.1-3.6,8.9c-1.9,1.9-4.6,2.7-9.7,2.7h-5.5V54.3z"/>
<path class="st0" d="M178.5,11h11.4v5.4h0.1c2.2-4,4.4-6.3,9.2-6.3c3.8,0,7.2,1.7,8.2,6.3c2.3-4,4-6.3,9.4-6.3c5.7,0,8.7,4,8.7,9.4
	v35.4h-11.8V25.4c0-1.6,0-4.7-2.9-4.7c-2.9,0-2.9,3.7-2.9,4.7v29.5h-11.8V25.4c0-1.6,0-4.7-2.9-4.7c-2.9,0-2.9,3.7-2.9,4.7v29.5
	h-11.8V11z"/>
<path class="st0" d="M260.4,54.9H249V50h-0.1c-2.1,3.7-4.5,5.8-9,5.8c-5.6,0-8.4-4.1-8.4-9.4V11h11.8v30c0,1.6,0,4.2,2.7,4.2
	c2.7,0,2.7-3.2,2.7-4.2V11h11.8V54.9z"/>
<path class="st0" d="M264.7,41.1h10.6v2.7c0,1.7,0.5,3.9,3,3.9c1.8,0,2.6-1.2,2.6-3.2c0-3.5-4-5.7-7.9-8.7c-3.8-3-7.9-6.6-7.9-13
	c0-8.3,5.4-12.6,13.2-12.6c8.2,0,13.1,3.4,13.1,11.5V24h-10.6v-2.3c0-1.1-0.1-3.4-2.5-3.4c-1.6,0-2.6,1-2.6,3c0,3.5,4.6,5.6,8.1,8.7
	c4.1,3.1,8.1,6.3,8.1,13c0,3.6-0.8,12.9-13.6,12.9c-10.4,0-13.6-4.6-13.6-11.8V41.1z"/>
<path class="st0" d="M295.2,22.6c0-5.2,2.7-12.5,14.5-12.5c11.8,0,14.5,7.3,14.5,12.5v12.1H307v9.4c0,1.5,0,3.6,2.7,3.6
	c2.7,0,2.7-2.1,2.7-3.6v-5.5h11.8v4.7c0,5.1-2.7,12.5-14.5,12.5c-11.8,0-14.5-7.4-14.5-12.5V22.6z M307,26.6h5.4v-4.8
	c0-1.5,0-3.6-2.7-3.6c-2.7,0-2.7,2.1-2.7,3.6V26.6z"/>
<path class="st0" d="M329.6,22.6c0-5.2,2.7-12.5,14.5-12.5c11.8,0,14.5,7.3,14.5,12.5v12.1h-17.2v9.4c0,1.5,0,3.6,2.7,3.6
	c2.7,0,2.7-2.1,2.7-3.6v-5.5h11.8v4.7c0,5.1-2.7,12.5-14.5,12.5c-11.8,0-14.5-7.4-14.5-12.5V22.6z M341.4,26.6h5.4v-4.8
	c0-1.5,0-3.6-2.7-3.6c-2.7,0-2.7,2.1-2.7,3.6V26.6z"/>
<path class="st0" d="M364.8,20h-3v-8.5h3V1.9h11.8v9.5h3V20h-3v23.5c0,1.1,0,3.4,1.6,3.4h1.5v8.9H374c-5.1,0-9.2-1-9.2-7.9V20z"/>
<g>
	<path class="st0" d="M87,23.9h11.5v12.8H87V23.9z M87,42.1h11.5V54c0,3.4-3.4,8.4-5.1,8.7H87c2.4-2.1,4.7-4.7,5.7-7.9H87V42.1z"/>
</g>
</svg>
