<?xml version="1.0" encoding="utf-8"?>
<!-- Generator: Adobe Illustrator 22.1.0, SVG Export Plug-In . SVG Version: 6.00 Build 0)  -->
<svg version="1.1" id="Layer_1" xmlns="http://www.w3.org/2000/svg" xmlns:xlink="http://www.w3.org/1999/xlink" x="0px" y="0px"
	 viewBox="0 0 408.9 78.3" style="enable-background:new 0 0 408.9 78.3;" xml:space="preserve">
<style type="text/css">
	.st0{fill:#FFFFFF;}
</style>
<g>
	<path class="st0" d="M280.8,78.3c0-5.2,0-10.3,0-15.7c1.1,0,2.1,0,3.3,0c3.6,5.1,7.3,10.4,11.1,15.7h10.9c-4.4-6-9-11.9-13.5-17.9
		c0.4-0.3,0.7-0.5,1-0.7c1.5-1.3,3.1-2.6,4.1-4.4c2.4-4.4,2-8.8-0.3-13c-1-2-2.6-3.4-4.6-4.4c-2.4-1.3-5-1.6-7.7-1.7
		c-3.9-0.1-7.9,0-11.8,0c-0.5,0-1,0.1-1.6,0.2c0,2.4,0,4.7,0,7s0,4.7,0,7.1c0,2.3,0,4.6,0,6.9s0,4.6,0,6.9s0,4.7,0,7.1
		c0,2.3,0.1,4.6-0.1,6.9H280.8z M280.9,44.9c2.1-0.3,4.1-0.4,6,0c4,1,4.9,5.1,2.8,8.1c-0.8,1-1.9,1.5-3.1,1.6c-1.9,0.1-3.7,0-5.8,0
		C280.8,51.2,280.8,48.1,280.9,44.9z"/>
	<path class="st0" d="M374.8,53.4c1,2.7,2,5.5,3.1,8.3c1,2.8,2.2,5.6,3.2,8.5c1,2.7,2.2,5.3,2.9,8.1h8.9
		c5.3-14.1,10.5-27.7,15.7-41.4c0.1,0,0.2,0.1,0.3,0.1v-0.7h-9.2v-0.2c-0.1,0-0.2,0-0.3,0c-0.4,0.8-0.7,1.5-0.9,2.2
		c-3.1,8.9-6.2,17.7-9.3,26.5c-0.1,0.4-0.4,0.7-0.8,1.3c-3.6-10.1-7.2-20-10.7-29.8c-3.1,0-6.2,0-9.4,0c1.1,2.9,2.1,5.7,3.2,8.5
		S373.7,50.6,374.8,53.4z"/>
	<path class="st0" d="M353.7,78.3h9c0-13.9,0-27.8,0-41.9c-3,0-5.8,0-8.8,0c0,2.1,0,4.1,0,6.1s0,4,0,6s0,4,0,6s0,4,0,6s0,4,0,6
		s0.1,4,0,6C353.8,74.4,354.1,76.3,353.7,78.3z"/>
	<path class="st0" d="M310.3,78.3h9.6c-0.4-2.4-0.5-15.3-0.1-17.4c0.7-0.2,1,0.4,1.4,0.8c3.1,3.2,6.1,6.4,9.1,9.5
		c1.6,1.6,3.2,3.2,4.7,4.8c0.6,0.6,1.2,1.4,2,2.3h12.5c-0.5-0.2-0.9-0.6-1.3-1c-3.1-3.1-6.2-6-9.3-9c-3.5-3.4-6.9-6.8-10.3-10.2
		c-0.3-0.4-0.7-0.8-1.1-1.3c6.8-6.9,13.6-13.6,20.5-20.6c-4.1,0-8,0-11.9,0c-2.7,2.9-5.4,5.8-8.1,8.6c-2.8,2.9-5.2,6.1-8.6,8.8
		c0-3.2,0-6,0-8.8c-0.1-2.8,0-5.7-0.1-8.6c-3.1,0-5.8-0.1-8.8,0.1c0,1,0,1.8,0,2.6c0,12.4,0,24.7,0,37.1
		C310.5,76.7,310.7,77.6,310.3,78.3z"/>
	<path class="st0" d="M33.7,78.3h26.8c0-0.8,0-1.6,0-2.3c0-10.3,0-20.7,0-31c0-0.7,0.2-1.6-0.3-2.3c-4.6-0.4-24.6-0.2-26.4,0.2
		c0,5.9,0,11.9,0,17.8C33.8,66.5,33.9,72.4,33.7,78.3z"/>
	<path class="st0" d="M94,78.3c0-25.4-0.1-50.7-0.1-76.1c0-0.5,0.1-0.9,0.1-1.3c0.1,0,0.2-0.1,0.2-0.1c0.1,0,0.2,0,0.2,0.1
		c0.2,0.3,0.4,0.7,0.5,1c9.8,25.4,19.7,50.7,29.5,76.1c0,0.1,0,0.2-0.1,0.3h27.3c-10.2-26-20.3-52.2-30.4-78.1
		C117.5-0.1,68.7,0,66.9,0.4c0,0.8,0,1.6,0,2.4c0,22.4,0,44.8,0,67.2c0,2.3,0,4.7,0,7.1c0,0.4-0.1,0.8-0.2,1.2H94z"/>
	<path class="st0" d="M235.2,78.3c1-2.8,2-5.5,2.9-8.2c1.8-0.4,13.5-0.5,15.7-0.1c0.9,1.3,2.7,6,3.2,8.3h9.5
		c-2.7-7.1-5.4-14.2-8.2-21.2S253,43,250.1,36.2c-2.9,0-5.5,0-8.1,0c-5.6,14-10.9,28.1-16.4,42.1H235.2z M245.9,48.4
		c1.1,1.1,4.3,9.3,5.2,13.5c-1.6,0.4-7.4,0.5-10.1,0.1C242.7,57.4,244.3,53,245.9,48.4z"/>
	<path class="st0" d="M27.4,78.3c0-26,0-52.1,0-78.2c-0.9,0-1.7,0-2.4,0c-4.5,0-8.9,0-13.4,0C7.8,0.1,4,0,0.2,0
		c0,26.2,0,52.4-0.2,78.3H27.4z"/>
	<path class="st0" d="M199.2,46.2c2.7,4.3,5.4,8.6,8.1,12.8c0.6,0.8,0.7,1.6,0.7,2.5c0,5,0,10,0,15c0,0.5-0.1,1.1-0.1,1.6
		c-0.1,0.1-0.2,0.2-0.3,0.2h9.1c-0.1,0-0.2-0.1-0.3-0.1c-0.1-0.2-0.2-0.4-0.2-0.5c0-5.6,0-11.2,0-16.8c0-0.7,0.2-1.5,0.6-2.1
		c1.8-3,3.8-6,5.7-9c2.9-4.6,5.8-9.1,8.7-13.7c-3.4,0-6.7,0-10.1,0c-3,5-6,10-9.1,15.2c-3.4-5.1-6.2-10.3-9.3-15.2
		c-3.3,0-6.5,0-9.9,0c0.2,0.4,0.3,0.7,0.4,0.9C195.3,40.1,197.3,43.1,199.2,46.2z"/>
	<path class="st0" d="M163.5,78.3h19.3c0,0,0.1,0,0.1-0.1c5-0.7,9.8-4.4,10.5-10.2c0.8-6.4-2.8-9.7-8.3-12c0.9-0.7,1.6-1.1,2.2-1.6
		c0.5-0.4,1-0.9,1.4-1.4c2.2-2.8,2.7-5.9,1.5-9.2c-0.7-2-1.8-3.6-3.6-4.9c-2.9-2.1-6.3-2.6-9.7-2.7c-3.9-0.1-7.7,0-11.6,0
		c-0.4,0-0.9,0.1-1.5,0.1c0,0.9,0,1.7,0,2.5c0,12.4,0,24.7,0,37.1C163.8,76.7,164,77.6,163.5,78.3z M172.4,44.1
		c2.8-0.5,5.8-0.7,8.3,1.2c1.4,1,1.8,2.6,1.4,4.4c-0.3,1.8-1.5,2.9-3.1,3.4c-2,0.6-4.1,0.9-6.4,0.4C172.1,51.7,172,46.6,172.4,44.1z
		 M172.6,60.8c2.7,0,5.4-0.3,7.9,0.5c1.6,0.5,3,1.3,3.7,3c0.7,1.8,0.4,3.3-0.8,4.7c-1,1.3-2.4,2-4,2.1c-2.2,0.1-4.6,0-6.8,0
		C172,69.4,172,63,172.6,60.8z"/>
</g>
</svg>
