<?xml version="1.0" encoding="utf-8"?>
<!-- Generator: Adobe Illustrator 22.1.0, SVG Export Plug-In . SVG Version: 6.00 Build 0)  -->
<svg version="1.1" id="Layer_1" xmlns="http://www.w3.org/2000/svg" xmlns:xlink="http://www.w3.org/1999/xlink" x="0px" y="0px"
	 viewBox="0 0 404 436.1" style="enable-background:new 0 0 404 436.1;" xml:space="preserve">
<style type="text/css">
	.st0{fill:#FFFFFF;}
	.st1{fill:none;stroke:#FFFFFF;stroke-width:6;stroke-miterlimit:10;}
	.st2{fill:#3A3A3A;}
</style>
<ellipse class="st0" cx="195.8" cy="126.1" rx="114.1" ry="114"/>
<g>
	<path class="st0" d="M400.8,316.5c-3.4,4.1-8.1,3.7-12.5,3.6c-4.5-2.9-3.1-7.9-4.4-12.2c-2.8,0.2-5.4,0.4-7.9,0.6
		c-1.7,1.9-3,4.3-5,5.4c-3.4,2-7.2,2.4-10.9,0c-2.1-1.3-4.4-2.2-6.8-3.3c-5.8,3.1-11.6,6.1-18.7,6c-2-2.2-4-4.5-6.2-7
		c-3.4,2-7,3.7-10.7,0.2c-4.4,3.7-9.2,3.5-14.3,2.7c-4.2-0.7-6.5-2.8-6.6-7.5c2-3.3,3.8-7.2,9.5-7.3c0.9,1.9,1.8,3.9,2.8,6.2
		c-1.8,1-3.2,1.8-4.7,2.6c5.2,4.3,11.6,3.2,14.8-2.8c1.8-3.3,2.8-7.1,4.1-10.6c0.7-1.8,1.2-3.8,4-3c4.3,4.3,1.7,8.7-0.2,13.9
		c6-1.1,9.7-7.1,15.9-5.9c-0.1,2.9-1.9,4.3-3.8,5.6c-2.4,1.7-3.7,3.8-3,6.8c1.7,2,3.6,1.8,5.7,0.9c2.4-1.1,4.9-2.1,7.5-2.8
		c4.2-1.3,6.8-4,8-8.2c0.5-1.8,1-3.7,1.8-5.4c1.3-3,3.6-4.7,7.3-5.1c2.2,7.6-4.4,13.1-3.9,20.2c1.2,0.5,2.4,0.9,3.5,1.3
		c3.1-3.1,0.9-9,6.6-10.6c4.3,2.9,9.5,3.8,14.8,4.4c4.8,0.6,9.3,2.3,13,5.5C400.8,312.7,400.8,314.6,400.8,316.5z M392.9,311.3
		c-0.6,0.3-1.1,0.5-1.7,0.8c-0.1,1.1-0.1,2.1-0.2,4c1.6-1,2.4-1.5,4.2-2.6C394.1,312.5,393.5,311.9,392.9,311.3z"/>
	<path class="st0" d="M204,329.2c0.4-1,0.7-2,1.3-3.6c-5.5-4.3-11.1-8.8-16.4-13c-1.1,0.3-1.6,0.3-1.8,0.5c-5.3,5.5-11.1,6.7-18,2.8
		c-3.8-2.1-8-2.3-12.3-1.1c-1.6,0.5-3.3,0.9-5,1.2c-5,1-9.9,1.6-13.8-3.1c-3.1,1.5-5.9,3-8.9,4.3c-4.3,1.9-5.4,1.4-7.9-2.5
		c-0.9-1.4-1.9-2.8-3.1-4.6c-1.8,0.2-3.7,0.3-5.4,0.5c-3.4,4.6-5.9,9.7-11.5,12.3c-3.9-3.3-7.9-6.6-12.2-10.2
		c-5.6,0.6-11.6,4.1-17.7,1.2c-2.6-8-2-10.3,3.5-12.3c0.7,1.5,1.4,3,2.2,4.5c1.9,3.3,3.1,3.6,7,2.8c3.5-0.8,7.1-1.2,10.4-1.8
		c2.6,3.2,4,7.1,9.2,7c0.7-2.4,1.5-5,2.5-8.2c2.7,0,5.7-0.1,8.7,0c2.8,0.1,5.7,0.4,8,0.5c2,2.5,3.6,4.6,4.9,6.2
		c4.9-1.7,9.2-3.3,13.5-4.8c3.5,4.5,7.4,4.7,12,2.8c1.9-0.8,4.4-0.4,6.7-0.4c1.3,0,2.7,0.2,3.9,0.7c6.8,2.7,12.2-0.5,17.4-4.1
		c2.3-1.5,3.2-3.6,2.1-6.5c-1.4-3.8-0.5-7.5,0.8-11.3c1.3,0,2.3,0,3.6,0c1.8,2.7,2,5.8,1.7,8.8c-0.6,6.7,2.6,11.3,7.7,15
		c3.1,2.3,6.2,4.4,9.3,6.7c2.8,2.1,4.9,4.7,5.7,8.8c-2.6,0.7-5.1,1.3-7.5,1.9C204.6,330.1,204.3,329.7,204,329.2z"/>
	<path class="st0" d="M7.3,304.6c5.7,4,11.3,8.7,19.5,8.2c-0.4-3.2-0.8-5.9-1.2-8.7c10.6-6,21.1-10.9,33.1-10.3
		c7,7.4,4.5,18.7-4.7,20.5c-10.1,2-20.2,4.4-30.7,3.4c-4.3-0.4-8.7-1.2-12.9-2.6c-5.8-2-9.3-6.3-10.5-12.5
		c5.3-6.9,11.7-11.2,20.4-11.5c1.7-0.1,3.4-0.5,5-1c2-0.6,3.4-1.7,3.3-4.1c-3.4-4.4-7.1-8-13.1-4.8c-4.7-7.9-4.6-14,0-17.5
		c2.6,0.6,3.5,2.8,4.1,5c1,3.6,3.2,5.9,6.2,7.9c2.7,1.8,5.3,3.8,7.6,6.1c4.2,4.1,3.2,10.8-3.7,12c-3,0.5-6.1,0.7-9.1,1.1
		c-2.8,0.4-5.7,0.7-8.4,1.6C9.2,298.4,7.1,300.6,7.3,304.6z M51.6,297.5c-5.9,4.5-14.8,2.1-19.8,8.9c5,6.4,17.3,7.6,22.8,2.4
		C58.3,305.2,57.4,300.4,51.6,297.5z"/>
	<path class="st0" d="M244.9,292.2c-0.8-3.3-1.5-6.4-2.3-9.5c-0.6-2.2-1.5-4.4-1.8-6.6c-0.1-1,0.8-2.1,1.2-3.1
		c1,0.2,1.5,0.2,1.7,0.4c3.6,5,7.7,9.2,13.3,12.2c3.3,1.7,3.8,4.9,3.5,11c-2.5,1.8-5.6,2-8.6,1.6c-3.6-0.6-6.3,0.4-8.6,2.7
		c-2.2,6.3,1.6,9.9,5.8,12.5c7.2,4.4,15.1,6.3,23.6,4.7c4.4-0.8,7.8-3,8.9-7.8c0.2-0.7,0-1.5,0-2.6c-4.7-1.2-9-2.8-14-2.1
		c-5,0.7-6.9,5.3-10.4,7.8c-2.9-3.9-3-4.3-0.6-6.6c2.9-2.9,6.1-5.3,10.4-5.4c4-0.1,8-0.3,11.9,0.5c4.7,0.9,8.4,3.6,9.3,8.7
		c-3.3,8.9-9.7,12.3-18.8,12c-8.7-0.3-17.2-1.6-24.9-5.7c-8.1-4.3-11-14.8-3.3-21.4C242.2,294.5,243.2,293.7,244.9,292.2z
		 M255,293.7c0.6-3.9-1.5-4.6-3.8-5.8c-0.5,1.7-0.9,3-1.5,4.9C251.7,293.1,253.2,293.4,255,293.7z"/>
	<path class="st0" d="M190.3,348.4c-0.1-1.5-0.3-2.8-0.4-4.2c3.3-2,7-2,10.1-1.2c5.5,1.4,10.9,1.1,16.4,0.9c1.1,0,2.2,0.1,3.7,0.2
		c0,1.4,0,2.6,0,4.3C210.1,348.4,200.5,348.4,190.3,348.4z"/>
	<path class="st0" d="M82.9,276.4c1.2,2,2.3,4,3.3,5.7c-1.6,3.3-3.5,3.7-5.9,2.3C78.5,279.3,78.5,279.3,82.9,276.4z"/>
	<path class="st0" d="M132,280.2c-1.1,1.4-2.2,2.8-3.3,4.3c-2.6-1.2-3.5-2.6-2.1-4.6C128.1,277.8,129.8,277.5,132,280.2z"/>
</g>
<g>
	<path class="st0" d="M0,435.4v-38.3h27.7v4.5H5.1v11.7h21.2v4.5H5.1v13h23.5v4.5H0z"/>
	<path class="st0" d="M62.9,422l5.1,1.3c-1.1,4.2-3,7.3-5.7,9.5c-2.8,2.2-6.1,3.3-10.1,3.3c-4.1,0-7.5-0.8-10.1-2.5
		c-2.6-1.7-4.6-4.1-5.9-7.3c-1.3-3.2-2-6.6-2-10.3c0-4,0.8-7.5,2.3-10.4c1.5-3,3.7-5.2,6.5-6.8c2.8-1.5,5.9-2.3,9.3-2.3
		c3.8,0,7.1,1,9.7,2.9s4.4,4.7,5.5,8.2l-5,1.2c-0.9-2.8-2.2-4.8-3.9-6.1c-1.7-1.3-3.8-1.9-6.4-1.9c-2.9,0-5.4,0.7-7.4,2.1
		s-3.4,3.3-4.2,5.7c-0.8,2.4-1.2,4.8-1.2,7.4c0,3.3,0.5,6.1,1.4,8.5c0.9,2.4,2.4,4.2,4.4,5.4c2,1.2,4.2,1.8,6.5,1.8
		c2.8,0,5.2-0.8,7.2-2.5C60.9,427.6,62.2,425.2,62.9,422z"/>
	<path class="st0" d="M74,435.4v-38.3h5.1v19l19-19h6.9l-16.1,15.5l16.8,22.8H99L85.3,416l-6.3,6.1v13.3H74z"/>
	<path class="st0" d="M109.7,435.4v-38.3h14.4c2.9,0,5.3,0.4,7,1.2c1.8,0.8,3.2,2,4.2,3.6c1,1.6,1.5,3.3,1.5,5.1
		c0,1.6-0.4,3.2-1.3,4.6c-0.9,1.4-2.2,2.6-4,3.5c2.3,0.7,4.1,1.8,5.3,3.5s1.9,3.6,1.9,5.8c0,1.8-0.4,3.5-1.1,5
		c-0.8,1.5-1.7,2.7-2.8,3.6c-1.1,0.8-2.5,1.5-4.2,1.9s-3.7,0.6-6.2,0.6H109.7z M114.8,413.2h8.3c2.2,0,3.9-0.1,4.8-0.4
		c1.3-0.4,2.3-1,2.9-1.9c0.7-0.9,1-2,1-3.3c0-1.3-0.3-2.4-0.9-3.4c-0.6-1-1.5-1.6-2.6-2c-1.1-0.4-3.1-0.5-5.8-0.5h-7.7V413.2z
		 M114.8,430.9h9.5c1.6,0,2.8-0.1,3.4-0.2c1.2-0.2,2.1-0.6,2.9-1c0.8-0.5,1.4-1.2,1.9-2.1c0.5-0.9,0.8-2,0.8-3.2
		c0-1.4-0.4-2.7-1.1-3.7c-0.7-1.1-1.7-1.8-3-2.2s-3.2-0.6-5.6-0.6h-8.9V430.9z"/>
	<path class="st0" d="M144,416.8c0-6.4,1.7-11.3,5.1-14.9c3.4-3.6,7.8-5.4,13.2-5.4c3.5,0,6.7,0.8,9.6,2.5c2.8,1.7,5,4,6.5,7.1
		c1.5,3,2.2,6.4,2.2,10.3c0,3.9-0.8,7.4-2.4,10.4s-3.8,5.4-6.7,7s-6,2.4-9.3,2.4c-3.6,0-6.8-0.9-9.7-2.6c-2.8-1.7-5-4.1-6.5-7.1
		S144,420.1,144,416.8z M149.3,416.8c0,4.6,1.2,8.3,3.7,10.9c2.5,2.7,5.6,4,9.3,4c3.8,0,7-1.3,9.4-4s3.7-6.5,3.7-11.4
		c0-3.1-0.5-5.8-1.6-8.2c-1.1-2.3-2.6-4.1-4.6-5.4c-2-1.3-4.3-1.9-6.8-1.9c-3.6,0-6.7,1.2-9.3,3.7
		C150.6,407,149.3,411.1,149.3,416.8z"/>
	<path class="st0" d="M185.5,423.1l4.8-0.4c0.2,1.9,0.8,3.5,1.6,4.7s2.1,2.2,3.9,3c1.7,0.8,3.7,1.1,5.9,1.1c1.9,0,3.6-0.3,5.1-0.9
		c1.5-0.6,2.6-1.4,3.3-2.4c0.7-1,1.1-2.1,1.1-3.3c0-1.2-0.3-2.3-1-3.1c-0.7-0.9-1.8-1.6-3.4-2.3c-1-0.4-3.3-1-6.8-1.9
		c-3.5-0.8-6-1.6-7.4-2.4c-1.8-1-3.2-2.1-4.1-3.6c-0.9-1.4-1.3-3-1.3-4.8c0-1.9,0.5-3.7,1.6-5.4c1.1-1.7,2.7-3,4.8-3.8
		c2.1-0.9,4.4-1.3,7-1.3c2.8,0,5.3,0.5,7.5,1.4c2.2,0.9,3.8,2.3,5,4s1.8,3.8,1.9,6l-4.9,0.4c-0.3-2.4-1.1-4.2-2.7-5.5
		c-1.5-1.2-3.7-1.9-6.7-1.9c-3.1,0-5.3,0.6-6.7,1.7c-1.4,1.1-2.1,2.5-2.1,4.1c0,1.4,0.5,2.5,1.5,3.4c1,0.9,3.5,1.8,7.6,2.7
		c4.1,0.9,6.9,1.7,8.5,2.4c2.2,1,3.9,2.3,4.9,3.9s1.6,3.4,1.6,5.4c0,2-0.6,4-1.8,5.8c-1.2,1.8-2.8,3.2-5,4.2c-2.2,1-4.6,1.5-7.4,1.5
		c-3.5,0-6.4-0.5-8.7-1.5s-4.2-2.5-5.5-4.6C186.2,428,185.5,425.7,185.5,423.1z"/>
	<path class="st0" d="M237.5,435.4v-38.3h5.1v33.8h18.9v4.5H237.5z"/>
	<path class="st0" d="M267.6,435.4v-38.3h27.7v4.5h-22.6v11.7h21.2v4.5h-21.2v13h23.5v4.5H267.6z"/>
	<path class="st0" d="M321.1,420.4v-4.5l16.2,0v14.2c-2.5,2-5.1,3.5-7.7,4.5c-2.6,1-5.4,1.5-8.2,1.5c-3.8,0-7.2-0.8-10.3-2.4
		c-3.1-1.6-5.4-3.9-7-7s-2.4-6.5-2.4-10.2c0-3.7,0.8-7.2,2.3-10.4s3.8-5.6,6.7-7.2s6.3-2.4,10.1-2.4c2.8,0,5.3,0.4,7.5,1.3
		c2.2,0.9,4,2.1,5.3,3.7s2.2,3.7,2.9,6.3l-4.6,1.3c-0.6-2-1.3-3.5-2.1-4.6c-0.9-1.1-2.1-2-3.7-2.7c-1.6-0.7-3.3-1-5.3-1
		c-2.3,0-4.3,0.4-6,1.1c-1.7,0.7-3.1,1.6-4.1,2.8c-1,1.2-1.8,2.4-2.4,3.8c-1,2.4-1.5,4.9-1.5,7.7c0,3.4,0.6,6.3,1.8,8.6
		c1.2,2.3,2.9,4,5.1,5.1c2.2,1.1,4.6,1.7,7.2,1.7c2.2,0,4.3-0.4,6.4-1.3s3.7-1.7,4.8-2.7v-7.1H321.1z"/>
	<path class="st0" d="M340.6,435.4l14.7-38.3h5.5l15.7,38.3h-5.8l-4.5-11.6h-16l-4.2,11.6H340.6z M351.6,419.7h13l-4-10.6
		c-1.2-3.2-2.1-5.9-2.7-7.9c-0.5,2.5-1.2,4.9-2.1,7.3L351.6,419.7z"/>
	<path class="st0" d="M386.3,435.4v-33.8h-12.6v-4.5H404v4.5h-12.7v33.8H386.3z"/>
</g>
<circle class="st1" cx="194.8" cy="126.1" r="123.1"/>
<g>
	<path class="st2" d="M180.7,238.3c4.8-4.4,9.8-7.7,10.7-12.9c3.4-3.6,6.2-6.2,8.7-9.2c6.1-7.4,11.9-15.1,18-22.5
		c3-3.6,6.3-7,9.5-10.4c5.1-5.5,10.3-11,15.2-16.3c0.2-4.9,0-5.4-4-8.8c-0.4,0.2-1,0.4-1.4,0.8c-6.4,6.4-12.7,12.8-19.2,19
		c-2.6,2.4-5.6,4.4-8.6,6.3c-7.9,5.1-16,9.9-23.9,15c-2,1.3-3.4,3.5-5.3,5.4c-2.7,6.3,2.5,11.6,3.1,18.1c-1.2,0.1-2.1,0.1-2.9,0.2
		c-4.3,0.7-5.8,2.3-6.5,6.6c-0.4,2.7-1,5.3-1.5,7.9c-64.7-12.2-104.1-77.5-87.3-140.5c16.8-63,80.6-96.8,139-81
		c63.5,17.1,98.6,80.9,80.5,142.5C285.2,224.5,219.5,247.1,180.7,238.3z M190.6,167.6c-3.8,4.1-9.5,2.8-12.8,6.6
		c-0.1,0.6-0.3,1.6-0.2,2.5c0.1,0.9,0.4,1.8,0.8,3.3c4.7,1.3,9.5,2.5,14.3,4.2c4.4,1.5,8.1,0.6,11.6-2.3c1-0.8,1.9-1.8,2.9-2.6
		c1.2-0.8,2.7-2.2,3.8-2c4.3,0.8,6.2-1.3,7.7-4.8c0.6-1.5,1.9-2.8,2.9-4.3c-0.2-7,4.9-13.6,1-21.3c1.6-1.4,3-2.7,4.6-4.1
		c0.7-5.7,4.9-11.4,1.7-18.2c0.4-0.7,1.2-1.4,1.4-2.2c0.9-4.6,2.5-9,4.7-13.2c0.7-1.3,0.8-3.8,0-4.9c-2.4-3.1-2.1-6.9-2.6-10.3
		c-0.6-3.9-1.5-7.3-3.8-10.1c2.3-12.3-2.9-26.6-11.2-31.1c-1.3,1.2-2.7,2.5-3.9,3.6c-4.6,1.3-8.9,2.6-13.2,3.9
		c-2.6-1.9-5-3.8-7.4-5.6c-4-2.9-7.9-5.3-13.4-3.9c-3.1,0.8-6.7-0.1-10.1-0.2c-4.1-0.1-7.9-2.9-11.9-1.2
		c-8.8,6.7-12.4,15.2-9.7,26.3c0.4,0.4,1.2,1.1,1.5,1.4c0.3,2.6,0.6,4.6,0.8,6.6c0.4,4.5-5.7,7.2-3.5,12.5c4.2,0.2,8.1,0.9,12.3,0.3
		c9.6-1.3,15.4,5,14.2,14.6c-0.3,2.6-1,5.2-1.1,7.8c-0.1,5.3-0.2,10.5-2.2,15.3c4.8,5.6,5.7,5.9,12.2,3.7c3.1-1.1,5.8-0.4,8.5,1.1
		c-1.6,3.7-5.9,2.4-8,4.9c0.4,2.2,0.8,4.3,1.2,7.1c1.1-0.8,1.8-1.3,2.5-1.8c2.7,0.7,5.4,1.6,8.2,2.1c3.9,0.8,6.2,3.2,7.7,7.2
		c-3.2,0.4-6.2,0.8-9.1,1.2c-4.1,0.5-8.2,0.9-12.3,1.6c-1.1,0.2-2,1.2-4.1,2.5C181.7,165.4,185.7,166.3,190.6,167.6z M159.6,139.5
		c4.2-2.5,5.4-6.4,5.6-11c0.1-2.4,0.2-4.9,1.2-7.1c1.7-3.8,0.7-6.4-2.4-9.1c-5.9,1.7-9.2,5.8-11.3,11.7c-2-0.7-3.9-1.2-6.1-1.9
		c-0.1,1.2-0.7,2.6-0.2,3.2c0.7,1.2,2,2.2,3.2,2.9c1.9,0.9,4.1,1.5,5.8,2.1C156.5,133.8,155,137.7,159.6,139.5z M238.6,137.2
		c3.9,0.6,5.5-2.8,7-5.3c2.4-4,5.1-8.2,4-12.9c-3,0.4-5.6,0.8-8.9,1.3c-0.5,2.3-2,5.4-1.4,8C240,131.6,235.2,133.9,238.6,137.2z
		 M242.7,108c2.6-2.3,5.3-4.8,8.2-7.5C244.6,100,242,102.7,242.7,108z M160,221.7c-2.3,0-3.7,0-5.2,0c-0.8,2-2.8,3.5-1.1,6.3
		C155.9,226.3,158.2,225.1,160,221.7z"/>
	<path class="st2" d="M203.3,94.3c0.1,1.7,0.2,2.6,0.2,3.7c-1.9,0.8-3.8,1.6-6.2,2.7c4,1,7.5,1.8,11.2,2.7c1.2-0.7,2.4-1.5,3.9-2.4
		c0.8,1,1.4,1.9,2,2.7c-3.8,1.4-7.2,2.7-10.8,4c-1.2-0.8-2.4-1.7-3.9-2.7c-1.1,0.8-2.3,1.6-3.9,2.8c-1.8-0.8-3.8-1.8-5.6-2.7
		c-1.4-2.4-2.8-4.6-4.3-7.2c2.3-1.8,4.7-3.7,7.9-6.1C196.5,92.6,199.6,93.4,203.3,94.3z"/>
</g>
</svg>
