<?xml version="1.0" encoding="utf-8"?>
<!-- Generator: Adobe Illustrator 22.1.0, SVG Export Plug-In . SVG Version: 6.00 Build 0)  -->
<svg version="1.1" id="Layer_1" xmlns="http://www.w3.org/2000/svg" xmlns:xlink="http://www.w3.org/1999/xlink" x="0px" y="0px"
	 viewBox="0 0 113.4 33.7" style="enable-background:new 0 0 113.4 33.7;" xml:space="preserve">
<style type="text/css">
	.st0{fill:#FFFFFF;}
</style>
<g>
	<g>
		<g>
			<path class="st0" d="M48,21.4h-0.6L49,17h0.6l1.6,4.4h-0.6l-0.4-1.3h-1.7L48,21.4z M49.4,18.2c-0.1-0.2-0.1-0.4-0.2-0.5h0
				c0,0.1-0.1,0.3-0.2,0.5l-0.5,1.5h1.3L49.4,18.2z"/>
			<path class="st0" d="M53.6,18.7c-0.1,0-0.1,0-0.2,0c-0.6,0-0.9,0.5-0.9,1v1.6H52v-3.1h0.5v0.6c0.1-0.4,0.5-0.7,0.9-0.7
				c0.1,0,0.1,0,0.2,0V18.7z"/>
			<path class="st0" d="M54.2,18.3h0.6v-1.1l0.5-0.1v1.2H56v0.4h-0.7v1.9c0,0.1,0,0.2,0,0.3c0,0.1,0.1,0.1,0.3,0.1
				c0.1,0,0.3,0,0.4,0v0.4c-0.2,0-0.3,0.1-0.5,0.1c-0.3,0-0.5-0.1-0.6-0.3c0-0.1,0-0.2,0-0.3v-2.1h-0.6V18.3z"/>
			<path class="st0" d="M58.7,19.1c-0.2-0.2-0.5-0.4-0.9-0.4s-0.6,0.2-0.6,0.4c0,0.3,0.2,0.4,0.7,0.5l0.4,0.1
				c0.5,0.1,0.9,0.3,0.9,0.9c0,0.6-0.6,1-1.3,1c-0.6,0-1.1-0.3-1.3-0.6l0.4-0.4c0.2,0.3,0.6,0.5,1,0.5c0.4,0,0.7-0.2,0.7-0.5
				c0-0.3-0.2-0.4-0.5-0.4L57.7,20c-0.5-0.1-1-0.3-1-0.9c0-0.7,0.6-0.9,1.2-0.9c0.6,0,1,0.3,1.2,0.5L58.7,19.1z"/>
			<path class="st0" d="M65.9,20.4c-0.3,0.7-0.9,1.1-1.7,1.1c-1.2,0-2-0.8-2-2.3c0-1.3,0.8-2.3,2-2.3c0.8,0,1.4,0.4,1.7,1l-0.5,0.3
				c-0.2-0.5-0.7-0.8-1.2-0.8c-0.9,0-1.4,0.7-1.4,1.8c0,1.1,0.5,1.8,1.4,1.8c0.6,0,1-0.3,1.2-0.9L65.9,20.4z"/>
			<path class="st0" d="M68.2,18.2c0.9,0,1.5,0.6,1.5,1.6c0,1-0.6,1.6-1.5,1.6c-0.9,0-1.5-0.6-1.5-1.6
				C66.7,18.9,67.3,18.2,68.2,18.2z M68.2,21c0.5,0,0.9-0.4,0.9-1.2c0-0.7-0.4-1.2-0.9-1.2c-0.6,0-0.9,0.4-0.9,1.2
				C67.3,20.6,67.7,21,68.2,21z"/>
			<path class="st0" d="M70.7,18.3h0.5v1.8c0,0.3,0,0.5,0.1,0.6c0.1,0.2,0.3,0.3,0.6,0.3c0.5,0,0.8-0.4,0.8-0.9v-1.8h0.5v3.1h-0.5
				v-0.5c-0.2,0.3-0.5,0.5-1,0.5c-0.3,0-0.6-0.1-0.8-0.3c-0.2-0.2-0.3-0.4-0.3-1.1V18.3z"/>
			<path class="st0" d="M77.2,21.4h-0.5v-1.8c0-0.7-0.2-0.9-0.7-0.9c-0.5,0-0.8,0.4-0.8,0.9v1.8h-0.5v-3.1h0.5v0.5
				c0.2-0.3,0.5-0.5,1-0.5c0.4,0,0.7,0.1,0.9,0.4c0.1,0.2,0.2,0.5,0.2,0.8V21.4z"/>
			<path class="st0" d="M81.1,20.7c-0.3,0.5-0.7,0.8-1.3,0.8c-0.9,0-1.5-0.6-1.5-1.6c0-1,0.6-1.6,1.5-1.6c0.6,0,1.1,0.3,1.3,0.8
				l-0.4,0.2c-0.1-0.4-0.4-0.6-0.9-0.6c-0.6,0-0.9,0.4-0.9,1.2c0,0.7,0.4,1.2,0.9,1.2c0.5,0,0.7-0.2,0.9-0.6L81.1,20.7z"/>
			<path class="st0" d="M82.6,17.7H82V17h0.5V17.7z M82.6,21.4H82v-3.1h0.5V21.4z"/>
			<path class="st0" d="M84.4,21.4h-0.5V17h0.5V21.4z"/>
			<path class="st0" d="M50.5,26.1c0.1,0.2,0.3,0.5,0.3,0.5h0c0,0,0-0.3,0-0.7v-2.8h0.6v4.4h-0.6l-2.1-3c-0.1-0.2-0.3-0.5-0.3-0.5h0
				c0,0,0,0.3,0,0.5v3h-0.6v-4.4h0.6L50.5,26.1z"/>
			<path class="st0" d="M54,24.4c0.9,0,1.5,0.6,1.5,1.6c0,1-0.6,1.6-1.5,1.6c-0.9,0-1.5-0.6-1.5-1.6C52.5,25,53.1,24.4,54,24.4z
				 M54,27.2c0.5,0,0.9-0.4,0.9-1.2c0-0.7-0.4-1.2-0.9-1.2c-0.6,0-0.9,0.4-0.9,1.2C53.1,26.7,53.5,27.2,54,27.2z"/>
			<path class="st0" d="M58.2,24.9c-0.1,0-0.1,0-0.2,0c-0.6,0-0.9,0.5-0.9,1v1.6h-0.5v-3.1h0.5V25c0.1-0.4,0.5-0.7,0.9-0.7
				c0.1,0,0.1,0,0.2,0V24.9z"/>
			<path class="st0" d="M61.8,26.1c0.1,0.3,0.2,0.5,0.2,0.7h0c0-0.1,0.1-0.4,0.2-0.7l0.5-1.7h0.6l-1.1,3.1h-0.5l-0.5-1.8
				c-0.1-0.3-0.2-0.5-0.2-0.6h0c0,0.1-0.1,0.3-0.2,0.6l-0.6,1.8h-0.5l-1.1-3.1h0.6l0.6,1.7c0.1,0.2,0.2,0.5,0.2,0.7h0
				c0-0.1,0.1-0.4,0.2-0.7l0.6-1.7h0.5L61.8,26.1z"/>
			<path class="st0" d="M66.7,27.6c-0.1,0-0.2,0-0.3,0c-0.4,0-0.5-0.2-0.5-0.4h0c-0.1,0.2-0.3,0.4-0.9,0.4c-0.6,0-1.1-0.3-1.1-0.9
				c0-0.2,0.1-0.4,0.2-0.6c0.2-0.2,0.6-0.3,1-0.4l0.5-0.1c0.2,0,0.3-0.1,0.3-0.2v-0.1c0-0.3-0.1-0.5-0.7-0.5c-0.6,0-0.7,0.3-0.7,0.7
				L64,25.4c0-0.7,0.6-1,1.3-1c0.7,0,1.2,0.2,1.2,1c0,0.1,0,1.6,0,1.6c0,0.2,0.1,0.3,0.3,0.3h0.1V27.6z M65.9,26
				c-0.1,0-0.2,0-0.7,0.2c-0.4,0.1-0.7,0.2-0.7,0.5c0,0.4,0.3,0.5,0.6,0.5c0.4,0,0.8-0.2,0.8-0.7V26z"/>
			<path class="st0" d="M68.5,28.2c-0.2,0.5-0.5,0.7-0.9,0.7c-0.2,0-0.3,0-0.4,0v-0.4c0.1,0,0.2,0,0.4,0c0.2,0,0.3,0,0.4-0.1
				c0.1-0.1,0.1-0.2,0.2-0.3l0.1-0.4l-1.1-3.1h0.6l0.6,1.9c0.1,0.3,0.2,0.5,0.2,0.5h0c0,0,0.1-0.3,0.2-0.6l0.6-1.8h0.5L68.5,28.2z"
				/>
		</g>
		<g>
			<path class="st0" d="M52.4,12.5h-0.9l-2-2.9l-1.1,1.1v1.8h-0.7V6.8h0.7v3l2.9-3h1L50,9.1L52.4,12.5z"/>
			<path class="st0" d="M54.3,11.7C54.1,11.4,54,11,54,10.2V6.8h0.7v3.4c0,0.5,0,0.9,0.2,1.3c0.2,0.4,0.7,0.6,1.2,0.6
				c0.6,0,1-0.2,1.2-0.6c0.2-0.3,0.2-0.8,0.2-1.3V6.8h0.7v3.4c0,0.9-0.1,1.2-0.3,1.6c-0.4,0.6-1,0.9-1.9,0.9
				C55.3,12.6,54.7,12.4,54.3,11.7z"/>
			<path class="st0" d="M64.2,12.5h-3.6V6.8h0.8v5.1h2.8V12.5z"/>
			<path class="st0" d="M64.5,6.8h4.3v0.7H67v5.1h-0.7V7.5h-1.8V6.8z"/>
			<path class="st0" d="M70.9,11.7c-0.2-0.4-0.3-0.7-0.3-1.6V6.8h0.7v3.4c0,0.5,0,0.9,0.2,1.3c0.2,0.4,0.7,0.6,1.2,0.6
				c0.6,0,1-0.2,1.2-0.6c0.2-0.3,0.2-0.8,0.2-1.3V6.8h0.7v3.4c0,0.9-0.1,1.2-0.3,1.6c-0.4,0.6-1,0.9-1.9,0.9
				C71.9,12.6,71.2,12.4,70.9,11.7z"/>
			<path class="st0" d="M77.9,12.5h-0.7V6.8h2.2c0.6,0,0.9,0.1,1.2,0.2c0.6,0.2,0.9,0.8,0.9,1.5c0,0.9-0.6,1.5-1.5,1.6l1.6,2.5h-0.9
				l-1.6-2.5h-1.2V12.5z M79.2,9.4c0.5,0,0.8-0.1,1-0.1c0.3-0.2,0.5-0.4,0.5-0.8c0-0.4-0.2-0.7-0.5-0.8c-0.2-0.1-0.4-0.1-1-0.1h-1.3
				v2H79.2z"/>
			<path class="st0" d="M84.6,12.5h-0.7V6.8H86c0.6,0,0.9,0.1,1.2,0.2c0.6,0.2,0.9,0.8,0.9,1.5c0,0.9-0.6,1.5-1.5,1.6l1.6,2.5h-0.9
				l-1.6-2.5h-1.2V12.5z M85.9,9.4c0.5,0,0.8-0.1,1-0.1c0.3-0.2,0.5-0.4,0.5-0.8c0-0.4-0.2-0.7-0.5-0.8c-0.2-0.1-0.4-0.1-1-0.1h-1.3
				v2H85.9z"/>
			<path class="st0" d="M90.6,12.5h-0.8l2-5.7h0.8l2,5.7h-0.8l-0.6-1.7h-2.2L90.6,12.5z M92.5,8.4c-0.1-0.3-0.2-0.5-0.2-0.7h0
				c0,0.1-0.1,0.4-0.2,0.7l-0.6,1.9h1.7L92.5,8.4z M92.3,4.9c0.5,0,0.8,0.4,0.8,0.8c0,0.5-0.4,0.8-0.8,0.8c-0.5,0-0.8-0.4-0.8-0.8
				C91.4,5.3,91.8,4.9,92.3,4.9z M92.2,6.1c0.2,0,0.3-0.1,0.3-0.3c0-0.2-0.2-0.3-0.3-0.3c-0.2,0-0.3,0.1-0.3,0.3
				C91.9,5.9,92.1,6.1,92.2,6.1z"/>
			<path class="st0" d="M96.6,12.5V6.8H98c0.9,0,1.5,0,2.1,0.4c0.6,0.5,1.1,1.3,1.1,2.4c0,1-0.3,1.8-0.8,2.3
				c-0.6,0.6-1.2,0.6-2.3,0.6H96.6z M97.3,11.9h0.8c0.7,0,1.2,0,1.6-0.4c0.4-0.3,0.7-1,0.7-1.8c0-0.7-0.3-1.5-0.7-1.8
				c-0.4-0.3-0.8-0.4-1.7-0.4h-0.7V11.9z"/>
			<path class="st0" d="M107.3,12.5h-4V6.8h3.8v0.7h-3.1v1.8h2.8v0.7h-2.8v1.9h3.2V12.5z"/>
			<path class="st0" d="M109.1,6.8h4.3v0.7h-1.8v5.1h-0.7V7.5h-1.8V6.8z"/>
		</g>
	</g>
	<rect x="38" y="0.5" class="st0" width="0.7" height="32.7"/>
	<g>
		<path class="st0" d="M14.6,31.9l-4.1-2.4l-0.9,1.3l5,2.9l7.4-4.3l-1-1.2L14.6,31.9z M20.9,5.4l0.9-1.3L14.6,0l-4.1,2.4v1.8
			l4.1-2.4L20.9,5.4z M23.5,5.1L8.6,26.2l0-22.7L0,8.4v16.9l7.9,4.6l7.7-10.9l8.1,9.6l5.5-3.2V8.4L23.5,5.1z M7,27.5l-5.4-3.1V9.3
			L7,6.2V27.5z M27.7,24.4L24,26.5l-7.5-8.9l7.4-10.4l3.7,2.2V24.4z"/>
	</g>
</g>
</svg>
