<svg xmlns="http://www.w3.org/2000/svg" viewBox="0 0 200 70"><defs><style>.cls-1{fill:#222;opacity:0;}.cls-2{fill:#fff;}</style></defs><title>B.Assets-Wordmark_only-neg</title><g id="Invisible_s" data-name="Invisible s"><rect class="cls-1" width="200" height="70"/></g><g id="Wordmark"><g id="_Group_" data-name="&lt;Group&gt;"><path class="cls-2" d="M31.9,41.32H26.31L25.16,47h-2.3l4.87-23h2.82l4.93,23H33.05Zm-.4-2.07-2.39-12-2.4,12Z"/><path class="cls-2" d="M48.75,47l-3.52-9.69H41.85V47H39.48V24H45c3.48,0,5.38,1.58,5.38,4.86v3.58c0,2.4-1,3.88-2.92,4.51l3.71,10Zm-6.9-11.8h3c2.21,0,3.16-.92,3.16-3.31V29.45c0-2.39-1-3.31-3.16-3.31h-3Z"/><path class="cls-2" d="M64.7,47,60.37,35.14l-2.6,4.47V47H55.41V24h2.36V35.83L64.21,24h2.56l-5,8.61L67.17,47Z"/><path class="cls-2" d="M71.08,47V24h2.36V47Z"/><path class="cls-2" d="M84.79,47H82.22L77.46,24h2.43l3.68,19,3.68-19h2.3Z"/><path class="cls-2" d="M99.5,47H96.94L92.18,24h2.43l3.68,19L102,24h2.3Z"/><path class="cls-2" d="M108.27,47V24h9.3v2.14h-6.93v8.14h5.91v2.11h-5.91v8.47h7V47Z"/><path class="cls-2" d="M131.22,47l-3.51-9.69h-3.38V47H122V24h5.55c3.49,0,5.39,1.58,5.39,4.86v3.58c0,2.4-1,3.88-2.92,4.51l3.71,10Zm-6.89-11.8h3c2.2,0,3.15-.92,3.15-3.31V29.45c0-2.39-.95-3.31-3.15-3.31h-3Z"/><path class="cls-2" d="M147.18,47l-4.34-11.86-2.59,4.47V47h-2.37V24h2.37V35.83L146.69,24h2.56l-5,8.61L149.65,47Z"/><path class="cls-2" d="M153.49,47V24h9.3v2.14h-6.93v8.14h5.91v2.11h-5.91v8.47h7V47Z"/><path class="cls-2" d="M177.14,26.14h-4.21V47h-2.36V26.14h-4.18V24h10.75Z"/></g></g></svg>