<?xml version="1.0" encoding="utf-8"?>
<!-- Generator: Adobe Illustrator 22.1.0, SVG Export Plug-In . SVG Version: 6.00 Build 0)  -->
<svg version="1.1" id="Layer_1" xmlns="http://www.w3.org/2000/svg" xmlns:xlink="http://www.w3.org/1999/xlink" x="0px" y="0px"
	 viewBox="0 0 448.9 435" style="enable-background:new 0 0 448.9 435;" xml:space="preserve">
<style type="text/css">
	.st0{fill:#FFFFFF;}
</style>
<g>
	<path class="st0" d="M448.9,209.9c0,5.4,0.1,9.6,0,13.7c-0.2,4.8-0.5,9.6-1.1,14.3c-0.9,5.9-2.1,11.8-3.3,17.6
		c-1,4.8-2.6,9.4-3.5,14.2c-1.4,7.4-4.3,14.2-6.8,21.2c-4,11.3-9.5,21.9-15.6,32.2c-1.2,2.1-2.3,4.2-3.6,6.2
		c-1.3,2.1-2.7,4.1-4.2,6.1c-5.9,7.9-11.8,15.8-18.5,23.1c-5.1,5.6-10.4,11-16.1,16c-7.9,7-16.3,13.3-24.9,19.4
		c-7.9,5.5-16.5,10-24.7,15.1c-5,3.2-10.7,4.6-15.6,7.7c-2.1,1.3-4.6,1.9-6.9,2.8c-4.1,1.5-8.2,3.1-12.4,4.5c-2.9,1-5.8,1.8-8.7,2.6
		c-4.2,1.2-8.4,2.5-12.7,3.4c-9,2-18,3.4-27.2,4.2c-9.4,0.8-18.8,1-28.2,0.7c-5.4-0.2-10.8-0.1-16.2-1.1c-3.7-0.7-7.6-0.8-11.4-1.2
		c-2-0.2-3.9-0.7-5.8-1c-8.5-1.4-16.9-3.4-25-6.3c-5.1-1.8-10.4-3.2-15.4-5.1c-3.7-1.3-7.2-3.1-10.7-4.7c-3-1.4-6-2.7-8.9-4.2
		c-5.1-2.6-10.2-5.4-15.2-8.2c-3.4-1.9-6.9-3.8-10.1-6.1c-6.5-4.7-13-9.5-19.2-14.6c-4.5-3.6-8.9-7.5-13-11.6
		c-4.9-4.8-9.6-9.8-14.1-15c-4.7-5.3-9.2-10.8-13.4-16.5c-5.4-7.3-9.9-15-14-23.1c-1.9-3.7-3.9-7.3-5.5-11.1
		c-2.2-5.2-4.1-10.5-6.1-15.8c-2.4-6.1-3.9-12.5-5.5-18.8c-0.8-3.1-1-6.3-1.8-9.4c-1.3-5-1.4-10.1-1.9-15.1
		c-0.6-5.1-1-10.3-1.3-15.5c-0.2-3.2,0.2-6.5,0.2-9.8c0-3.6-0.3-7.2-0.2-10.8c0.2-4.4,0.7-8.7,1.1-13.1c0.4-3.7,0.7-7.5,1.2-11.2
		c0.3-2.7,0.8-5.4,1.4-8c1.1-5.3,2.1-10.6,3.5-15.9c1.1-4.4,2.6-8.7,4.1-13c1.5-4.1,3.1-8.2,4.8-12.2c2.8-6.6,6.1-12.8,9.9-18.9
		c2.6-4.2,5-8.5,7.7-12.7c3.2-4.8,6.5-9.5,10-14c3.6-4.8,7.4-9.4,11.2-14.1c0.9-1.2,1.9-2.3,3-3.4c5.7-5.9,11-12.2,17.5-17.3
		c2.2-1.7,4.1-3.8,6.2-5.7c1.4-1.3,3-2.4,4.5-3.6c4.4-3.2,8.8-6.5,13.4-9.6c2.9-2,5.9-3.8,9-5.5c5.5-3.1,11-6.2,16.7-9
		c4.4-2.2,9.1-4,13.7-5.7c4.1-1.6,8.3-2.9,12.4-4.4c2.8-1,5.7-2.1,8.6-2.9c5.3-1.5,10.6-2.9,16-4.1c5-1.1,10-2.1,15-2.9
		c3.3-0.6,6.7-0.8,9.9-1.4c5.1-0.9,10.2-1,15.3-1c6.1-0.1,12.3-0.5,18.4-0.4c7.9,0.2,15.8,0.4,23.5,1.8c6.5,1.2,13.1,2.1,19.5,3.5
		c5.5,1.1,11.1,2.4,16.5,4.1c8.9,2.9,17.7,5.9,26.2,9.9c4.7,2.2,9.5,4.2,14.1,6.6c4.6,2.4,9,5.2,13.4,7.9c4.3,2.7,8.6,5.3,12.6,8.3
		c5.2,3.9,10.3,8,15.3,12.3c4.3,3.7,8.6,7.6,12.5,11.8c5.9,6.3,11.6,12.8,17,19.4c4.2,5.1,8.1,10.5,11.7,16
		c3.4,5.4,6.3,11.1,9.4,16.7c1.4,2.6,2.9,5.1,4.1,7.8c1.9,4.1,3.6,8.3,5.2,12.6c1.9,5.1,3.7,10.2,5.2,15.4c1.4,4.7,2.4,9.6,3.6,14.4
		c0.6,2.5,1.2,5,1.7,7.5c0.2,1.1,0.3,2.2,0.5,3.3c0.8,4.6,2,9.2,1.7,14C449.7,199.1,448.5,205.2,448.9,209.9z M248.1,214
		c1.4-0.2,2.2-1.3,2.6-2.4c1.5-3.4,2.3-6.9,2.2-10.7c-0.1-5.1-2.3-9.6-5.1-13.7c-1.2-1.8-2-3.7-2-6.2c3,0.2,4.6,2.5,6.7,3.7
		c2.1,1.3,4.1,2.7,5.4,4.9c1.3,2.1,2.6,4.2,4.1,6.6c1.3-3.2,2.8-6,2.4-9.2c-0.3-2.1-0.7-4.2-1.2-6.3c-0.1-0.5-0.4-0.9-0.7-1.3
		c-1.1-1.5-2.2-2.9-3.4-4.3c-1.6-2-3.3-3.9-4.9-5.9c-0.9-1.2-1.6-2.5-1.1-4.3c6.5-0.2,10.9,3.1,14,8.8c1.6-4.4,1.1-8.3-0.5-12
		c-1.5-3.4-4.1-5.9-7.8-7.3c-1.9-0.7-3.7-1.9-5.4-3.1c-1.1-0.7-2.1-1.7-2-3.3c2.7-1.1,6-0.7,8.8,0.9c2,1.2,4,2.2,6.3,3.6
		c-0.2-4.4,0.1-8.5-3.3-11.7c-1.7-1.6-2.9-3.6-3-6.1c0-0.9,0.1-1.8,0.1-3c-1,0.3-1.7,0.6-2.5,0.8c-2.1,0.6-4.1,0.3-6-0.6
		c-0.4-0.2-0.7-1-0.7-1.6c0-0.4,0.7-0.7,1.1-1c0.2-0.1,0.5,0,0.7-0.1c1.6-0.4,3.3-0.6,4.8-1.2c1.7-0.7,3-2,3.6-3.7
		c1-3.2,1.5-6.5,0.4-9.9c-1.3-4-4.8-6.8-9-6.3c-1.2,0.1-2.4,0.8-3.5,1.4c-0.8,0.4-1.5,0.6-1.9-0.5c0.5-1.6,1.5-2.6,3.2-2.8
		c2-0.2,4-0.2,5.9-0.2c0.5,0,1-0.1,1.4-0.2c-0.4-0.6-0.8-0.8-1.2-0.9c-2-0.4-3.9-0.7-5.9-1c-5.4-0.7-10.7-1.4-16.1-2
		c-2.3-0.2-4.6-0.1-6.9-0.1c-4.9-0.1-9.9-0.2-14.8-0.4c-1.2,0-2.1,0.4-3,1.2c-1.6,1.4-3.2,2.8-4.9,4.2c-1.1,0.9-2.2,1.7-1.8,3.3
		c0.8,0.6,1.5,1.2,2.2,1.8c-1.5,3.9-3.3,7.2-7.8,7.7c-0.3,0-0.6,0.1-0.9,0.2c-1.4,0.5-2.4,1.2-2.7,2.9c0.4,0.8,0.9,1.7,1.4,2.7
		c-0.4,0.6-0.7,1.2-1.1,1.9c-0.7,1.3-0.8,2.7,0,3.9c1.3,1.7,2.8,3.2,4.3,4.8c1.1,1.1,2.4,1.2,3.7,0.5c1.2-0.6,2.4-1.4,3.6-1.9
		c2.6-1.2,5.3-2.4,8.3-0.7c0.8,1.5,1.9,3,2.3,4.6c1,3.4,1.6,7,2.4,10.5c0.3,1.2,0.1,2.2-0.7,3.1c-1.5,1.9-3.4,2.5-6.2,1.1
		c-2.9-1.5-5.9-1.3-8.9-1.2c-0.9,0-1.9,0.1-2.5,1.3c0.9,0.4,1.7,0.7,2.5,1c1.9,0.8,3.8,1.6,5.6,2.5c1.7,1,1.9,1.6,1.3,4.2
		c-0.9-0.1-1.9,0-2.9-0.2c-1.2-0.2-2.3-0.7-3.5-0.9c-6.2-1.4-12.5-1.9-18.7,0.2c-0.7,0.2-1.4,0.6-2.5,1c3.4,1.9,4.9,4.9,6.4,7.7
		c0.7,1.3,2,2.9,0.4,4.8c-0.6-0.2-1.3-0.2-1.7-0.6c-2.6-2.3-5.8-3-9-3.6c-2.8-0.5-5.5-0.2-8.2,1c-4.2,1.7-7.3,4.8-10.8,7.4
		c-0.4,0.3-0.5,0.9-0.7,1.3c2.3,0,4.3,0.1,6.4,0c2.9-0.2,5.7,0.3,8.1,2c1.4,1,2.4,2.3,2.7,4.1c-0.5,0.1-0.9,0.4-1.2,0.3
		c-3.3-0.8-6.5-0.6-9.7,0c-3.5,0.7-7.1,1.4-10,3.7c-1.9,1.4-3.8,2.9-5.6,4.4c-4.8,3.7-6.8,8.7-7.2,14.5c0,0.5,0.2,1,0.3,1.8
		c2.9-3,6.1-4.7,9.8-5.9c3.9-1.2,7.4-1,11.5,0.9c-3.6,2.4-7,4-9.6,6.9c-2.6,3-4.7,6.1-5.6,10.5c2.2,0.2,4.3,0.8,6.2,0.5
		c4.2-0.6,8.4-1.4,11.7-4.5c0.9-0.8,1.9-1.5,3.4-0.7c-0.3,2-0.8,4-0.8,6c0,2,0.5,4.1,0.8,6.1c0.3,2-0.3,4.1,0.6,6.4
		c4.9-3,8.9-6.5,13-10.8c1.1,5.7,2.1,10.9,3.2,16.3c1.5-0.9,3.1-1.5,4.2-2.6c4.5-4.4,8.2-9.3,11.1-14.9c0.5-0.9,1-1.8,2.1-2
		c1.5,3.2,3.2,6.2,4.5,9.3c1.3,3.1,2.2,6.3,3.4,9.9c1.3-0.9,2.3-1.6,3.2-2.3c2.7-2.3,4.5-5.3,6.5-8.2c0.4-0.6,0.8-1.2,1-1.9
		c1.1-3.3,1.9-6.7,1.6-10.3c-0.1-0.6,0.2-1.3,0.4-2.4c4.4,4,8.5,7.6,11.2,13.2c1.1-2.6,2.1-4.5,2.8-6.6c1-3.1,1-6.2,1-9.4
		c-0.1-4-0.5-8-2.2-11.7c-0.3-0.7-0.4-1.6-0.7-2.8c1,0.4,1.7,0.5,2,0.8c1.3,1.5,2.8,2.9,3.8,4.6C244.7,207.3,246.2,210.5,248.1,214z
		 M290.1,289.6c3.3-0.8,6.2-1.2,8.9-2.1c2.8-1,5.3-2.4,8.2-3.7c1.9,0.6,2.1,2.5,1.9,4c-0.5,4.4-1.4,8.8-2.1,13.2
		c-0.2,1.2-0.8,2.4-1.1,3.7c-0.9,5-3.3,9.5-5.8,13.8c-1.3,2.2-3.5,3.5-6.1,3.7c-3.4,0.2-6.7,0.4-9.4-2.3c-0.1-0.1-0.1-0.1-0.2-0.1
		c-2.2-1.3-4.5-1-6.3,0.8c-0.8,0.9-1.8,1.6-2.5,2.6c-1.4,1.9-2.8,3.8-2.2,6.7c2.1-1.1,3.9-1.4,5.8-0.7c2.1,0.8,3.9,0.5,5.6-1.3
		c1.7-1.8,5.1-1,6.5,1.4c-3.2,2.5-7,4-10.8,5.4c-1.3,0.5-2.6,0.4-4,0c-3.8-1-5.8,0-7.5,3.5c-0.9,1.9-0.7,2.6,0.9,3.9
		c0.4,0.3,0.8,0.5,1.1,0.7c-0.2,3.6,0.7,4.8,3.7,4.9c0.2-0.8,0.4-1.6,0.7-2.6c3.4-0.9,4-3.9,4.7-6.7c3.9-1.6,7.5-3.2,11.2-4.7
		c0.3-0.1,0.7,0.1,1.1,0.2c0.4,2.4-0.2,4-2.4,5c-2.7,1.3-3.6,3.5-2.6,7.6c0.4,1.7,1.1,3.4,3.4,3.6c1.2-1.4,2.3-2.9,4.3-3.2
		c0.4-0.1,0.9-0.5,1.1-0.8c1.4-2.5,2.5-5,1.5-7.9c-0.2-0.6-0.5-1.3-0.4-1.8c0.6-1.6,1-3.6,2.8-4.2c2.4-0.8,4.8-1,7.3-0.1
		c0.4,0.1,0.6,0.7,0.9,1.1c0.4,0.5,0.8,1,1.2,1.5c1.1,1.7,2.9,2.1,4.6,1.6c2.9-0.9,5.3-2.5,6.9-5.1c-1-3.1-2-5.9-5.5-6.9
		c-1,0.4-2.2,0.7-3.2,1.3c-1.1,0.5-2,1.3-3,1.9c-1-0.5-2.4-0.1-2.6-1.7c1.8-2.6,3.5-5.2,5.4-7.6c0.9-1.1,2-2.2,3.3-2.7
		c4.4-1.7,7.5-4.8,9.9-8.7c0.7-1.2,1.1-2.5,1.7-4c-3-0.4-5.4,2.3-8.1,0.6c0.1-0.3,0.1-0.5,0.1-0.6c0.3-0.3,0.7-0.7,1.1-0.9
		c3.7-2.1,5.7-5.7,8-9c0.7-1,1.1-2.1,0.6-3.4c-2.5,0.2-4.7,2.2-7.4,1c0.5-2,1.8-3.3,2.9-4.8c3-3.9,6.3-7.7,8-12.4
		c0.2-0.6,0.2-1.2,0.3-1.8c-2.7-0.9-4,3-6.9,1.3c0.7-3.8,2.9-7.1,2.9-11c-1-0.9-2.1-0.7-3.2-0.5c-4.4,0.6-8.4,2.2-12.4,4.3
		c-5.6,3-11.4,3.5-16.8-0.7c-2.2-1.7-2.4-2.7-1-5c1.4-2.4,2.5-4.9,2.2-7.7c-0.3-2.2-0.5-4.4-1-6.6c-0.8-3.5-2.5-6.3-5.6-8.3
		c-0.4-0.2-0.6-0.7-1.1-1.2c0.4-0.7,0.7-1.5,1.2-1.9c3.3-2.3,6-5.3,8.2-8.6c2.3-3.4,4.7-6.9,6.2-10.8c3.9-10.3,2.2-20.2-2.6-30
		c-1.8-0.3-3.5-0.6-5.6-0.9c0.3,1,0.4,1.7,0.6,2.3c1.1,3.1,2.4,6.1,3.3,9.2c1.4,4.4,1.7,8.9,0.4,13.5c-0.4,1.6-0.9,3.2-2.3,4.3
		c-1.3-0.5-1.5-1.6-1.9-2.7c-1.1-3.6-3-6.8-5.4-9.8c-2-2.5-3.7-5.2-4.5-8.4c-1.1-4.7,1.1-8.2,4.2-11.3c0.4-0.4,1.1-0.6,1.7-0.8
		c3.9-1.3,7.7-0.6,11.2,1c5.1,2.3,10,5.1,15,7.5c2.6,1.3,5.3,2.7,8.2,3.3c6,1.2,11.9,3,18.1,1.2c0.1,0,0.2,0,0.2,0
		c4.7-0.4,8.2-2.4,10.6-6.7c1.9-3.3,2.1-6.8,1.9-10.4c0-0.5-0.5-0.9-0.7-1.2c-2.5,1.6-4.7,3.3-7.2,4.4c-4.9,2.1-9.9,3.4-15.4,2.4
		c-4.8-0.9-9.6-1.5-14.1-3.4c-6.5-2.8-12.8-5.7-19.7-7.5c-3.5-0.9-7.1-1.1-10.6,0c-4.3,1.4-7.5,4.2-8.7,8.7c-0.1,0.3-0.4,0.6-0.6,1
		c-1.2-1-1.7-2.7-1.5-4.5c0.4-2.8,1.6-5.4,3.3-7.6c1.4-1.8,3.2-2.9,5.7-3.1c5.7-0.3,11.3,0.4,16.7,2.3c0.9,0.3,1.8,0.7,2.7,1
		c4.4,1.5,8.9,2.9,13.3,4.5c5.8,2.1,11.7,2.9,17.9,2.9c6.8,0,12-3.3,16.9-7.4c0.4-0.3,0.6-0.9,0.9-1.3c-0.8-3.4-1.4-6.7-2.7-9.8
		c-0.4,0.1-0.6,0.1-0.7,0.1c-0.3,0.2-0.6,0.5-0.9,0.7c-3.5,3.2-7.7,4.7-12.3,5.6c-6.9,1.4-13.7,0-20.4-1.7
		c-5.5-1.4-10.9-3.1-16.4-4.5c-6.4-1.6-12.8-1.6-19.2-0.3c-5,1-8.4,4.3-10.5,8.7c-1.7,3.6-1.9,7.7-1.3,11.5
		c0.8,5.4,3.4,10.2,6.8,14.6c3.6,4.7,7.6,9.1,10.9,14.1c1.5,2.3,3.1,4.5,3.2,7.4c0,1.1,0.1,2.2,0.1,3.4c0.2,6.3-2.7,10.8-7.8,14.2
		c-1,0.6-2.5,1.2-3.6,0.9c-6-1.2-12.1-2.4-17.8-4.7c-3.7-1.5-7.3-3.2-10.3-6c-1.3-1.3-2.8-2.3-4.2-3.4c-1.1,0.6-1.9,1-2.7,1.5
		c-0.9-0.3-1.7-0.6-2.7-0.9c-0.3,0.8-0.5,1.5-0.7,2.1c-1.4,5.3-4,9.9-8.1,13.6c-1.5,1.4-2.4,1.2-3.1-0.7c-0.7-1.9-1.5-3.9-2.3-5.7
		c-0.4-0.9-1.1-1.6-1.9-2.9c-2.7,10.5-8.9,17.2-18.4,21.6c-0.6-0.8-1.4-1.4-1.7-2.2c-0.9-2.3-1.6-4.7-2.3-7
		c-0.7-2.2-1.1-4.4-2.9-6.1c-0.3,0.3-0.5,0.4-0.6,0.6c-2.4,3.4-4.6,6.9-7.8,9.6c-1.3,1.1-1.3,2,0.1,3.2c2.5,2.1,5.3,3.9,8.5,4.9
		c4.9,1.5,9.9,1.8,14.9,2c3.9,0.1,7.8,0,11.7,0c4.2,0,8.5-0.2,12.7,0.1c4.4,0.3,8.7,1.1,12.8,2.9c2.6,1.1,5.1,2.4,7.7,3.1
		c2.8,0.8,3.9,2.5,4.2,5.1c0.4,3.6,0.8,7.1,1.3,10.7c0.5,3,1,6.1,3.5,8.1c1.2,1,2.6,1.6,4.3,2.5c0,0,0.2,0.3,0.2,0.6
		c-0.6,3.7,1.4,6.3,3.7,8.6c1.9,1.9,4,3.5,5.7,5.5c2.2,2.6,2.6,5.6,1.2,8.7c-0.1,0.2,0,0.5,0,1c3.5-1.6,6-4,6.9-7.5
		C295.4,297,293.4,293.3,290.1,289.6z M173.5,333.5c6.3,3.2,12.5,6,19.6,7.6c0.1-1.1,0.3-2.1,0.4-3.1c0.4-2.8,4.7-5.8,7.4-5.3
		c0.2,0,0.5,0.1,0.7,0.2c3.4,1.8,7.1,2.7,11,2.9c2,0.1,3.9-0.1,5.9-1.3c-2-2-3.8-3.8-5.6-5.6c0.5-1.4,1.4-1.5,2.4-1.2
		c4.2,1,8.3,2.3,12.7,2.2c0.2,0,0.5,0.2,0.7,0.2c2,0.3,3.9-0.2,6.3-0.7c-3.1-2.6-5.1-5.6-8.9-6.2c-0.9-0.1-1.6-0.6-1.6-1.9
		c2.6-0.4,5.1,0.3,7.5,0.8c2.7,0.5,5.2,1.5,7.9,1.8c2.8,0.3,5.7,0.8,8.3-1.3c-1.8-1.3-3.4-2.7-5.3-3.8c-1.8-1-3.8-1.7-5.8-2.5
		c1.6-1.4,1.8-1.5,3-1.1c1.8,0.5,3.6,0.8,5.3,1.4c5.1,1.9,8.9-0.5,12.7-3.3c0.1-0.1,0.1-0.3,0.1-0.6c-3.6-0.9-7.1-1.9-10.1-4.3
		c0.1-1.4,1-1.6,1.9-1.5c3.1,0.2,6.2-0.3,9.2-1.1c1.5-0.4,3.1-0.7,4.4-2.3c-1.5-0.9-2.8-1.7-4.2-2.4c-0.9-0.5-1.6-1.2-1.8-2.4
		c-0.5-2.5-1.5-3.1-4.1-3.5c-2.6-0.4-5.1-1.1-7.6-1.9c-0.7-0.2-1.6-1.1-1.6-1.8c-0.2-1.9,0-3.9,0-5.5c3.8-3.1,7.8-4.4,12-5
		c2.7-0.4,5.6-0.4,8.3-0.7c0.7-0.1,1.3-0.2,2.1-0.3c-0.5-1.6-1.2-2.8-1.3-4.1c-0.1-1.6-0.9-2.6-2.1-3.5c-1.5-1.1-3.1-2.3-4.2-3.8
		c-1.6-2.1-3.6-3.6-6.1-3.9c-3.1-0.4-6.3-0.5-9.5-0.4c-5.5,0.2-11,0.9-16.3,2.1c-4.3,1-7.6,3.1-9.1,7.5c-0.2,0.7-0.6,1.3-1.1,2
		c-0.9,0.1-1.9,0.2-2.8,0.1c-2.8-0.3-5,0.8-6.7,2.9c-0.8,1-1.7,1.9-2.4,2.9c-0.7,1-1.1,2.1-1.7,3.1c-1.8,3.4-1.5,7.2-2.2,10.7
		c-0.2,0.8,0.1,1.7,0.2,2.8c4.5-2,8-4.3,10.2-8.4c0.8-1.6,0.9-1.6,2.9-0.8c0.1,3.4-0.3,7,3.4,9.4c3.8,2.4,6.8,0.6,9.8-1.4
		c1.7,0.9,3.4,1.5,4.2,3.5c-0.6,0.6-1.2,1.3-1.8,1.9c-2.7,2.3-5.3,4.6-8.1,6.7c-3.6,2.7-7.2,5.6-11.1,7.9c-6.3,3.7-13,6.4-20.1,8.3
		c-3.3,0.9-6.5,1.5-9.8,0.3c-2.2-0.8-4.2-1.8-6.4-2.5c-2-0.6-2.8-1.9-3.3-3.7c-1.1-4.3-5.5-6-9.2-3.8c-1.6,0.9-3.2,1.8-4.7,2.7
		c-1.2,0.7-2,1.7-2.6,3c3,0.7,3,0.7,6,3.1c1.6,1.2,3.2,2.4,5.3,2.3c1,0,2.1-0.1,3.1-0.2c3.2-0.4,5.9,0.7,8.4,2.4
		C177.6,332.1,175,332,173.5,333.5z M339.4,124.8c-0.2,0-0.3,0-0.4,0.1c-0.4,0.3-0.8,0.7-1.3,1.1c-2.8,2.1-5.8,4-9.4,4.3
		c-3,0.3-6-0.1-8.8-1.5c-7.3-3.5-14.5-7.1-21.7-10.6c-2.2-1.1-4.5-2.1-6.8-2.9c-6.2-2-11,0.4-13.2,6.6c-0.1,0.2-0.4,0.4-0.8,0.7
		c-0.3-0.5-0.7-0.8-0.8-1.3c-0.9-4.9,1.7-10.6,7.9-11.3c5.5-0.7,10.6,1,15.4,3.4c6,3,11.9,6.2,17.9,9.1c3.3,1.6,6.9,2.6,10.6,2.8
		c3.7,0.1,6.9-0.9,9.5-4.3c-1.3-2.3-2.6-4.6-4-6.9c-0.9,0.5-1.5,0.9-2.2,1.1c-2.3,0.9-4.6,1.7-7.2,1.4c-6.1-0.7-11.5-3.3-16.8-6.1
		c-7.1-3.9-14.5-6.6-22.2-8.6c-1-0.2-2-0.2-3.1-0.1c-2.8,0.2-4.9,1.8-6.8,3.6c-3.5,3.3-5.6,7.5-5.9,12.2c-0.4,5.1,0.8,10.1,2.8,14.9
		c1.6,3.7,3.1,7.3,4.8,11c1.7,3.6,3.5,7.1,5.3,10.8c2.1-0.3,4-0.6,6.2-0.9c-0.9-2.3-1.6-4.2-2.4-6.1c-1-2.2-0.8-4.3-0.3-6.4
		c3.9-3.4,8-3.5,12.3-1c4.8,2.8,9.6,5.6,14.5,8.4c1.9,1.1,3.9,2.2,5.9,3.1c4.2,1.6,8.4,2.8,13,3.1c6,0.4,11.8-1.4,14.7-6.7
		c0.7-1.2,0.9-2.4,0.6-3.7c-0.3-1.2-0.6-2.5-1-3.7c-0.3-0.9-0.7-1.8-1.3-3.1c-0.8,1.2-1.4,1.9-2,2.7c-1.6,2.2-3.9,3.7-6.3,4.6
		c-3.9,1.5-7.9,1.1-11.7-0.3c-4.2-1.6-8.2-3.5-12.2-5.5c-4.5-2.2-8.8-4.8-13.3-7.1c-3.6-1.9-7.5-2.6-11.6-1.7
		c-2.1,0.5-3.8,1.4-4.9,3.5c-0.4,0.7-1,1.2-1.6,1.9c-1.4-2.2-0.7-7.2,1.2-8.6c2.4-1.6,5.1-3.1,8.3-2.3c5,1.3,10.1,2.3,14.6,5.1
		c3.6,2.3,7.6,4.1,11.4,6.1c4.5,2.4,9.1,4.6,14.5,4.3c4.7-0.3,8.4-2.3,11.3-5.8c0.9-1,0.9-2.1,0.2-3.3c-0.8-1.5-1.6-3.1-2.4-4.6
		C340,125.5,339.7,125.1,339.4,124.8z M132.4,271.2c1.9-3.7,3.5-7.2,3.5-11.2c0-0.7,0.4-1.4,0.8-2.6c1.1,1.4,1.9,2.3,2.6,3.2
		c0.8,0.9,1.3,2.1,2.9,2.3c0.5-0.9,1.1-1.7,1.3-2.7c0.7-2.4,1.3-4.9,1.8-7.4c0.2-0.9,0.1-2,1.4-2.3c1.5,0.4,1.1,2.2,2,3
		c0.9,0.9,1.8,1.6,2.7,2.5c2.7-3.6,3.4-7.4,3.9-10.9c0.2-1,0.4-1.9,0.7-3.1c2.5,0.6,2.1,3.3,3.9,4.2c0.7-1.5,1-3.2,2.1-4.4
		c2-2.4,2.4-5.2,2.9-8c0.4-2.8,0.2-5.7-0.1-8.8c-5.8,1.5-11.4,2.8-17,1.8c-3.4,3.8-6.5,7.4-9.7,11c-3.8,4.3-7.6,8.6-12.3,12
		c-0.6,0.4-1,1.1-1.5,1.6c-0.7,0.7-1.5,1.5-2.3,2.1c-1.4,1.1-2.8,2.1-4.2,3.1c-3.8,2.7-4.1,2.9-7.9-0.6c-1.1-1-1.3-2-0.6-3.4
		c1.5-3,0.3-5.5-1.7-7.8c-1.9-2.1-4-1.5-6.2-0.7c-0.4,0.1-0.8,0.3-1.1,0.4c-1.3,0.4-2.5,0.9-3.8,1.3c-1.3,0.4-2.3,0.9-2.4,2.5
		c0.4,0.1,0.8,0.2,1.2,0.2c1.8,0.4,3.2,1,3.2,3.2c0,0.5,0.5,1.1,1,1.6c1.4,1.3,3,2.2,4.9,2.2c1.3,0,2.3,0.7,2.6,1.8
		c0.5,1.8,1,3.8,0.7,5.6c-0.3,2.7-3,1.7-4.7,2.3c-1.2,0.4-2.2-0.1-2.8-1.3c-0.3-0.7-0.6-1.3-0.8-2c-0.6-1.4-1.7-2-3.2-2
		c-3.6,0-7.6,2.6-7.3,7.4c0.1,1.3-0.1,2.5-0.3,3.8c-0.2,1.6,0.5,2.8,1.8,3.4c1.7-0.7,3.2-1.6,4.8-1.7c1.6-0.1,2.9-0.5,3.8-1.6
		c1.5-1.7,3.4-1.9,5.5-1.7c1.1,0.1,2.2,0.2,3.6,0.4c-0.1,0.8-0.1,1.6-0.3,2.3c-0.5,1.7-1.2,3.3-1.7,5c-0.6,1.7-1.2,2.1-3.1,1.8
		c-0.7-0.1-1.4-0.2-2.1-0.2c-2.3,0-5.3,2-5.9,4.2c-0.6,2.3-0.9,4.7,1.2,6.7c0.7,0.6,1.1,1.7,1.4,2.6c0.6,1.8,1.2,2.4,3.5,2.5
		c0.1-1.1,0.2-2.2,0.3-3.4c0.5-0.3,1-0.7,1.6-1c2.4-0.9,3.6-2.5,3.2-5.2c-0.4-2.5,0.8-4.3,2.5-5.9c0.6-0.5,1.2-1.1,1.8-1.6
		c1.9-1.7,2.7-1.5,3.8,0.6c1.3,2.4,1.5,4.7,0,7.2c-2.5,4.2-1.4,7.4,3.4,8.4c1,0.2,1.9,1.1,2.8,1.7c0.7,0.5,1.3,1,2.1,1.7
		c0.3-0.4,0.5-0.6,0.6-0.8c0.6-2.6,1.4-5.1,1.8-7.7c0.4-2.8-0.5-5.1-3.2-6.7c-2-1.2-3.6-4.8-2.9-7.2c0.9-2.9,2.3-5.5,4.8-7.3
		c2.6-1.8,6.3-0.9,7.8,1.8C131.5,270,131.9,270.5,132.4,271.2z M158.8,99.9c0.5-0.5,0.7-0.9,1.1-1.2c1.6-0.8,3.2-1.5,4.7-2.3
		c1.2-0.6,2.4-1.2,3.4-2.2c1.7-1.7,3.3-3.5,4.8-5.3c2.4-2.8,5.2-5.2,8.5-6.9c0.4-0.2,0.8-0.3,1.3-0.5c-0.2-0.2-0.3-0.4-0.5-0.7
		c-0.4,0-0.8-0.1-1.1-0.1c-4.8,1-9.5,2-14.2,3c-2.4,0.5-4.8,1.1-7.2,1.7c-1.5,0.4-3.1,0.7-4.6,1.3c-4.5,1.9-9,4-13.5,5.9
		c-4.4,1.9-8.5,4.4-12.3,7.3c-2.9,2.2-5.7,4.6-8.4,7.1c-1.6,1.5-3.2,3.1-4.2,5.3c2.7-0.5,5.2-1,7.7-1.4c1.8-0.3,3.6-0.5,5.5-0.6
		c2.3-0.1,4.7-0.2,7.1-0.1c2.7,0.1,4.6-1.6,6.8-2.6c1-0.5,1.8-1,3.1-0.5c0.8,1,1.6,2.1,2.7,3.4c-1.7,1.2-3.2,2.2-4.8,3.3
		c0.7,2.2,2,4,3.8,5.8c1.8-1,3.7-2,5.4-2.9c0.5,0.3,0.7,0.4,0.8,0.5c0.2,0.2,0.4,0.4,0.4,0.6c0.8,3,2.9,4.9,5.3,6.5
		c3.1,2.2,5.2,5.2,7,8.4c0.9,1.6,1,3.7,1.5,5.5c0.3,1.1,0.7,2.3,1,3.4c0.2,0,0.3-0.1,0.5-0.1c0.3-1.2,0.6-2.3,0.8-3.5
		c1.1-9.2-0.4-17.9-4.6-26.2c-0.9-1.9-0.7-2.7,1.2-3.6c0.7-0.3,1.4-0.8,2.2-1.2c-1.2-2.4-2.3-4.5-3.3-6.5c-2.5-0.1-3.4,2.7-5.9,2.5
		C160.1,102.1,159.5,101.1,158.8,99.9z M393.9,287.5c0.1-0.3,0.2-0.6,0.2-0.9c10.9-0.2,21.8-0.9,32.9-1.1c0.8-3.3,3.2-6,2.7-10
		c-1.7,1-3,1.8-4.4,2.7c-2.5-1.3-4.9-2.6-7.4-3.9c-7.2-3.5-14.5-7.1-21.8-10.4c-2.4-1.1-3.8-2.5-3.7-5.2c0-1.1-0.5-1.9-2-1.5
		c-1.3,4-2.7,8.1-4.1,12.2c1.4,0.7,2.2,0.3,2.9-0.7c0.6-0.8,1.3-1.5,2.1-2.3c1.4,0.5,2.7,0.8,3.8,1.4c2.1,1,4.1,2.3,6.2,3.2
		c4.9,2.2,9.9,4.3,14.9,6.5c0.7,0.3,1.4,0.6,1,1.7c-0.4,0.1-0.9,0.3-1.5,0.3c-4.4,0.2-8.8,0.4-13.1,0.5c-6.2,0.2-12.4,0.3-18.7,0.5
		c-0.4,0-0.8,0.2-1.5,0.4c0.7,0.8,1.2,1.4,1.8,1.9c2.4,2.4,4.8,4.9,7.3,7.2c4.2,3.8,8.4,7.6,12.6,11.4c0.9,0.8,2.1,1.4,2.2,3
		c-0.4,0.1-0.7,0.4-0.9,0.4c-8.6-3.3-17.2-6.7-25.6-10c-1.2-1.6,0.7-4.1-2-5.3c-2.6,4.6-5.1,9.1-7.8,13.7c0.5,0.4,1.1,0.8,1.7,1.3
		c0.8-0.8,1.5-1.4,2.2-2.1c0.8-0.8,1.8-1.2,2.8-0.9c2.5,0.8,5,1.7,7.4,2.6c1,0.4,1.8,1,2.8,1.3c3.3,1.2,6.6,2.2,9.9,3.4
		c3.8,1.4,7.6,2.9,11.4,4.4c0.7,0.3,1.3,0.9,1.8,1.2c-0.1,1.4-0.8,2.9,1.6,3.1c1.8-3,3.8-5.9,4.8-9.3
		C408.9,301.3,401.4,294.4,393.9,287.5z M161.8,170c-0.8-0.5-1.2-0.7-1.6-1c-3.5-2.5-7.4-4.4-10.6-7.4c-2.8-2.6-5.8-5-8.9-7.2
		c-2.6-1.8-4.2-3.8-5-6.9c-2-7.3-9.1-9.1-14.8-7.8c-6.3,1.4-7.9,8.3-6.8,13c0.1,0.5,0.5,0.8,1,1.6c0.9-2.2,2.4-2.7,4.4-2.7
		c2.6,0,4.6-1.1,5.6-3.6c0.1-0.2,0.3-0.4,0.4-0.5c1.4-0.3,2.3,0.2,2.2,1.5c0,1.3-0.1,2.8-0.6,3.9c-1.6,3.3-4.3,5-8.4,4.3
		c-1.1,1.6-2.3,3.3-3.6,5.3c1.1,0.3,1.8,0.5,2.4,0.6c2.6,0.5,5.2,0.9,7.7,1.7c3,0.9,5.4,2.7,6.4,5.9c0.4,1.4,0.9,2.7,1.5,4.4
		c1.1-1.7,2-3.2,3-4.7c1.7,1.1,2.4,2.6,2.8,4.1c0.4,1.6,0.5,3.2,0.7,4.9c1.5-0.6,2.1-3.5,4.7-1.8c0.6,1.4,1.4,3.1,2,4.7
		c-0.3,1.8-1.2,3.3-0.3,5.3c0.8-0.4,1.5-0.7,2.1-1.2c0.6-0.5,1.1-1.1,1.6-1.6c1,0.3,1.7,0.6,2.6,0.9c1-0.6,2.1-1.3,3.3-2
		c-0.5-0.5-0.7-0.8-1-1.1c-2.3-1.8-2.4-3.2-0.4-5.3c1.1-1.1,2.3-2.2,3.5-3.3C158.9,172.9,160.3,171.6,161.8,170z M316,75.7
		c0.2-0.2,0.5-0.3,0.7-0.5c-0.3-0.7-0.5-1.5-0.9-2.2c-0.7-1.6-0.6-2.4,0.5-3.7c4.7-5.3,9.4-10.6,14.1-16c0.5-0.6,1-1.3,2.3-0.5
		c-1.7,9.7-4.5,19.2-6.1,29.2c0.8-0.3,1.2-0.5,1.6-0.7c3.8-2.1,7.5-4.2,11.3-6.3c5.4-3,10.7-6,16.1-8.9c0.4-0.2,1-0.1,1.6-0.2
		c0.1,0.2,0.2,0.4,0.3,0.5c-0.5,0.8-0.9,1.6-1.5,2.3c-4.1,5.4-8.4,10.7-12.5,16.1c-1.5,2-3.2,3.3-5.8,3c-0.9-0.1-1.8,0.1-1.9,1.5
		c1.9,1.5,3.9,3.1,5.8,4.8c1.9,1.6,3.6,3.4,5.5,5.2c2.1-2.7-0.9-4.5-0.6-6.7c0.8-1,1.5-1.9,2.2-2.8c2.4-3.3,4.8-6.6,7.2-9.8
		c3.2-4.3,6.6-8.6,9.7-13c1-1.4,2-1.9,3.6-1.8c0.5,0,1.1,0.1,1.6,0.1c0.6-1.7,0.7-2-0.3-2.9c-1.7-1.5-3.6-3-5.5-4.3
		c-0.5-0.4-1.6-0.3-2.2,0c-2.4,1.2-4.8,2.6-7.1,3.9c-5.9,3.3-11.8,6.7-17.7,10c-0.4,0.2-1,0.1-1.9,0.2c2.1-10.3,4.2-20.3,6.3-30.5
		c-2.7-1.6-5.3-3.1-7.9-4.6c-1.5,0.9-1.3,2-0.7,3.2c0.7,1.4,0.6,2.8-0.5,4c-1.2,1.3-2.3,2.6-3.5,3.9c-2.2,2.5-4.5,5-6.7,7.5
		c-3.5,3.8-7.1,7.6-10.4,11.6c-1.5,1.7-3,2.5-5.2,2.2c-0.4-0.1-0.8,0.1-1.2,0.2c0,0.2-0.1,0.3-0.1,0.5C309.7,72,312.9,73.9,316,75.7
		z M169.2,417.7c5.8,0.5,11.2-1.6,15.4-6.3c3.8-4.2,5.7-9.4,6-15c0.1-2.4-0.4-4.7-1.5-6.9c-1.9-4-4.5-7.2-8.2-9.7
		c-4.3-2.9-8.8-4.8-14-4.7c-1.7,0-3.3,0.2-5,0.5c-6.7,1-11.8,4.2-14.6,10.6c-0.5,1.2-0.9,2.5-1.3,3.8c-1.6,4.6-2.1,9.3-0.3,14
		c1.1,3.1,2.7,5.7,5.4,7.7C156.2,415.6,162,418,169.2,417.7z M54.3,196.4c-0.3-0.1-0.6-0.2-0.8-0.3c-0.4,0.6-0.9,1.2-1.1,1.9
		c-0.7,2.3-2.2,3.9-4.4,4.8c-2.4,1-4.9,2-7.4,2.8c-2,0.6-3.5,1.6-4.4,3.4c-0.4,0.9-0.9,1.5-2.3,1c-0.1-0.7-0.3-1.5-0.4-2.4
		c-0.5-4.3-4.7-8.2-9.1-8.4c-0.7,0-1.4,0-2.2-0.1c-5-0.7-9.5,2.6-11.6,6.4c-0.7,1.3-1.5,2.8-1.5,4.2c0,7.5,0.3,15,0.5,22.5
		c0,0.5,0.3,0.9,0.6,1.9c0.8-1.4,1.3-2.4,1.8-3.3c1-1.8,2.2-2.8,4.6-2.6c3.9,0.3,7.8,0,11.7-0.1c6.1-0.2,12.3-0.4,18.4-0.7
		c1.4-0.1,2.4,0.4,3.2,1.6c0.7,1.2,1.7,2.3,2.7,3.6c0.7-2.6,0.5-15.1-0.2-16.6c-2,0.5-2,2.8-3.1,3.9c-2.7,0.6-11.9,0.5-13.7-0.2
		c-0.2-1-0.4-2.1-0.5-3.2c0-1.1,0.4-2,1.5-2.5c0.9-0.4,1.7-0.9,2.6-1.2c3.4-1.2,6.9-2.4,10.4-3.6c1.2-0.4,2.3-1.1,3.3-1.5
		C53.4,203.7,53.9,200.1,54.3,196.4z M242.7,28.9c0.6-0.5,0.8-0.8,1.1-1c2.7-2.3,5.4-4.6,8.2-7c1.6-1.4,3.3-2.7,4.9-4.2
		c2.1-1.8,4.4-2.9,7.1-2.8c0.8,0,1.6-0.1,1.6-1.4c-0.2-0.1-0.5-0.4-0.8-0.4c-3.9-0.6-7.9-1.3-11.8-1.8c-0.5-0.1-1,0.6-1.5,0.8
		c0.8,1.5,1.4,2.6,1.9,3.7c-0.5,0.6-0.8,1-1.1,1.4c-2.7,2.5-5.3,5-8,7.5c-3.3,3-6.7,5.9-10.1,8.8c-0.4,0.3-0.9,0.4-1.6,0.6
		c-0.1-0.7-0.3-1.2-0.2-1.6c0.9-4.9,1.4-9.8,1.1-14.8c-0.1-2.8,0.7-4.4,3.3-5.2c0.4-0.1,0.8-0.3,1-0.6c0.3-0.4,0.3-0.9,0.6-1.5
		c-5.8-0.8-11.3-0.8-16.8-0.1c-0.1,0.3-0.3,0.4-0.3,0.6c0,0.2,0.1,0.5,0.1,0.7c0.2,0.1,0.3,0.2,0.4,0.3c3.3,0.8,3.7,1.1,3.6,4.5
		c-0.1,3-0.3,6-0.4,9.1c0,0.6,0,1.1-0.1,1.7c-0.3,4.3-0.6,8.6-0.8,12.9c-0.1,3,0,6,0,9.1c-1.2,2-4.2,0.5-5,2.9
		c0.5,0.2,0.8,0.5,1.2,0.5c5.1-0.1,10.2-0.2,15.3-0.2c0-0.6,0.2-1.1,0.1-1.1c-1.3-0.7-2.6-1.4-4.3-2.3c0.2-2.8,0.4-5.8,0.5-8.8
		c0.1-2.8,1.9-3.8,4.2-4.7c0.6,0.6,1.3,1,1.8,1.6c2.5,3.5,4.9,7.1,7.4,10.6c0.7,1,1,2,0.3,3.1c-0.6,1.1-2.6,0.6-2.8,2.3
		c5.7,0.9,11.3,1.8,16.8,2.7c0.8,0.1,1.7,0.2,1.9-1.2c-0.5-0.4-1.1-1-1.8-1.3c-1.6-0.8-2.8-2.1-3.7-3.6c-0.3-0.6-0.7-1-1.1-1.6
		C251.2,41,247,35,242.7,28.9z M303.4,407.8c2.8-0.5,5.7-0.6,8.4-1.5c6.7-2.3,12-6.5,15.4-12.8c1.9-3.4,2.8-6.9,1.8-10.8
		c-0.8-3.3-2.2-6.3-4-9.1c-2.8-4.3-6.5-7.1-11.6-8.2c-3.6-0.8-7.1-0.7-10.7,0c-2.4,0.4-4.7,0.9-6.7,2.3c-1.1,0.8-2.1,1.7-3.3,2.4
		c-2.9,1.6-4.9,4.1-6.6,6.8c-1,1.5-2,3.2-2.4,4.9c-0.7,3.6-0.6,7.3,0.8,10.8c0.7,1.9,1.4,3.8,2.3,5.5c1.7,3,4,5.6,6.9,7.4
		C296.8,407.3,300,407.5,303.4,407.8z M58.3,301c-0.9,2.5-1.9,5-2.8,7.5c-0.5,1.4-1.1,2.8-1.6,4.2c-0.9,2.7-1.6,5.5-2.6,8.2
		c-1.6,4.6-3.2,9.2-4.9,13.7c-0.4,1-0.4,2,0.4,2.9c2,2.6,4,5.2,6,7.8c0.3,0.4,1,0.5,1.5,0.8c0.2-0.1,0.4-0.3,0.5-0.4
		c-0.2-1-0.4-2.1-0.7-3.1c-0.4-1.6-0.1-2.2,1.2-3c2.6-1.5,5.3-2.9,7.9-4.4c6.5-3.8,13-7.7,19.5-11.6c2-1.2,3.5-1.2,5.5,0.3
		c0.6,0.4,1.3,0.8,1.9,1.2c0.8-1.1,0.4-1.7-0.2-2.4c-2-2.5-4-5-6-7.4c-0.4-0.4-0.9-0.7-1.4-1.1c-0.3,1.1-0.3,1.9-0.1,2.7
		c0.3,1.5-0.1,2.7-1.5,3.4c-0.5,0.3-0.9,0.6-1.4,0.9c-4.4,2.6-8.8,5.1-13.3,7.6c-3,1.7-5.9,3.5-8.8,5.2c-0.8,0.5-1.6,1.2-2.9,0.2
		c0.2-0.8,0.3-1.7,0.6-2.5c0.2-0.6,0.6-1.1,0.8-1.7c2.1-6.1,4.1-12.2,6.2-18.4c2.1-6.1,4.2-12.2,6.2-18.3c0.4-1.1,1-2.4-0.4-3.8
		c-1.6,0.9-3.2,1.9-4.9,2.7c-4.1,2-8.2,3.9-12.2,5.9c-5,2.5-9.9,5.1-14.8,7.8c-2,1.1-3.8,0.8-5.6-0.3c-0.6-0.4-1.1-0.9-1.7-1.3
		c-0.2-0.1-0.4-0.2-0.7-0.4c-0.3,0.3-0.7,0.6-1.1,1c2.2,4.1,4.3,8.1,6.8,12.7c0.5-0.9,1-1.3,1.1-1.8c0.2-0.8,0.1-1.6,0.2-2.4
		c0.1-1.8,1-3.1,2.7-4c6-3,11.9-6.1,17.9-9.2C56.4,300,57.2,299.8,58.3,301z M169.4,49.5c-0.1-6.9-2.5-11.8-6.2-16
		c-2.3-2.5-4.9-4.9-8.2-6c-6.1-2.1-12.1-1.7-17.8,1.1c-2.3,1.1-4.5,2.5-6.5,4c-6.8,5.4-8.7,13.5-6.7,21.3c1.1,4.4,3.9,7.8,7.3,10.7
		c4.5,4,9.7,5.4,15.6,4.4c1.1-0.2,2.2-0.5,3.2-0.8c5.4-1.8,10.8-3.5,14.7-8C167.8,56.8,169.2,52.9,169.4,49.5z M85.2,120.5
		c-0.8,0-1.1-0.1-1.3,0c-1.9,1.2-3.9,1.7-6.1,2c-2.9,0.4-5.8,1-8.7,1.6c-5.5,1.1-10.9,2.2-16.7,3.3c-0.6-1.1-1.1-1.9-1.5-2.8
		c-0.7-2.2-1.3-4.4-2-6.6c-1.2-3.5-2.5-6.9-2.8-10.6c-0.1-1.3-0.2-2.6-0.3-3.9c-0.2,0-0.4-0.1-0.6-0.1c-2.5,3.6-5.1,7-7.3,10.9
		c1.9,0.9,2.7-1,4.3-0.9c1.8,0.3,2.1,2,2.6,3.5c1.9,5.5,3.7,11,5.5,16.5c0.2,0.5,0,1.2,0,2.2c-5.8-2.2-11-4.7-15.7-7.5
		c-0.7-1.9,0.8-4.2-2.2-4.6c-1.3,2.4-2.7,4.6-3.7,7c-1,2.3-2.7,4.3-3.2,6.8c0.1,0.1,0.3,0.2,0.4,0.3c1.3-0.9,2.6-1.9,4-2.9
		c5.8,2.7,11.5,5.3,17.1,7.8c5.6,2.5,11.4,4.8,17.1,7.4c0,1.7,0,3,0,4.4c0.2,0.1,0.4,0.1,0.6,0.2c1.5-1.8,1.9-4.2,3-6.2
		c1.1-2.1,2.3-4.3,3.6-6.8c-1.5,0.6-2.4,1-3.4,1.2c-0.7,0.2-1.7,0.3-2.3,0c-3.3-1.5-6.5-3.1-10-4.8c0-1.3-1.6-2.5-0.7-4.5
		c1.6-0.2,3.3-0.5,5-0.8c3.5-0.7,7-1.4,10.6-2.1c1.1-0.2,2.3-0.7,3.4,0.1c0.4,1,0.8,2,1.4,3.5C78.9,129.5,81.9,125.2,85.2,120.5z
		 M35.5,287.7c4.2,0.3,8-1,11.8-2.6c3-1.3,5.4-3.2,7.2-6c1.9-2.9,3.2-6,3.8-9.5c0.9-5.7,0.1-11.1-2.7-16.2c-2-3.5-4.8-6.4-8.1-8.6
		c-1.4-0.9-2.9-1.9-4.5-2.1c-4.5-0.6-9.1-0.6-13.4,1c-1.7,0.7-3.2,1.8-4.9,2.5c-6.8,3.1-9.5,9.1-10.5,15.8
		c-0.8,5.4,0.1,10.8,3.5,15.7C22,284.2,27.8,287.6,35.5,287.7z M211.6,98c15.8-0.6,31.3,0.8,46.9,3.4c1.1-7.8,5.7-13.8,8.8-20.5
		c-2.6-0.7-3.5-0.4-4.6,1.7c-0.5,1-1,2.1-1.4,2.9c-2,0.3-2.3-1.5-3.3-2c-2.5,0-3.5,1.8-4.4,3.6c-1.1,1.9-0.3,3.2,2,3.4
		c0.8,0.1,1.7,0.2,2.3,0.2c0.7,1.2,0.4,2.1-0.3,2.6c-1,0.6-2.1,1.2-3.2,1.5c-3.1,0.8-6.1,0.4-9.2,0c-2.7-0.4-4.5-1.8-6.4-3.5
		c-1-0.9-1.2-2-0.2-3.3c1.1,0.6,2.3,1.3,3.4,1.9c2-0.8,3.2-2,3.7-3.6c0.5-1.4,0.1-3-0.9-3.7c-1.3-0.9-2.4-0.5-3.5,0.3
		c-0.3,0.2-0.5,0.5-0.7,0.6c-0.5,0.1-1.1,0-1.6-0.1c0-0.5-0.1-0.7,0-0.8c0.3-0.6,0.7-1.3,1-1.9c1-1.9,0.6-4-0.9-5.1
		c-1.7-1.2-3.9-1.2-5.6,0.1c-1.5,1.2-1.8,2.9-0.9,5c0.4,0.9,0.7,1.8-0.4,2.8c-0.7-0.5-1.4-0.9-2.1-1.4c-1-0.8-2.1-0.9-3,0
		c-0.8,0.8-1.4,1.7-1.8,2.7c-0.6,1.6-0.2,2.6,1.5,3.2c0.8,0.3,1.7,0.2,2.5,0c1-0.2,1.9-0.6,2.8-0.9c1.4,1.9,1.2,3-0.5,4.4
		c-4.6,4-13.8,2.4-17.5-1.9c-0.2-0.3-0.2-0.7-0.4-1.3c0.7-0.1,1.2-0.2,1.7-0.3c0.5,0,1.1,0.1,1.5,0.2c2-3.2,1.1-6.6-2-7.6
		c-0.8,0.4-1.6,0.7-2.6,1.2c-0.4-1.4-0.6-2.8-1.3-3.8c-0.8-1.3-2.2-1.5-3.9-0.7C211.2,83.3,210.5,90.5,211.6,98z M304.1,41.3
		c-1-1.1-1.6-0.5-2.3,0c-1.5,1.1-3,1.2-4.7,0.5c-1.7-0.8-3.6-1.2-5.4-1.8c-1.2-0.4-2.3-0.9-3.8-1.5c1.9-5.1,3.7-10,5.6-15.1
		c1.3,0.4,2.4,0.8,3.4,1.1c3.2,1,6.4,2,9.5,3.1c2.3,0.8,2.9,1.6,2.8,4.1c0,1.1-0.1,2.2,0.1,3.3c0.1,0.5,0.5,0.9,1,1.7
		c2.3-3.1,3-6.4,4.5-9.8c-10.9-3.5-21.4-7.6-32.4-10.7c-0.2,0.5-0.4,0.9-0.7,1.5c0.5,0.3,0.9,0.7,1.3,1c2.1,1.7,2.2,2.3,1.4,4.7
		c-1.3,3.7-2.7,7.3-3.9,11c-2,5.7-3.9,11.3-5.8,17c-0.6,1.8-1.4,3.2-3.7,3c-1.1-0.1-1.8,0.5-1.4,2.1c9.6,2.3,19.1,5.7,28.3,9.8
		c2.8-2.3,4.7-5.1,6.2-8.3c-1,0.2-1.9,0.6-2.6,1.1c-2.5,1.7-5.3,2-8,1.2c-3.8-1.2-7.5-2.7-11.3-4.1c-0.1-0.4-0.3-0.8-0.2-1.1
		c1.7-4.5,3.5-9,5.2-13.6c0.6,0.1,1,0.2,1.5,0.3c2.3,0.8,4.6,1.8,7,2.5c2,0.6,2.8,1.9,3.1,3.8c0.1,0.7,0.2,1.4,0.3,2.6
		c0.8-0.5,1.6-0.7,1.9-1.2C301.9,46.8,303,44.1,304.1,41.3z M97.9,168.2c-0.8,2-1.5,3.5-2,5.1c-1.8,5.6-3.4,11.3-4.6,17.1
		c-1.3,6.4-1.9,12.8-1.9,19.2c0,5.3,0.4,10.5,0.4,15.8c0.1,4.6,1,9.2,1.6,13.7c0.1,1,0.3,2,0.6,3.1c2-1,3.8-1.9,5.6-2.7
		c1.3-0.5,1.9-1.4,1.8-2.7c-0.2-2-0.5-4.1-0.8-6.1c-0.4-3.2-1-6.3-1.1-9.5c-0.2-10.2,0-20.4,2.2-30.5c1.1-5.2,2.4-10.4,4.3-15.4
		c0.9-2.3,1.8-4.6,2.7-6.8C103.8,168.5,100.9,168.3,97.9,168.2z M439.6,214.3c-0.9,1-1.6,1.6-2,2.4c-1,1.9-1.7,2.3-3.7,2.1
		c-4.1-0.4-8.2-1-12.4-1.2c-5.1-0.2-10.2-0.2-15.2-0.1c-5.1,0.1-9.5,3.9-10.5,8.9c-0.4,1.9-0.4,3.8-0.8,5.6
		c-0.6,2.6-0.8,5.3-0.3,7.8c0.4,2.5,0.7,5.2,2.8,7c2.2,2,4.5,3.8,7.6,4.2c1.8,0.2,3.6,0.7,5.4,0.9c6.2,0.7,12.3,1.3,18.5,1.9
		c2,0.2,3.3,1,3.7,3.1c0.2,1,0.9,1.6,2.3,1.5c0.7-3.6,1.5-7.2,2.2-10.8c-1.4-1.1-2.1-0.2-2.7,0.6c-1.3,1.7-2.7,2.3-5,1.9
		c-4.7-0.8-9.4-1.3-14.2-1.9c-4.4-0.6-8.8-1.2-12.4-1.7c-2.9-1.9-3.9-4-4.3-6.6c-0.4-2.5-0.1-4.7,0.2-7.1c0.6-4.8,5-8.9,9.6-8.6
		c4.2,0.3,8.4,0.5,12.7,0.7c3.2,0.2,6.4,0.4,9.5,0.6c1.8,0.1,3.6,0.2,5.4,0.4c1.4,1.2,0.5,4.1,3,4.3
		C440.1,227.5,440.5,217.5,439.6,214.3z M432.3,177.7c0.3,0.8,0.5,1.5,0.7,2.2c0.3,1.9,0.6,3.8,0.9,5.7c0.2,1,0.3,2.1,0.5,3.1
		c0.4,2.3-0.6,3.9-2.3,5.1c-0.6,0.4-1.3,0.6-1.9,1c-0.8,0.5-1.9,1-1.1,2.7c3.3-0.6,6.6-1.2,10-1.9c-0.4-2.8-0.8-5.2-1.1-7.6
		c-0.9-5.7-1.7-11.3-2.7-17c-0.3-1.5-0.9-3-1.3-4.5c-2,0.7-1.5,2.7-2.2,3.5c-4.2,1-8.1,1.9-12,2.8c-0.2,0-0.3,0.1-0.5,0.1
		c-2.8,0.3-5.7,0.6-8.5,1c-4.1,0.5-8.2,1.1-12.3,1.7c-2.5,0.4-4.8-0.1-6.5-2.1c-0.1-0.1-0.4-0.1-1-0.2c-0.1,3.2,1.2,6.1,1.6,9.1
		c0.5,3.1,1,6.3,1.5,9.4c0.5,3.1,0.9,6.1,1.3,9.3c2.9,1,5.9,0.4,8.8,0.4c0.4,0,0.7-0.3,1.1-0.4c-0.1-0.2-0.2-0.5-0.3-0.7
		c-1.4-0.7-2.8-1.4-4.3-2c-1.5-0.6-2.1-1.6-2.3-3.1c-0.4-2.9-0.9-5.8-1.3-8.7c-0.1-1,0-2,0-3.1c0.6-0.2,1-0.5,1.4-0.6
		c4.2-0.8,8.5-1.5,12.7-2.2c1.5-0.2,2,0.2,2.2,1.7c0.2,1.8,0.4,3.6,0.7,5.4c0.4,2.1,0.4,2.3-1.5,3.4c-1,0.5-2.2,0.8-3,2.5
		c5.1-0.7,9.6-1.4,14.3-2c-0.5-1.4-1.4-1.1-2.1-1.3c-1.3-0.5-2.9-0.6-3.4-2c-0.9-2.7-1.6-5.5-1-8.6
		C422.3,179.1,427.2,178.4,432.3,177.7z M213.3,397.7c-0.6-0.9-1-1.4-1.2-2c-1.1-4.3-0.8-7.7,4-8.4c2-0.3,4-0.4,5.9-0.4
		c2.9,0,5.4,1,7.2,3.6c0.8,1.2,1.7,2.5,3.7,3c0.5-2.1,0.6-4.1,0-6.1c-0.1-0.3-0.5-0.7-0.8-0.9c-2-1-3.9-2.2-6-2.9
		c-3.2-1.1-6.6-0.6-10-0.5c-4,0.1-7.1,2.2-9.6,4.8c-4,4.2-2.5,12.1,2.6,15.2c3.4,2.1,7.2,2.3,11,2.9c3.2,0.5,5.7,1.6,7.5,4.6
		c2,3.4,0,9-4,10.2c-3.8,1.2-7.5,1.6-11.2-0.2c-0.5-0.2-1-0.5-1.6-0.5c-2-0.3-3.3-1.6-4.2-3.3c-0.6-1.1-1-2.3-1.5-3.5
		c-0.3-0.7-0.2-1.6-1.5-1.9c-0.4,3.1-0.9,6-1.1,9c0,0.7,0.9,1.8,1.7,2.1c2.2,0.9,4.5,1.6,6.8,2.1c2.9,0.6,5.8,1.1,8.7,0.9
		c2.4-0.2,4.9,0,7.3-0.8c3.7-1.3,5.9-4.1,6.9-7.7c0.6-2.1,0.5-4.4,0.5-6.7c0-2.8-1.2-5.4-3.4-7.1c-3.1-2.4-6.6-4.1-10.7-4.4
		C218,398.7,215.5,398.1,213.3,397.7z M384.1,80.2c-0.8,0.7-1.5,1.3-2.3,1.9c-1.8,1.4-3.6,2.8-5.5,4.2c-4.3,3.1-8.5,6.4-13,9.4
		c-3.4,2.2-5,5.5-5.4,9.2c-0.2,2.1,0.7,4.4,1.6,6.4c1.9,3.9,4.2,7.7,7.2,11c1.4,1.6,3.2,2.8,5.3,3.1c4.9,0.8,9.3-0.3,13.4-3
		c3.1-2.1,6.2-4.2,9.3-6.2c3.4-2.2,6.8-4.4,10.6-6.7c1.5,0.3,3.3,0.6,5.2,0.9c0.1-0.1,0.2-0.3,0.3-0.4c-2-3-4-6-6.1-9.3
		c-0.6,0.1-1.3,0.2-2.1,0.3c0.1,1.1,0.1,1.9,0.2,2.7c0.1,1.8-0.6,3-2.1,4c-5.1,3.4-10.1,6.9-15.2,10.4c-2.6,1.7-5.2,3.4-8.5,3.7
		c-3.1,0.3-6.1-0.2-8.1-2.6c-1.8-2-3.1-4.5-4.1-6.9c-0.7-1.7-0.9-3.8-0.5-5.6c0.6-2.5,2.6-4.4,4.6-5.9c5.6-4.4,11.5-8.6,17.2-13
		c1.7-1.3,3.3-2.1,5.4-0.8c0.7,0.5,1.5,0.9,2.4,0.2C393,85,385.1,76.6,383,75.6C383.4,77.2,383.7,78.5,384.1,80.2z M31.2,154.6
		c-2.7-0.6-5.1-1.2-7.4-1.7c-4.1,1.9-6.3,5.1-7.5,9.1c-0.7,2.1-1.3,4.1-1.6,6.3c-0.2,1.7-0.3,3.6,0.3,5.2c1.2,3.7,4.4,5.9,7.7,7
		c4.8,1.7,9.6,0.9,13.3-2.8c2.1-2.1,4-4.6,5.7-7.1c1.6-2.4,3.6-4,6.3-4.9c2.1-0.8,4.1,0.1,5.3,2c1.1,1.9,1.3,4,0.9,6
		c-0.5,2.3-1,4.6-2,6.6c-1.1,2.1-3,3.7-5.5,4.3c-0.9,0.2-1.8,0.5-2.6,0.7c0,0.2,0,0.4,0,0.6c2.3,0.5,4.7,1.1,7,1.6
		c2.8-1.5,4.5-3.7,5.4-6.7c0.7-2.5,1.7-4.8,2.3-7.3c0.5-1.8,1-3.7,0.3-5.6c-2.8-7.8-11.2-10.8-18.1-7.1c-1.4,0.7-2.8,1.6-3.8,2.8
		c-1.5,1.6-2.5,3.5-3.9,5.2c-1.3,1.6-2.6,3.3-4.1,4.7c-2.6,2.4-5.9,2.1-8-0.5c-4-4.9-1.7-13.9,4.3-15.2c1.4-0.3,2.8-0.5,4.2-0.7
		c0.3-0.1,0.6-0.1,1.1-0.3C30.8,156.1,30.9,155.5,31.2,154.6z M426.5,151.3c0.6-3,1-5.8,0.2-8.6c-0.6-2.2-1.5-4.3-2.2-6.5
		c-1.2-3.4-3.5-5.6-6.9-6.7c-1.1-0.3-2.2-0.5-3.3-0.8c-3.9-0.8-8.1,1-10.5,4.1c-3.3,4.4-3.3,9.4-2.7,14.4c0.3,2.3-0.2,4.3-1.2,6.2
		c-2.1,4.3-6.4,5-9.9,1.7c-2.4-2.2-3.4-5.1-3.7-8.3c-0.3-3.1,0.3-5.9,3-7.8c0.4-0.3,0.8-0.6,0.9-1.1c0.2-0.5,0.2-1.1,0.4-2.3
		c-2.8,1.2-5,2.1-7.2,3.1c-0.3,0.1-0.6,0.6-0.7,0.9c-0.9,2.9-1.7,5.9-0.6,8.9c1.2,3,2.2,6.2,3.9,9c1.6,2.6,4,4.3,7.3,4.7
		c3.8,0.5,7.3-0.4,10.6-2.2c1.3-0.7,2.6-1.8,3.1-3.1c0.9-2.2,1.6-4.6,1.7-6.9c0.1-3.5-0.2-7-0.6-10.5c-0.2-2.4,1.1-4.1,2.2-5.9
		c0.2-0.4,0.9-0.6,1.5-0.7c0.9-0.1,1.8-0.1,2.6-0.2c2.8-0.1,4.7,1.1,5.7,3.8c0.3,0.7,0.6,1.5,0.9,2.2c1.8,4.9,1.4,9.9-2.8,13.1
		c0.3,0.6,0.7,1.3,1.1,2.1C421.9,153.1,424.1,152.2,426.5,151.3z M201.2,353.6c0.5,0.1,1.2,0.3,1.8,0.5c6.3,1.8,12.9,2.3,19.4,2.5
		c7.8,0.2,15.6,0,23.4-0.7c6.6-0.6,13.2-2,19.8-3.1c1.2-0.2,2.3-0.7,3.3-1.1c-1.5-2.3-2.8-4.3-4.2-6.3c-3.6,0.6-7.2,1.3-10.9,2
		c-8.5,1.7-17.1,2.1-25.7,2.2c-4,0-8,0-11.9-0.2c-2.1-0.1-4.1-0.3-6.2-0.6c-2.7-0.4-5.5-1.1-8.2-1.6c-0.5-0.1-1,0.1-1.5,0.2
		C200.7,349.5,200.9,351.4,201.2,353.6z M79.3,65.2c0.1,0.2,0.2,0.4,0.3,0.5c0.7,0,1.3,0,2-0.1c2.9-0.8,5,0.2,6.9,2.6
		c3,3.8,6.2,7.5,9.4,11.2c3,3.6,6.1,7.2,9.2,10.8c0.5,0.5,0.8,1.2,1.3,1.9c-0.5,1.5-1,3.1-1.5,4.6c0.1,0.1,0.3,0.2,0.4,0.3
		c3.9-3.3,7.8-6.6,11.6-9.9c0-0.2-0.1-0.3-0.1-0.5c-0.8,0-1.6-0.1-2.4,0c-2.1,0.4-3.7,0-5-1.9c-1.1-1.7-2.6-3-3.8-4.6
		c-1.2-1.8-3.3-3-4-5.7c1.7-1.2,3.4-2.4,5.2-3.5c1.9-1.2,4.1,0.3,6.6-0.2c-2.4-3-4.5-5.6-6.5-8.2c-1.3,0.5-1.1,1.6-1.2,2.5
		c-0.2,1.1-0.4,2.3-1,3.1c-0.9,1.2-2.2,2.1-3.4,3c-1.8,1.3-2.6,1-4-0.7c-2.3-2.9-4.7-5.9-7-8.8c-0.4-0.5-0.7-1.2-1.1-2
		c2.9-2.1,5.6-4,8.4-6c2.3,0.6,4.6,1.2,6.9,1.7c0.5,0.1,1-0.2,1.8-0.5c-2.3-2.6-4.3-4.8-6.2-6.8c-6.8,5-13.4,9.8-19.9,14.7
		C81.1,63.2,80.2,64.2,79.3,65.2z M263.7,418.2c-0.3-1-0.6-1.7-0.8-2.5c-0.6-3-1.2-5.9-1.8-8.9c-0.9-4.9-1.8-9.7-2.7-14.6
		c-0.5-2.4-1.1-4.8-1.7-7.2c-0.3-1.3,0.2-2.3,1.2-3.2c0.5-0.4,0.9-0.9,1.4-1.5c-0.6-0.2-0.8-0.4-1-0.4c-3.7,0.6-7.4,1.1-11.1,1.7
		c-0.5,0.1-1,0.3-1.5,0.4c0,0.3,0,0.3,0.1,0.4c0.2,0.2,0.3,0.4,0.5,0.5c2.6,1.1,3.3,3.2,3.3,5.8c0,1.2,0.3,2.4,0.6,3.5
		c0.9,4.5,1.9,9,2.7,13.6c0.6,3.4,0.9,6.8,1.7,10.1c0.6,2.5,0,4.4-2.2,5.7c-0.6,0.4-1.5,0.7-1,1.9c0.3,0,0.7,0.2,1.1,0.1
		c9.4-1.9,18.9-3.8,28.3-5.8c0.4-0.1,0.7-0.3,1.1-0.5c-0.1-1.7,0-3.4-0.3-5.1c-0.3-1.5,0.6-3.3-1.1-4.8c-0.5,1.3-1.2,2.5-1.4,3.6
		c-0.5,2.7-2.2,3.9-4.6,4.5c-2.8,0.7-5.5,1.5-8.3,2.2C265.4,418.2,264.7,418.1,263.7,418.2z M168.5,272.5c-1.1,0.8-1.9,1.2-2.6,1.7
		c-3.2,2.1-5.2,4.9-4.6,8.9c0.2,1.1,0.8,2.2,1.2,3.3c1.6,4.6,5.7,6.1,9.7,6.7c4.4,0.6,8.7-0.6,12-4c1.9-2,3.6-4.1,3.5-7.1
		c-0.1-4-1.6-7.2-5.2-9.3c-0.6-0.4-1.1-1-1.8-1.6c0.6-0.8,1-1.3,1.4-1.9c3.9-5.3,0.5-11.8-4.3-13.1c-4.7-1.3-8.9-0.3-12.5,3.2
		c-4.2,4-2.4,9.1,0.8,11.3C166.8,271.1,167.5,271.7,168.5,272.5z M191.3,13.7c-0.6-1.4-1.4-1.7-2.6-1.4c-4.2,0.9-8.4,1.8-12.6,2.7
		c-0.5,0.1-0.9,0.6-1.9,1.2c1.3,0.5,2,0.9,2.7,1c2.1,0.4,3.2,1.5,3.1,3.8c0,0.5,0.2,1.1,0.3,1.6c0.9,4.1,1.7,8.3,2.6,12.4
		c1.1,4.9,2.2,9.8,3.4,14.7c0.6,2.3,0.2,3.3-1.9,4.5c-0.8,0.5-2,0.7-2.3,2.4c3.7-0.2,7-1.6,10.4-2.1c3.4-0.5,6.8-1,10.2-1.5
		c3.4-0.5,6.9-1,10.4-1.6c0.1-3.2,1.3-6,0.5-9.1c-1.1,1-2,2.1-2.8,3.2c-1.2,1.6-2.7,2.6-4.7,2.9c-3.9,0.6-7.8,1.4-11.8,2.1
		c-0.2,0-0.5-0.1-0.9-0.2c-0.6-2.1-1.3-4.3-1.7-6.6c-1-5.1-1.7-10.2-2.7-15.3c-0.6-3.3-1.4-6.5-2.1-9.8c-0.4-1.7,0.3-3.2,2.1-4.1
		C189.7,14.5,190.5,14.1,191.3,13.7z M125.5,302.1c-0.4,0-0.8-0.1-1,0c-2.1,1.4-3.4,0.4-4.9-1.1c-1.7-1.7-3.7-3.3-6.7-2.8
		c0.2,0.4,0.3,0.8,0.5,1.1c2.6,3.1,5.2,6.2,7.7,9.4c5.5,6.9,11.8,13.2,18.7,18.7c2.9,2.4,6.1,4.5,9.2,6.7c0.4,0.3,1,0.4,1.6,0.6
		c1.6-1.9,4.3-2.5,5.3-5.1C144.1,322.1,134.1,312.9,125.5,302.1z M323.6,249.6c0.2,0,0.4,0.1,0.6,0.1c0.2-0.2,0.4-0.3,0.4-0.5
		c0.5-3.1,2.4-5.1,4.8-6.9c1.6-1.2,3.4-2.3,4.7-3.7c3.9-4.4,6.5-9.3,6.4-15.5c-0.1-5.1-2.2-8.7-6-11.8c-3.6-2.9-10.1-2.3-13.6-0.4
		c-4.7,2.7-6.4,6.9-5.9,12.3c0.5,6.2,7.7,11.8,13.9,8.5c1.8-0.9,2.6-2.4,3.1-4.2c-0.6,0.2-1,0.5-1.4,0.9c-4.2,3-8.9,1.5-10.6-3.3
		c-1.4-4.1-0.2-8.6,3.3-11.6c2.4-2.1,5.7-2.1,7.9,0.2c4.3,4.6,5.6,10.1,4.2,16.2c-0.6,2.5-1.9,4.7-3.9,6.4c-2,1.7-3.8,3.7-5.6,5.6
		C323.7,244.2,323.8,247,323.6,249.6z M367.2,230.8c-0.2,4.5-0.3,9.1-0.5,13.8c2.5,0,3.5-0.4,5.2-1.9c-0.3-4.1-0.6-8.2-0.9-12.3
		c2.6-1.8,5.7-0.1,8.2-1.4c-0.1-1.7-0.1-1.8-1.2-1.9c-1.4,0-2.9,0.1-4.3,0.3c-1,0.2-1.9,0.1-2.7-0.9c-0.2-6-0.4-12.2-0.6-18.2
		c-2.9-1.4-5.8-0.9-7.4,1.2c-1.4,1.8-2.7,3.8-4,5.6c-1.7,2.4-3.3,4.9-5,7.3c-1.9,2.7-3.9,5.3-5.9,8c0.2,0.2,0.3,0.4,0.5,0.4
		c4.7,0,9.4,0.4,14.1-0.5C364.2,230,365.6,229.6,367.2,230.8z M81.2,257.7c-1.9-6.7-0.6-13.2-1.8-19.6c-0.9-4.7-0.8-9.7-1.1-14.5
		c-0.1-0.9-0.3-1.6-1.2-1.9c-1.6-0.6-3.9,0.3-4.4,2c-0.6,2.2-1.9,3.8-3.2,5.6c-0.5,0.6-0.8,1.4-1.2,2.3c2.7-0.8,3.2-3.7,5.8-4.6
		c1,3.7,0.1,7.3,0.7,10.9c0.5,3.6,0.4,7.3,0.6,11c0.2,3.5-0.4,7.1,0.7,11C77.8,259.2,79.3,258.5,81.2,257.7z M139.9,117.6
		c-1.7,1.5-3.2,2.8-4.6,4.1c-3.5,3.2-7.1,6.4-10.6,9.6c-0.6,0.5-0.9,1.4-1.5,2.4c2.6,0.7,4.8,1.2,6.8,1.7c4.9-4.3,9.7-8.6,14.6-12.9
		C143,121,141.6,119.5,139.9,117.6z M324.5,327.2c4.9-2,15.9-9.8,17.2-12.2c-1-1.5-2-3.1-3.2-4.9c-5.8,3.8-11.6,7.6-17.6,11.6
		C322.2,323.7,323.3,325.4,324.5,327.2z M188.2,138.7c-0.6,2-1.2,3.7-1.7,5.3c-0.2,0.7-0.2,1.6,0,2.3c1.3,4.6,3.8,5.6,8.1,3.8
		c2.6-1.1,5.4-1.9,8.1-2.7c1.6-0.5,3.3-0.7,4.9-0.9c1.8-0.2,3.7-0.2,5.4,0.7c0.4,0.2,1,0.3,1.6,0.5c-0.6-2.6-1.7-4-3.6-4.1
		c-1.5-0.1-3,0.1-4.5,0.4c-3.4,0.7-6.7,1.5-10.2,1c-1.2-0.2-2.6-0.5-3.5-1.2c-1.4-1.2-3.2-2.2-3.6-4.3
		C189.3,139.3,188.7,139.1,188.2,138.7z M169.4,347.9c0.1,0.7,0,1.4,0.2,2.1c0.3,1.9,1.9,3.5,3.6,3.6c3.3,0.2,4.4,0.3,5.9-2.3
		c1.9-3.3,1.1-6.4-0.8-9.4c-1.4-2.2-3.1-2.7-4.8-1.4C171.2,342.4,169.1,344.5,169.4,347.9z M191.2,343.8c-1.1,0.4-2,0.6-2.7,1
		c-2.7,1.9-3.9,4.6-4.1,7.7c-0.1,3.5,5,6.7,7.9,4.8c2.9-2,4.8-5.1,2.5-8.8C193.9,346.8,192.6,345.4,191.2,343.8z M103.2,163.8
		c2.6,0.1,3.4-0.8,2.7-4.2c-0.3-1.4-0.6-2.8-1.1-4.2c-1.2-3.8-6.3-5.1-9.2-2.4c-1.6,1.4-2.1,3.9-1.2,5.9
		C95.8,162.5,98.7,163.8,103.2,163.8z M116.3,137.8c2.1-2.3,2.4-5.1,2.5-7.8c0-1.1-0.7-2.5-1.5-3.4c-1.5-1.6-5.4-1.7-7.2,0.1
		c-1.9,1.9-2.8,5.1-1.3,7.2C110.7,136.4,113.4,137.5,116.3,137.8z M161.7,333.2c-0.5,0.2-1,0.3-1.4,0.5c-1.1,0.6-2.2,1.2-3.3,1.9
		c-2.8,1.9-3.4,4.1-2,7.2c1,2.2,2.6,3.3,4.8,3.2c2.2-0.1,3.7-1.3,4.6-3.3C166,339.1,165.2,336.5,161.7,333.2z M100.6,146.8
		c0,0.2,0,0.3,0,0.5c2.2,0.8,4.3,1.6,6.5,2.3c1.1,0.4,2.2,0.1,2.5-1.1c1-3.2,1.2-6.6-1.8-9.3c-2-1.8-4.2-1.9-6.5-0.4
		c-1.7,1.1-2.4,3.6-1.7,5.8C100,145.3,100.3,146.1,100.6,146.8z M234.8,255.5c0.3,2.1,1.8,2.7,3.6,3c1.1,0.2,2.2,0.3,3.3,0.5
		c4.5,0.9,8.9,1.8,13.3,2.6c3.1,0.6,5.6,1.7,6.9,4.8c0.4,0.9,0.8,2.1,2.3,2c0.6-3.7,0.6-5.8-4.6-7.7c-0.4-0.1-0.7-0.3-1.1-0.5
		c-6.4-2.8-12.9-5.3-20.1-4.8C237.3,255.5,236.1,255.5,234.8,255.5z M363.4,342.9c0.8-0.5,1.2-0.7,1.4-0.9c1.5-1.6,2.8-3.3,4.4-4.7
		c1.7-1.6,2.4-3.1,1-5.2c-0.3-0.5-0.3-1.2-0.5-1.8c-0.5-1.3-1-2.6-1.7-4.4c-2.7,2.7-5.1,5.1-7.3,7.4
		C361.6,336.6,362.4,339.5,363.4,342.9z M366.2,349.1c-0.6,2.2,0.5,6.3,2.3,9.3c3.2,0.4,6.3,2.3,10,1.8c-0.9-3.1-1.7-5.9-2.6-8.8
		C372.7,350.7,369.4,349.9,366.2,349.1z M384.5,340.1c-2.1-0.5-3.8-0.9-5.4-1.3c-2.9-0.7-5.6-1.1-7.7,1.8c-0.8,1.1-2.1,1.9-3.1,2.9
		c-0.4,0.4-0.6,0.8-1,1.2c1.3,1.2,5.2,2.2,9.6,2.5C379.2,345.1,381.7,342.8,384.5,340.1z M347.6,332c0,3.7,1.3,6.5,2.5,9.7
		c3,0.6,6,1.3,9.4,2c-1-3.5-1.9-6.6-2.8-9.7C353.8,333.3,350.9,332.7,347.6,332z M358.8,347.7c-0.5-0.3-0.7-0.4-0.9-0.5
		c-2.6-0.6-5.2-1.3-7.9-1.8c-0.4-0.1-1,0-1.4,0.3c-2.4,1.8-4.4,4-6.4,6.3c0.5,0.4,0.7,0.7,1,0.7c2.7,0.5,5.5,1,8.2,1.3
		c0.5,0.1,1.1-0.3,1.5-0.7C354.8,351.6,356.7,349.8,358.8,347.7z M102.1,367.7c-0.4,0-0.8-0.1-1.1,0c-2.2,0.8-4.3,1.6-6.4,2.6
		c-0.8,0.4-1.6,1.2-1.9,2c-1.1,2.4-1.2,5-1.6,7.9c3.8-0.4,6.7-2.3,9.5-3.6C101.1,373.5,101.6,370.7,102.1,367.7z M364.3,359.4
		c-0.9-3.1-1.8-5.9-2.6-8.5c-2.2,1.9-4.3,3.6-6.2,5.5c-0.5,0.5-0.6,1.6-0.5,2.4c0.1,1.1,0.6,2.1,0.9,3.2c0.4,1.4,0.9,2.8,1.4,4.5
		C360,364.2,362.4,362,364.3,359.4z M106.1,367.7c-0.5,3.4-1,6.3-1.5,9.3c2.2,1.6,4.5,3.3,7,5.1c0.4-1.1,0.9-1.9,1-2.7
		c0.3-1.8,0.5-3.6,0.5-5.4c0-0.6-0.3-1.5-0.8-1.9C110.5,370.7,108.5,369.4,106.1,367.7z M91.4,367.1c4.6-1.2,8-2.7,9-3.9
		c-2-1.3-4-2.7-6-3.9c-0.6-0.4-1.4-0.7-2-0.6c-2.6,0.8-5.2,1.7-8.4,2.8C86.9,363.7,89.2,365.4,91.4,367.1z M96.7,346.4
		c-0.6,3.1-1.2,5.6-1.7,8.3c2.7,1.7,4.8,4.2,7.9,6c0.3-3.2,1.8-5.8,1-9C101.8,350.1,99.5,348.4,96.7,346.4z M109,364.8
		c2.6,2.1,4.8,3.8,7.1,5.6c2.8-1,5.6-2.1,8.8-3.3c-2.5-1.9-4.6-3.6-6.8-5c-0.6-0.4-1.7-0.4-2.4-0.1
		C113.5,362.8,111.5,363.8,109,364.8z M180.5,94.7c-3.1,1.5-6.6,1.7-9.1,4.5c1.4,1.8,1.3,4.3,3.2,5.8c1.5-0.6,2.9-1.1,4.3-1.7
		c1.3-0.6,2.7-1.2,4.1-1.9c-0.6-1.8-1-3.4-1.5-4.8C181.2,96,180.9,95.6,180.5,94.7z M116.9,349.4c-4.8,1-7.1,2.1-8.4,3.6
		c-0.4,2.8-0.8,5.2-1.1,7.8c0.5,0,0.8,0.2,1.1,0.1c1.9-0.7,3.7-1.4,5.5-2.2c1-0.4,1.8-1.1,1.9-2.3
		C116.2,354.1,116.5,351.7,116.9,349.4z M273.5,291.3c-2.2,5.6-0.6,12.4,3.4,14.6c0.5-2.8,1-5.6,1.4-8.4
		C276.8,295.6,275.2,293.5,273.5,291.3z M205.9,306.4c3.4-1.6,5.2-3.8,6.1-6.7c0.3-1.1-0.2-2.2-1.5-2.7c-1.1,0.9-2.1,1.7-3.2,2.5
		c-0.3,0.2-0.6,0.6-0.7,0.9C206.4,302.2,206.2,304,205.9,306.4z"/>
	<path class="st0" d="M209.5,115.9c-1-1.5-1.9-2.8-2.7-4c0.3-0.4,0.4-0.6,0.5-0.7c2.3-0.4,4.4-1.2,6.4-2.4c1.3-0.8,2.8-0.5,4.1,0.4
		c1.7,1.2,3.5,2.3,5,3.8c1.6,1.5,3.4,2.3,5.4,3c1,0.3,2.1,0.5,2.2,1.8c-1.6,1.2-1.6,1.2-10.2,0.1c-0.8,1.2-1.7,2.4-2.7,3.7
		c-1.7,2.3-2.8,2.4-4.8,0.5c-1.1-1.1-2.7-2-3.2-3.8c1-0.9,1.9-0.5,2.8,0c1.5,0.9,2.7,0.9,3.6-0.1c0.9-1,0.9-2.3,0.1-3.6
		c-0.8-1.2-2.3-1.5-3.8-0.5C211.2,114.5,210.5,115.1,209.5,115.9z"/>
	<path class="st0" d="M222.8,154.6c-0.5-5.6-3.1-10.8-3-16.3c0.5-0.2,0.7-0.4,0.9-0.4c0.5,0,0.9,0.1,1.3,0.2
		c0.1,0.3,0.2,0.5,0.3,0.8c1.1,4.5,2,9,4.1,13.2c0.9,1.8,0.8,3.8,0.3,5.6c-0.4,1.4-1.4,2.3-3,2.3c-0.7,0-1.5,0.1-2.1-0.1
		c-2.4-0.5-4.7-1.2-7.1-1.8c-0.1-1.6,0.9-2,2-2.1c1.1-0.1,2.2-0.1,3.4,0C221.1,156.1,222.1,155.8,222.8,154.6z"/>
	<path class="st0" d="M249.3,116.6c-1.6-1-1.9-2.6-0.3-3.8c1.8-1.3,3.8-2.2,6.2-1.4c2.2,0.7,3.3,2.1,3.8,4.4
		c0.5,2.5,0.1,4.8-0.3,7.1c-0.4,2.5-3.8,4.6-6.4,4.3c-0.6-0.1-1.2-0.2-1.9-0.4c-0.8-0.8-1.3-1.6-0.4-2.8c0.5-0.1,1.1-0.1,1.8-0.2
		c2.1-0.4,3.1-1.8,3.8-3.6c0.7-1.8-0.3-3.3-1.3-4.6c-0.8-1.1-2-0.8-3-0.3C250.5,115.7,249.9,116.2,249.3,116.6z"/>
	<path class="st0" d="M152.1,398.3c-0.1-5.4,1.4-9.8,4.6-13.5c2-2.3,4.6-4,7.8-4.1c1.7-0.1,3.5,0,5.2-0.1c2-0.1,3.8,0.7,5.4,1.8
		c2.3,1.6,4.6,3.3,5.9,5.8c2,3.9,1.9,8.1,0.5,12.1c-1.7,4.6-4.7,8.1-9.1,10.4c-1.1,0.6-2.4,0.8-3.7,0.9c-5.5,0.5-10.1-1.2-13.8-5.5
		C152.9,403.7,151.7,401,152.1,398.3z"/>
	<path class="st0" d="M30.9,220.5c-1.3,0-2.4,0-3.5,0c-3.6,0.1-7.2,0.3-10.7,0.4c-1.1,0-2.2-0.1-3.3-0.2c-0.7-3.7-0.5-7.1,1.2-10.2
		c2-3.6,9.1-5.3,13.3-2.4c0.3,0.2,0.6,0.5,0.8,0.8C30.9,212.4,31.8,216,30.9,220.5z"/>
	<path class="st0" d="M305.6,370.2c6-0.7,9.5,3.1,12.6,7.3c2.7,3.7,3.3,8.1,3.2,12.6c-0.1,2.6-1.6,4.9-3.3,6.8
		c-3.7,4.1-8.5,5.7-13.8,5c-3.7-0.4-6.7-2.4-9.1-5.3c-1.7-2.1-3.2-4.4-4-7c-1-2.9-1-5.9-0.1-8.9c1.3-4.2,4-7.1,7.7-9
		C300.8,370.4,303.2,369.8,305.6,370.2z"/>
	<path class="st0" d="M145,31.3c3.2-0.9,6.1,0.6,8.8,2.1c1.6,0.8,2.8,2.5,3.8,4.1c1.6,2.6,2.8,5.3,3.8,8.2
		c1.8,5.4,0.5,11.4-3.7,14.9c-3.7,3-7.9,4.4-12.6,4.4c-0.4,0-0.8-0.1-1.1-0.2c-4.4-2.2-8.1-5.2-10.5-9.5c-2.2-4-3.4-8.3-3.2-12.9
		c0.2-4.4,2.7-7.4,6.6-9.5C139.4,31.6,142,30.8,145,31.3z"/>
	<path class="st0" d="M18.3,265.7c-0.6-3.1,0.7-5.8,2.1-8.4c1.1-1.9,3-3.2,4.9-4c3.1-1.3,6.2-2.6,9.4-3.4c4.9-1.2,9.8-0.7,14.2,2.1
		c1.2,0.8,2.1,1.9,2.7,3.2c2.1,4.3,3.1,8.7,2.6,13.4c-0.2,2.4-1.7,4.3-3.5,5.8c-3.5,3.1-7.6,4.9-12.1,6c-3.3,0.8-6.6,0.7-10,0.2
		c-2.3-0.3-4-1.5-5.4-3.2c-1.3-1.5-2.4-3.2-3.4-4.9C18.5,270.5,17.8,268.2,18.3,265.7z"/>
	<path class="st0" d="M173.1,289.6c-2.4,0.2-4.6-1-6.2-2.7c-2-2.1-2.3-6.2,0.2-9.2c2.8-3.3,5.3-3.9,9.3-2.3c4.3,1.8,5.7,4.1,5.5,8.2
		c0,0.6-0.1,1.3-0.5,1.8C179.2,287.8,176.8,289.8,173.1,289.6z"/>
	<path class="st0" d="M174,258.3c2.7,0.4,5.1,1,6.2,3.8c0.7,1.7-0.1,4.6-1.7,6.1c-1.6,1.4-3.3,1.6-5.3,0.5c-1-0.5-2-1-3-1.6
		c-2.8-1.6-3.1-5.1-0.6-7.2C170.9,259,172.9,258.3,174,258.3z"/>
	<path class="st0" d="M365.6,213c0.2,0.8,0.6,1.5,0.7,2.3c0.1,1.4,0,2.9,0.1,4.3c0.1,2.5,0.3,4.9,0.4,7.7c-3.2,1.4-6.9,0.5-10.4,1.2
		c-0.7,0.1-1.4-0.3-2.3-0.5c0.2-0.8,0.3-1.3,0.5-1.6c3.4-4.5,6.8-9,10.2-13.4C365.1,212.9,365.3,212.9,365.6,213z"/>
</g>
</svg>
