<?xml version="1.0" encoding="utf-8"?>
<!-- Generator: Adobe Illustrator 22.1.0, SVG Export Plug-In . SVG Version: 6.00 Build 0)  -->
<svg version="1.1" id="Layer_1" xmlns="http://www.w3.org/2000/svg" xmlns:xlink="http://www.w3.org/1999/xlink" x="0px" y="0px"
	 viewBox="0 0 22.6 32" style="enable-background:new 0 0 22.6 32;" xml:space="preserve">
<style type="text/css">
	.st0{fill:#4F8BC6;}
	.st1{fill:#FFFFFF;}
</style>
<g>
	<g>
		<g>
			<g>
				<g>
					<path class="st0" d="M11.3,32c0.5-0.5,11.3-11.8,11.3-20.7c0-6.2-5-11.3-11.3-11.3S0,5.1,0,11.3C0,20.2,10.9,31.5,11.3,32"/>
				</g>
			</g>
		</g>
	</g>
</g>
<path class="st1" d="M16.494,6.533c-1.223-1.229-2.915-1.991-4.786-1.991c-3.728,0-6.75,3.022-6.75,6.75s3.022,6.75,6.75,6.75
	c1.871,0,3.563-0.762,4.786-1.991l-4.759-4.759L16.494,6.533z M10.708,7.708c0-0.552,0.448-1,1-1s1,0.448,1,1c0,0.552-0.448,1-1,1
	S10.708,8.261,10.708,7.708z"/>
</svg>
