<?xml version="1.0" encoding="utf-8"?>
<!-- Generator: Adobe Illustrator 22.1.0, SVG Export Plug-In . SVG Version: 6.00 Build 0)  -->
<svg version="1.1" id="Layer_1" xmlns="http://www.w3.org/2000/svg" xmlns:xlink="http://www.w3.org/1999/xlink" x="0px" y="0px"
	 viewBox="0 0 32 32" style="enable-background:new 0 0 32 32;" xml:space="preserve">
<path d="M16.017,0.016c2.208,0,4.286,0.417,6.234,1.25c1.948,0.833,3.646,1.974,5.094,3.422c1.448,1.448,2.589,3.146,3.422,5.094
	c0.833,1.948,1.25,4.026,1.25,6.234s-0.417,4.286-1.25,6.234c-0.833,1.948-1.974,3.646-3.422,5.094
	c-1.448,1.448-3.146,2.589-5.094,3.422c-1.948,0.833-4.026,1.25-6.234,1.25c-2.208,0-4.286-0.417-6.234-1.25
	c-1.948-0.833-3.646-1.974-5.094-3.422C3.24,25.897,2.1,24.199,1.266,22.251c-0.833-1.948-1.25-4.026-1.25-6.234
	s0.417-4.286,1.25-6.234C2.1,7.834,3.24,6.136,4.688,4.688C6.136,3.24,7.834,2.1,9.782,1.266C11.73,0.433,13.808,0.016,16.017,0.016
	z M3.016,16.017c0,1.708,0.312,3.323,0.938,4.844c0.625,1.521,1.479,2.865,2.562,4.031l5.5-12.875l12.875-5.5
	c-1.167-1.083-2.511-1.938-4.031-2.562c-1.521-0.625-3.136-0.938-4.844-0.938c-1.792,0-3.479,0.339-5.062,1.016
	C9.371,4.709,7.99,5.636,6.813,6.813C5.636,7.99,4.709,9.371,4.032,10.954C3.355,12.537,3.016,14.225,3.016,16.017z M16.017,29.017
	c1.792,0,3.479-0.339,5.062-1.016c1.583-0.677,2.964-1.604,4.141-2.781c1.177-1.177,2.104-2.557,2.781-4.141
	c0.677-1.583,1.016-3.271,1.016-5.062c0-1.708-0.312-3.323-0.938-4.844S26.6,8.308,25.517,7.141l-5.5,12.875l-12.875,5.5
	c1.167,1.083,2.51,1.938,4.031,2.562C12.693,28.704,14.308,29.017,16.017,29.017z M18.298,18.298l-4.562-4.562l-3.438,8
	L18.298,18.298z"/>
</svg>
