<?xml version="1.0" encoding="utf-8"?>
<!-- Generator: Adobe Illustrator 22.1.0, SVG Export Plug-In . SVG Version: 6.00 Build 0)  -->
<svg version="1.1" id="Layer_1" xmlns="http://www.w3.org/2000/svg" xmlns:xlink="http://www.w3.org/1999/xlink" x="0px" y="0px"
	 viewBox="0 0 23 23" style="enable-background:new 0 0 23 23;" xml:space="preserve">
<style type="text/css">
	.st0{fill:#FFFFFF;}
</style>
<g>
	<path class="st0" d="M22.798,18.485c0.03,0.03,0.06,0.067,0.09,0.112s0.052,0.09,0.067,0.135c0.045,0.135,0.056,0.27,0.034,0.404
		s-0.086,0.255-0.191,0.359l-3.302,3.302c-0.105,0.105-0.225,0.168-0.359,0.191s-0.27,0.011-0.404-0.034
		c-0.045-0.015-0.09-0.037-0.135-0.067s-0.082-0.06-0.112-0.09L11.5,15.812l-6.985,6.985c-0.03,0.03-0.067,0.06-0.112,0.09
		s-0.09,0.052-0.135,0.067C4.133,23,3.998,23.011,3.863,22.989s-0.255-0.086-0.359-0.191l-3.302-3.302
		c-0.105-0.105-0.168-0.225-0.191-0.359S0,18.867,0.045,18.732c0.015-0.045,0.037-0.09,0.067-0.135s0.06-0.082,0.09-0.112
		L7.188,11.5L0.202,4.515c-0.03-0.03-0.06-0.067-0.09-0.112S0.06,4.312,0.045,4.268C0,4.133-0.011,3.998,0.011,3.863
		s0.086-0.255,0.191-0.359l3.302-3.302c0.105-0.105,0.225-0.168,0.359-0.191S4.133,0,4.268,0.045
		c0.045,0.015,0.09,0.037,0.135,0.067s0.082,0.06,0.112,0.09L11.5,7.188l6.985-6.985c0.03-0.03,0.067-0.06,0.112-0.09
		s0.09-0.052,0.135-0.067c0.135-0.045,0.27-0.056,0.404-0.034s0.255,0.086,0.359,0.191l3.302,3.302
		c0.105,0.105,0.168,0.225,0.191,0.359S23,4.133,22.955,4.268c-0.015,0.045-0.037,0.09-0.067,0.135s-0.06,0.082-0.09,0.112
		L15.812,11.5L22.798,18.485z"/>
</g>
</svg>
